<svg version="1.1" id="Layer_1" xmlns="http://www.w3.org/2000/svg" x="0" y="0" viewBox="0 0 117 40" xml:space="preserve"><g class="nc-icon-wrapper" fill="#b5afa3"><path d="M24 10.7c1.7.6 3.5-.5 4.2-2.3.6-1.9-.2-3.8-1.8-4.4-1.7-.6-3.5.5-4.2 2.3-.6 1.8.2 3.8 1.8 4.4zm10.1-4.6c-1.5 1.5-4 4.1-7.6 5.4-2 .7-3.5-.2-4-.7C19.4 8.3 20.7 2 20.6.9c-.1-.6-.3-.8-.6-.9h-.7l-.3.9c-.7 2.9-2.7 12.6 1.8 20.6 1 1.8 1.4 2.2-.5 3.8-1.8 1.6-5.3 3.2-10.3 2.3-.9-.2-.6-1.5-.4-2.4.7-4.8.5-6.6-.3-7.9-.8-1.4-5.2-2.4-8.5-2.7-.6 1.6-.8 3.3-.8 5.1v.1C0 27 3.9 33.3 9.6 36.7c.3-2.1.7-4.8 1.4-6.8.1-.3.4-1.1 1.1-1.3.4-.1 1-.1 1.6 0 .6.1.8.5.6 1.2-.6 2.6-1.7 5.7-2.6 7.9 1.9.8 3.9 1.4 6 1.6-.1-.4-.2-.8-.2-1.4-.2-2.1-1.1-5.8-1-8.5 0-.3.1-1.2.7-1.5.3-.2.9-.5 1.6-.7.4-.1.9.2 1 1 .2 3.5 0 8.3-.2 10.5 0 .2 0 .4-.1.6h.4c.6.1 1.2-.2 1.4-.8.9-3.3.9-11.5 2.7-12.3.1-.1.3-.1.4-.1 2 .3 4.6 8.2 6.5 11.1.8 1.2 2.7.1 2.3-1-.4-1.1-3.2-8.4-3.9-11.6-.7-3.2-.7-5.2-2-4.8-1.6.5-4.7.9-6-.3-.1-.1-.2-.4.2-.2 1.3.5 6.1.8 7-1.6C30.1 13.6 35.6 7.9 36 7c.1-.8-1.1-1.7-1.9-.9zm5.4 24.4v.4H117v-.4H39.5zm21.1-12.7c.7 0 1.2-.5 1.2-1.2s-.5-1.2-1.2-1.2-1.2.5-1.2 1.2c0 .6.6 1.2 1.2 1.2zm3.2 9.8c0 .5.4 1 1 1 .5 0 1-.4 1-1V15h-1.9v12.6zM48.4 12c0 .5.4.8.9.8.4 0 .8-.4.8-.8V5h-1.7v7zm4.6.9c.5 0 .8-.4.8-.8V8.8c0-1 1.1-2.8 2-2.8.8 0 1.1.5 1.1 2.6V12c0 .5.4.8.8.8.5 0 .8-.4.8-.8V7.2c0-1.3-.3-2.2-2-2.2-1.6 0-2.3 1.3-2.7 2V5h-1.7v7c.1.5.5.9.9.9zm15.9-.9V5h-1.7v7c0 .5.4.8.8.8.6.1.9-.3.9-.8zm5.8 16.5c.5 0 1-.4 1-1V15h-1.9v5.8c-.4-.6-1-1.4-2.4-1.4-2.7 0-3.6 2-3.6 4.7 0 2.3.6 4.7 3.2 4.7 1.7 0 2.4-1 2.8-1.6v.4c0 .5.4.9.9.9zm-2.9-.9c-1.6 0-2-1.6-2-3.6 0-1.8.4-3.7 2-3.7 1.5 0 1.9 1.4 1.9 3.7.1 1.9-.3 3.6-1.9 3.6zM50.1 15v12.6c0 .5.4 1 1 1 .5 0 1-.4 1-1v-3.7c0-1.2 1.2-3.3 2.3-3.3 1 0 1.2.6 1.2 3v4c0 .5.4 1 1 1 .5 0 1-.4 1-1V22c0-1.5-.4-2.6-2.3-2.6-1.8 0-2.7 1.5-3.1 2.3V15h-2.1zm-.9-11.4c.6 0 1-.5 1-1 0-.6-.5-1-1-1-.6 0-1 .5-1 1 0 .6.5 1 1 1zm10.5 23.9c0 .5.4 1 1 1 .5 0 1-.4 1-1v-8.2h-1.9v8.2zm8.4-23.9c.6 0 1-.5 1-1 0-.6-.5-1-1-1-.6 0-1 .5-1 1 0 .6.5 1 1 1zm27.6 7.5c0 1.4.9 1.9 2.3 1.9h.7c.1 0 .4-.2.4-.4 0-.3-.3-.4-.5-.4h-.3c-1 0-1.1-.5-1.1-1.6V5.4h2v-.9h-2V1.8l-1.6 1v1.7h-1.2v.8h1.2v5.8zm6.4.9V5h-1.7v7c0 .5.4.8.8.8.5.1.9-.3.9-.8zm-.9-8.4c.6 0 1-.5 1-1 0-.6-.5-1-1-1-.6 0-1 .5-1 1 0 .6.5 1 1 1zm4.8 21.2c.8.5 1.5.9 1.5 1.5.1.8-.3 1.7-1.7 1.7-1.1 0-1.4-.7-1.9-.9-.2-.1-.5-.1-.6.1-.3.4.1.8.3.9.4.3 1.3.8 2.2.8 2 0 3.6-1 3.6-2.9 0-1-.6-1.7-1.3-2.2-1.3-.9-3.1-1.4-3.1-2.4 0-.8.7-1.2 1.4-1.2 1 0 1.7.4 2.4 1.1V20c-.6-.4-1.4-.7-2.1-.8h-.1c-2.4 0-3.4 1.2-3.4 2.6 0 1.6 1.5 2.3 2.8 3zM72 12.9c.5 0 .8-.4.8-.8V8.8c0-1 1.1-2.8 2-2.8.8 0 1.1.5 1.1 2.6V12c0 .5.4.8.9.8.4 0 .8-.4.8-.8V7.2c0-1.3-.3-2.2-2-2.2-1.6 0-2.3 1.3-2.7 2V5h-1.7v7c0 .5.3.9.8.9zm28.9 4c0 .6.4.9.8.9.2 0 .3.1.3.3 0 .6-.3.9-.6 1.3-.1.2-.1.4.1.4s.4-.1.5-.3c.2-.3 1.2-1.1 1.2-2.4 0-.7-.5-1.3-1.2-1.3-.6.1-1.1.5-1.1 1.1zm-20.4-4c.5 0 .8-.4.8-.8V8.8c0-1 1.1-2.8 2-2.8.8 0 1.1.5 1.1 2.6V12c0 .5.4.8.8.8.5 0 .8-.4.8-.8V7.2c0-1.3-.3-2.2-2-2.2-1.6 0-2.3 1.3-2.7 2V5h-1.7v7c.1.5.5.9.9.9zm-1.7 15.6c.5 0 1-.4 1-1v-3.3c0-2 .9-3.2 1.5-3.2s.5.4 1.2.4c.6 0 1-.4 1-1.1 0-.6-.6-1-1-1-1.6 0-2.3 1.4-2.6 2.3v-2.3H78v8.2c-.1.6.3 1 .8 1zm8.8-17.8c0 1.2.9 2.2 2 2.2 1.2 0 1.8-.9 2.1-1.4v.7c0 .4.4.8.8.8.5 0 .8-.3.8-.8V7.5c0-1.3-.3-2.6-2.7-2.6-2.3 0-2.8 1.1-2.9 2.1h1.7c.1-.8.2-1.5 1.2-1.5s1 1.3 1 2v.2c-.8.1-4 .2-4 3zm4.2-2.2v1.1c0 1.5-1 2.2-1.5 2.2s-.9-.5-.9-1.3c-.1-1.8 1.7-1.9 2.4-2zm.8 11v8.2c0 .5.5.9 1 .9s.9-.4.9-.9v-3.8c0-1.2 1.2-3.2 2.3-3.2.9 0 1.2.6 1.2 3v4c0 .5.4 1 1 1 .5 0 1-.4 1-1v-5.6c0-1.5-.4-2.6-2.3-2.6-1.8 0-2.7 1.5-3.1 2.3v-2.3h-2zm-9.2 4.4c0 3.2 1.7 5 4.7 5 1.1 0 2-.3 2.4-.4.1 0 .2-.2.2-.3 0-.3-.3-.4-.4-.3-.4 0-.8.1-1.3.1-2.7 0-3.5-1.8-3.5-3.9H91c0-1.6-.5-4.6-3.5-4.6-2.6 0-4.1 1.4-4.1 4.4zm4-3.7c1.3 0 1.6 1.9 1.6 3.1h-3.5c0-.8.4-3.1 1.9-3.1zM63.9 13c.6 0 1.2-.1 1.7-.3.1 0 .3-.1.2-.3 0-.3-.3-.4-.5-.3-.3.1-.6.1-.9.1-1.9 0-2.7-2.2-2.7-4 0-1.4.5-2.5 1.4-2.5 1 0 1.1 1.1 1.1 2H66c0-1.6-.7-2.7-2.7-2.7-2.1 0-3.2 1.4-3.2 3.7.1 2.8 1.4 4.3 3.8 4.3zm-21.7.2c2.2.5 4.1-.4 4.7-1 .1-.1.2-.3.1-.5s-.3-.2-.5-.1c-4.1 1.7-5.7-1.1-6.1-2.5-.2-.7-.2-1.5-.2-2.3 0-1.6.4-4.3 2.6-4.3 1.6 0 2 1.3 2 2.3H47c0-1.8-1.3-3.2-4.1-3.2-3.7 0-4.8 2.9-4.8 5.6 0 2.8 1.2 5.4 4.1 6zm.7 15.2c2.5.5 4.7-.5 5.4-1.2.1-.1.3-.3.1-.5-.1-.2-.4-.2-.6-.1-4.8 2-6.6-1.3-7-2.9-.2-.8-.3-1.7-.3-2.7 0-1.8.4-5 3-5 1.9 0 2.3 1.5 2.3 2.6h2.6c0-2.1-1.5-3.7-4.7-3.7-4.3 0-5.5 3.3-5.5 6.4 0 3.4 1.4 6.4 4.7 7.1zM13.3 13.6c1-.6 1-1.3 1.1-2 .7-3.8 1.8-8.3 2.8-10.8 0-.1.2-.4.3-.7C10 1 3.8 6 1.2 12.9c3.6.1 7.4.3 9.4.6.8.1 1.9.6 2.7.1zm-4-1.6c-.7-.4-1.2-1-1.2-1.1-.1-.1-.3 0-.2.2.2.5.5.9.9 1.2-1.6.3-2.3-.5-2.3-.5.2-.3.4-1 .3-1.4-.3-3.2 0-4.1 1.3-5.1 1.2-.9 3.1-.6 4-.1 1.1.7 2.4.4 2.4.4.2 1.8-.5 3.2-.7 3.4-.1-1.7-1.1-2.5-2.1-3-.2-.1-.4 0-.2.2.3.2 2 1.5 1.6 3.7-.4 3.1-3 2.5-3.8 2.1 0 .1 0 0 0 0zm73.5 26.3h.7v-3.9h-.7v3.9zm-6.3-4c-1.1 0-1.7.7-1.7 1.9 0 1.4.8 2.1 2.1 2.1.4 0 .7 0 1-.1v-.5h-.2c-.2 0-.3.1-.7.1-1.2 0-1.5-1-1.5-1.6V36H78v-.2c0-.9-.6-1.5-1.5-1.5zm-.9 1.2c.1-.2.2-.6.8-.6.6 0 .7.4.8.6h-1.6zm-14.2-1.2c-1.1 0-1.6.6-1.6 1.1h.8c0-.3.2-.6.8-.6.4 0 .7.2.7.5v.7h-.4c-.8 0-2.1.3-2.1 1.2 0 .7.4 1.1 1.2 1.1.7 0 1.1-.3 1.3-.5v.4h.7v-2.7c.1-.4-.1-1.2-1.4-1.2zm.6 2.9c-.2.4-.6.6-1 .6-.3 0-.6-.2-.6-.5 0-.6 1-.8 1.3-.8h.3c.2.5.1.6 0 .7zm19.2-4.5v2.2c-.2-.4-.6-.6-1.1-.6-1.1 0-1.5 1.1-1.5 2 0 1.3.5 2 1.5 2 .6 0 .9-.3 1.1-.6v.5h.7v-5.6l-.7.1zm-1 5.1c-.6 0-.8-.5-.8-1.3 0-.7.1-1.6.9-1.6.6 0 .9.8.9 1.5-.1.5-.3 1.4-1 1.4zm-16.4.5h.7v-5.6h-.7v5.6zm9.2-5.5l-1.6 4.6-1.6-4.6h-1.1v5.6h.7v-4.7l1.7 4.6h.6l1.7-4.6v4.7h.7v-5.6H73zm29.4 1.5c-1.1 0-1.7.7-1.7 1.9 0 1.4.8 2.1 2.1 2.1.4 0 .7 0 1-.1v-.5h-.1-.1c-.2 0-.3.1-.7.1-1.2 0-1.5-1-1.5-1.6V36h2.5v-.2c0-.9-.6-1.5-1.5-1.5zm-.9 1.2c.1-.2.2-.6.8-.6.6 0 .7.4.8.6h-1.6zm-18.3-2.6c-.2 0-.4.2-.4.4s.2.4.4.4.4-.2.4-.4-.2-.4-.4-.4zm6.5 1.4c-1.1 0-1.6.6-1.6 1.1h.8c0-.3.2-.6.8-.6.4 0 .7.2.7.5v.7H90c-.8 0-2.1.3-2.1 1.2 0 .7.4 1.1 1.2 1.1.7 0 1.1-.3 1.3-.5v.4h.7v-2.7c.1-.4-.1-1.2-1.4-1.2zm.6 2.9c-.2.4-.6.6-1 .6-.3 0-.6-.2-.6-.5 0-.6 1-.8 1.3-.8h.3c.2.5.1.5 0 .7zm8.2-4.6c-2.1 0-2.4 1.7-2.4 2.8 0 .6.1 1.3.5 2s1.1 1 1.9 1c.8 0 1.3-.2 1.5-.3h.1v-.8h-.1c-.2.1-.7.4-1.4.4-1.5 0-1.7-1.5-1.7-2.3 0-1.5.5-2.2 1.5-2.2.7 0 1.1.4 1.1 1h.9c.1-.9-.7-1.6-1.9-1.6zm-12.3 1.7c-1.2 0-1.8.7-1.8 1.9 0 1.3.8 2.1 2.2 2.1.4 0 .6 0 .9-.1v-.5h-.1c-.2.1-.5.1-.7.1-1.4 0-1.6-1.1-1.6-1.7 0-.6.3-1.3 1-1.3.6 0 .7.5.7.7h.8c.1-.3-.1-1.2-1.4-1.2zm-43.4.8h-2.5v-2.4h-.8v5.6h.8v-2.6h2.5v2.6h.8v-5.6h-.8v2.4zm66.8-.7v-1.3h-.1l-.6.3v.9h-.7v.7h.7v2.4c0 .7.4 1 1.2 1h.5v-.6h-.1c-.1 0-.2.1-.4.1-.4 0-.7-.2-.7-.6V35h1.1v-.5l-.9-.1zM50 36.1l-.4-.2-.2-.1c-.3-.1-.6-.2-.6-.5s.3-.4.8-.4c.4 0 .8.1 1 .2h.1v-.6h-.1c-.3-.1-.6-.1-.9-.1-.9 0-1.5.4-1.5 1s.5.8.9 1l.1.1.4.2s.1 0 .1.1c.3.1.6.3.6.6 0 .5-.6.6-1 .6-.3 0-.7-.1-1.1-.2h-.1v.6c.2.1.6.2 1.2.2 1.1 0 1.6-.4 1.6-1.2 0-.9-.5-1.1-.9-1.3zm-4-1.8c-1.1 0-1.8.7-1.8 2s.6 2 1.8 2c.6 0 1.1-.2 1.4-.6.3-.3.4-.8.4-1.4 0-1.2-.7-2-1.8-2zm0 3.5c-.6 0-1-.5-1-1.5s.4-1.5 1-1.5c.7 0 1 .5 1 1.5s-.3 1.5-1 1.5zm66.6-3.3c-1.1 0-1.7.7-1.7 1.9 0 1.4.8 2.1 2.1 2.1.4 0 .7 0 1-.1v-.5h-.1-.1c-.2 0-.3.1-.7.1-1.2 0-1.5-1-1.5-1.6v-.2h2.5V36c0-1-.5-1.5-1.5-1.5zm-.9 1.1c.1-.2.2-.6.8-.6.6 0 .7.4.8.6h-1.6zm-58.3-1.3c-.6 0-.9.3-1.1.6v-.5h-.7V40h.7v-2.2c.1.3.4.6 1.1.6 1.1 0 1.5-1.1 1.5-2 0-1.4-.5-2.1-1.5-2.1zm-.2 3.5c-.6 0-.9-.8-.9-1.5 0-.6.3-1.5 1-1.5s.8.7.8 1.3c0 .9-.1 1.7-.9 1.7zm38.9.5h.7v-5.6h-.7v5.6zm-33.9-5.1l-.7.4v.9h-.6v.5h.6v2.4c0 .7.4 1 1.2 1h.5v-.6h-.1c-.1 0-.2.1-.4.1-.4 0-.7-.2-.7-.6V35h1.1v-.5H58v-1.3zm57.4 2v-.6h-.7v3.9h.7v-1.6c0-1.1.5-1.7 1.4-1.7v-.7c-.9 0-1.3.4-1.4.7zm-9-.9c-.8 0-1.2.5-1.3.8v-.7h-.7v3.9h.7v-1.6c0-.7.4-1.7 1.2-1.7.6 0 .6.4.6 1.2v2.1h.7v-2.7c0-.7-.4-1.3-1.2-1.3zm-51 4h.7v-3.9h-.7v3.9zm.4-5.4c-.2 0-.4.2-.4.4s.2.4.4.4.4-.2.4-.4-.2-.4-.4-.4z"/></g></svg>