<svg version="1.1" id="Layer_1" xmlns="http://www.w3.org/2000/svg" x="0" y="0" viewBox="0 0 117.8 27.2" xml:space="preserve"><g class="nc-icon-wrapper" fill="#b5afa3"><path d="M51.6 11.7c0-.7.8-1.1 1.4-1.1 1.8 0 1.6 1.9 2.3 1.9.1 0 .2 0 .2-.6v-1.3c0-.1-1.1-.6-2.1-.6-1.6 0-3.5.6-3.5 2.9 0 2.6 4.3 2.2 4.3 4.6 0 .9-.8 1.3-1.7 1.3-2.1 0-2-2.1-2.4-2.1-.3 0-.3.7-.3 1.8 0 .7 1.4 1.1 2.5 1.1 1.2 0 3.6-.4 3.7-3 .1-3.4-4.4-3.1-4.4-4.9zM17.1 0c-1.5 0-3 .3-4.3 1.4C11.5.4 10 0 8.5 0 3.8 0 0 4 0 9c0 8.9 8.7 16.1 12.7 18.2v-5.5c5-1.7 12.4-7.5 12.4-13.3 0-4.9-3.6-8.4-8-8.4zm-4.4 16.7v4.9C9.5 18.9 5 13.9 5 9.2c0-2.5 1.7-4.5 4-4.5 1.7 0 3.2 1.1 3.7 2.6.5-1.5 2.1-2.6 3.7-2.6 2.2 0 3.8 1.8 3.8 4 0 3.6-5.2 6.9-7.5 8zm47.1-5.6h1.6c.1 0 .4 0 .4-.5 0-.4-.1-.5-.5-.5h-1.6c-.7 0-.1-1.8-.5-1.8-.3 0-.7.9-1.4 1.6-.7.6-1.5.9-1.5 1.2 0 .3.2.3.9.3.2 0 .2.1.2.3v5.5c0 1.7.9 2.4 2.1 2.4 1.3 0 2.4-.9 2.4-1.4 0-.2-.1-.3-.2-.3s-.7.2-1.1.2c-.9 0-1.2-.2-1.2-1.5v-4.4c-.2-.8-.3-1.1.4-1.1zm-11.7-1c-1.4 0-1.7 1-2.1 1-.4 0 .1-1.3-.4-1.3-.2 0-.3.4-1.2 1-.7.4-1.2.6-1.2 1-.1.6.8 0 .8 1.5 0 0 .2 4.9-.1 5-.3.1-.5.5-1.1.5-.5 0-.9-.3-.9-.3-.2-.3-.1-.5-.1-1.1V9.8c0-.1-.1-.1-.2-.1s-.4.5-1.1 1c-1.2.5-1.7.3-1.7.7 0 .9 1.1.1 1.1 1.4v4.8c0 .4-.1.6-.3.9 0 0-.2.1-.4.1-.4.1-.7.2-.7.4 0 .1.1.2.3.2h8.8c.3 0 .4 0 .4-.3.1-.4-.9-.4-.9-.4-1 0-1.2-.5-1.2-1.3v-4c0-1 .2-1.5.7-1.5.5 0 .9 1 1.7 1 1 0 1.2-.9 1.2-1.2.1-.8-.6-1.4-1.4-1.4zM34 8.7c0-1.3.2-1.3 1.3-1.4.7 0 2.5.1 2.9 1.2.3.4.3 1.2.5 1.2.3 0 .3 0 .3-2.1 0-1-.2-1-.9-1H31c-.5 0-.8.1-.8.4 0 .2 0 .3.8.3.5.1.7.2.7 1v9.4c0 .7-.2.9-.5.9-.9 0-1.1.1-1.1.3 0 .3.1.4.3.4h4.9c.4 0 .8-.1.8-.3 0-.2-.2-.3-.8-.4-1.1-.2-1.3-.3-1.4-1.5v-3.4c0-.6.1-.7 1.2-.7 1.7 0 2 .7 2.1 1.2.1.4.2.7.4.7.2.1.3-.3.3-1.9 0-2.4-.1-2.5-.3-2.5-.3 0-.3.4-.5 1.1-.2.4-.5.7-2.4.7-.7 0-.8-.1-.8-.5V8.7zm81.6 5.9c-1.2 0-2.3.9-2.3 2.2 0 1.3 1 2.2 2.3 2.2 1.2 0 2.2-1 2.2-2.2 0-1.3-1-2.2-2.2-2.2zm0 4.1c-1.1 0-1.7-.9-1.7-1.8 0-1.1.8-1.8 1.7-1.8 1 0 1.7.7 1.7 1.8.1 1.1-.7 1.8-1.7 1.8zm-3.7-.2c-.3-.2-.5-.3-.5-.7v-4.4c0-2.5-1.3-3.2-2.9-3.2-1.5 0-2.6 1.3-2.7 1.3l-.1-.1V6.8c0-.4 0-.9-.3-1-.3 0-2.6 1-2.6 1.3 0 .4.9.2 1 .9v8.9c0 1.1 0 1.3-.5 1.6-.2.1-.7.1-.8.3 0 .2.1.4.3.4.7-.1 3.4 0 3.8 0 .3 0 .7-.1.7-.3 0-.1-.2-.2-.4-.2-.2-.1-.4-.1-.8-.3-.2 0-.3-.1-.3-.4v-4.8c0-1.2 1.3-1.6 1.8-1.6 2.2 0 2 1.6 2 1.8v3.4c0 1-.1 1.5-.4 1.6-.3.2-.9.2-.9.5 0 .2.3.2.7.2.4 0 2.8.1 3 .1.4 0 .7-.1.7-.3-.2-.2-.2-.2-.8-.4zM101.6 10H100c-.8 0-.1-1.8-.7-1.8-.3 0-.7.9-1.3 1.6-.7.6-1.6.9-1.6 1.2 0 .3.3.3 1 .3.1 0 .2.1.2.3l-.1 5.5c0 1.7.9 2.4 2.1 2.4 1.4 0 2.4-.9 2.4-1.4 0-.2-.1-.3-.2-.3s-.5.2-1.1.2c-.8 0-1.2-.2-1.2-1.5v-4.4c0-.6 0-1 .7-1h1.6c.1 0 .3 0 .4-.5 0-.4-.2-.6-.6-.6zm-5 8.7c-.1-.1-.1-.1-.9-.3-.7-.2-.8-.3-.8-.7V6.4c0-.3 0-.5-.2-.5-.1 0-.9.5-1.2.6-.6.3-1.5.4-1.5.9 0 .3.4.4.7.6.3.2.3.4.3 1.9v6.5c0 1-.1 1.3-.3 1.5-.1.2-.2.2-.4.3-.3.1-.5.1-.9 0-.3-.1-.8-.5-.8-1.6v-4.8c0-1.2-.5-1.9-2.4-1.9-2.4-.1-4.1 2.1-4.1 2.8 0 .3.1.5.5.6.7 0 1.3-.5 1.4-1.3.2-1.1.9-1.3 1.5-1.4 1 0 1.3.7 1.3 1.8 0 .5 0 .7-.4 1-1.3.9-4 1.5-4.1 4.1-.1 1.7 1 2 1.5 1.9 1.5 0 2.8-1.2 2.8-1.2.2.1.9 1 1.8 1h3.3c.8 0 2.5.1 2.8-.1.3-.1 0-.5.1-.4zm-9.7-.5c-.5-.1-.9-.5-.9-1.2 0-1.7 2.2-2.7 2.4-2.7.3-.1.3.2.3 1.1.2 2-.2 3-1.8 2.8zm-6.8-8.3c-2-.1-4.1 2-4.1 4.9 0 2.6 1.7 4.6 3.9 4.6 2.4 0 3.5-1.8 3.5-2.1 0-.2 0-.3-.2-.3-.4.1-1.2 1.1-2.5 1-1.2 0-2.6-1.2-2.6-3.1 0-1 .5-.7.8-.7h4.5c.3 0 .3-.2.3-.4-.1-1.5-1-3.9-3.6-3.9zm-1.3 3.4c-.4 0-.7 0-.7-.3 0-.9.9-2.4 2.2-2.4 1.2 0 1.4 1 1.4 1.3 0 1.1-.3 1.5-2.9 1.4zm37.8 3.1c0-.4-.3-.6-.9-.6h-1v2.5h.4v-1.1h.3l.7 1.1h.5l-.8-1.1c.6-.2.8-.3.8-.8zm-1.4.4V16h.4c.3 0 .5 0 .5.3s-.2.4-.5.4h-.4zm-39.6 1.7c-.7-.1-.8-.4-.8-1.2v-9c0-.7.2-.9.3-1 .4-.1 1.1 0 1.1-.5 0-.2-.1-.3-.5-.3H72c-.3 0-.7.1-.7.4 0 .2.3.3.8.3.2 0 .7.1.7.5v3.8c0 .3 0 .6-.4.6h-3.9c-.5.2-.5-.1-.5-.4V8.1c0-.5.1-.7.7-.9.5 0 .8-.1.8-.3 0-.4-.3-.4-.5-.4h-3.8c-.2 0-.5.1-.5.3 0 .3.3.4.9.4.5 0 .7.4.7 1v9.4c0 .6-.3.7-.7.9-.8.2-1 .3-1 .4 0 .2.1.3.3.3h4.5c.2 0 .3-.1.3-.3 0-.2-.2-.3-1-.4-.2-.1-.5-.4-.5-1.2v-3.5c0-.6.3-.6.7-.6h3.6c.5 0 .5.5.5 1v3.2c0 .7-.2 1.1-.5 1.2-.7.1-1 .2-1 .4s.2.3.4.3H76c.3 0 .4-.1.4-.3-.1-.4-.3-.4-.8-.5z"/></g></svg>