<svg version="1.1" id="Layer_1" xmlns="http://www.w3.org/2000/svg" x="0" y="0" viewBox="0 0 123.1 15.8" xml:space="preserve"><g class="nc-icon-wrapper" fill="#b5afa3"><path d="M31.4 10.8V4.9c0-.8.8-.6.8-.8 0-.1 0-.1-.2-.1H29.6c-.1 0-.1 0-.1.1 0 .2.9 0 .9.8v5.7c0 1.1-.9.7-.9 1 0 .1 0 .2.2.2H32.1c.2 0 .2 0 .2-.1.2-.4-.9-.1-.9-.9zm9.1-6.5c0-.3-.1-.3-.3-.3H33.5c-.2 0-.2.3-.2.4l-.1 1.1c0 .1 0 .1.1.1.2 0 .2-.1.2-.3.2-.6.2-.8.9-.8h1.9c.2 0 .1.4.1.5v5.7c0 .7-.9.6-.9.8 0 .1 0 .1.1.1h2.5c.1 0 .1-.1.1-.1 0-.3-.9 0-.9-.9V5.1c0-.6-.1-.5.5-.5h1.6c1.2 0 .6.8 1 .8.1 0 .1-.1.1-.2v-.9zM28.4 4h-2.2c-.1 0-.2 0-.2.1 0 .4 1.3-.1 1.3 1.4V10.2s-.1 0-.1-.1l-5.5-5.9c-.1-.1-.3-.2-.4-.2h-1c-.1 0-.2 0-.2.1 0 .4 1.4-.2 1.4 2.1v4.1c0 1.5-1 1.1-1 1.4 0 .1 0 .1.1.1h2.3c.1 0 .1-.1.1-.1 0-.3-1 .1-1-.9V6.2 6c.1 0 .2.2.2.2l5 5.3c.2.3.4.3.4.3.1 0 .1-.2.1-.5V5c0-.8.7-.6.7-.9.1-.1 0-.1 0-.1zm-21.1.3c0-.3 0-.3-.3-.3H.3c-.2 0-.2.3-.2.4L0 5.5c0 .1 0 .1.1.1s.2-.1.2-.3c.2-.6.2-.8.9-.8h1.9c.2 0 .1.4.1.5v5.7c0 .7-.9.6-.9.8 0 .1 0 .1.1.1h2.5c.1 0 .1-.1.1-.1 0-.3-.9 0-.9-.9V5.1c0-.6-.1-.5.5-.5h1.6c1.2 0 .6.8 1 .8.2 0 .1-.1.1-.2v-.9zm7.1 6.3l-1.9-2.8c.8-.3 1.5-1 1.5-1.9C14 3.8 11.5 4 11.3 4H8.5c-.1 0-.2 0-.2.1 0 .4 1-.1 1 1v5.6c0 .8-.8.7-.8 1 0 .1 0 .1.1.1h2.6c.1 0 .2 0 .2-.1 0-.4-1.2 0-1.2-1V8.4c0-.1-.1-.3.3-.3 1.3 0 1.1 0 1.5.6l1.3 1.9c.4.6.9 1.2 1.7 1.2.1 0 .7 0 .7-.1.1-.3-.5.1-1.3-1.1zm-2.9-2.9c-.5 0-1.3.1-1.3-.2V4.7c0-.4.2-.4.7-.4 1.1 0 2.2.5 2.2 1.8 0 1.4-1.1 1.6-1.6 1.6zm6.7 3.1V4.9c0-.8.8-.6.8-.8 0-.1 0-.1-.2-.1H16.4c-.1 0-.1 0-.1.1 0 .2.9 0 .9.8v5.7c0 1.1-.9.7-.9 1 0 .1 0 .2.2.2H18.9c.2 0 .2 0 .2-.1.1-.4-.9-.1-.9-.9zm81 .3c-.3-.4-.4-.9-.6-1.3l-2.4-5.7c0-.1-.1-.4-.2-.4-.2 0-.2.2-.9 1.6l-2.8 5.6c-.3.6-.8.4-.8.7 0 .1 0 .1.1.1h1.9c.2 0 .3 0 .3-.2 0-.3-.8 0-.8-.7 0-.1 0-.3.1-.4l.7-1.5c.1-.2.3-.2.5-.2h2.5c.3 0 .4.2.5.4l.4.9c.1.3.4.8.4 1 0 .4-.7.3-.7.6 0 .1.2.1.3.1h2.3c.1 0 .2 0 .2-.1 0-.2-.7 0-1-.5zm-2.5-2.9h-2.3c-.2 0-.2 0-.2-.2l1.3-2.7c.1-.1.1-.1.2 0L96.9 8c.1.1.1.2-.2.2zm9.8 1.9c-.1 0-.5 1.1-3.2 1.1-1 0-.9-.3-.9-.9V5c0-1 .8-.7.8-.9 0-.1-.1-.2-.2-.2h-2.3c-.1 0-.2 0-.2.1 0 .2 1 .1 1 .7v5.6c0 .5 0 .8-.3 1-.4.2-.5.2-.5.3 0 .1.1.1.2.1h4c.5 0 .8 0 1.1-.4.3-.3.6-.7.6-1.1 0 .1 0-.1-.1-.1zm7.1-5.9c0-.3-.1-.3-.3-.3H106.6c-.2 0-.2.3-.2.4l-.1 1.1c0 .1 0 .1.1.1s.2-.1.2-.3c.2-.6.2-.8.9-.8h1.9c.2 0 .1.4.1.5v5.7c0 .7-.9.6-.9.8 0 .1 0 .1.1.1h2.5c.1 0 .1-.1.1-.1 0-.3-.9 0-.9-.9V5.1c0-.6-.1-.5.5-.5h1.6c1.2 0 .6.8 1 .8.2 0 .1-.1.1-.2v-1zm8.5 6.5V4.9c0-.8.8-.6.8-.8 0-.1 0-.2-.3-.2h-2c-.2 0-.2.1-.2.1 0 .3.9.1.9.8v2.3s0 .3-.1.3H117c-.2 0-.2 0-.2-.2V4.9c0-.8.8-.6.8-.8 0 0 0-.1-.2-.1H115c-.1 0-.2 0-.2.1 0 .2 1 0 1 .8v5.7c0 1.1-.9.7-.9 1 0 .1 0 .2.1.2h2.6c.1 0 .2 0 .2-.1 0-.3-1.1-.1-1.1-.9V8c0-.1 0-.2.1-.2h4.3c.1 0 .1.1.1.3v2.7c0 .7-.8.5-.8.8 0 .2.2.1.3.1H123.1c.1 0 .1-.1.1-.1-.1-.3-1.1-.1-1.1-.9zM48.2 4h-1.8c-.1 0-.2 0-.2.2 0 .3.9 0 .9.6 0 .3-.2.5-.2.6l-1.2 1.8-.2.2c-.1 0-.1-.1-.2-.2L43.7 5c-.1-.1-.2-.3-.2-.5 0-.3.5-.3.5-.5h-2.3c-.1 0-.2.1-.2.2 0 .2.6.1.9.5l1.9 3c.1.1.3.4.3.6V11c0 .8-.9.5-.9.8 0 .1.1.1.2.1h2.3c.2 0 .3 0 .3-.1 0-.3-.9 0-.9-1V8c0-.2.1-.2.3-.5l1.6-2.4c.2-.3.3-.6.6-.8.1 0 .3-.1.3-.2-.1-.1-.1-.1-.2-.1zm42.9 6.1c-.1 0-.5 1.1-3.2 1.1-1 0-.9-.3-.9-.9v-2c0-.2 0-.4.2-.4h1.7c1 0 .6 1 .9 1 .1 0 .1 0 .1-.1v-.9-1.1c0-.1 0-.2-.1-.2-.3 0 0 .9-1.2.9h-1.2c-.5 0-.4 0-.4-.4v-2c0-.7 0-.7 1.1-.7.5 0 1.7-.1 2 .3.2.3 0 .8.3.8.1 0 .2-.1.2-1.3 0-.1 0-.2-.1-.2h-4.9c-.3 0-.4 0-.4.1s.3.2.3.2c.6.1.6.6.6 1.1v5c0 .5 0 .8-.3 1-.4.2-.5.2-.5.3 0 .1.1.1.2.1h4c.5 0 .8 0 1.1-.4.3-.3.6-.7.6-1.1-.1 0-.1-.2-.1-.2zm-8.4.6V4.9c0-.8.8-.6.8-.8 0-.1 0-.2-.3-.2h-2c-.2 0-.2.1-.2.1 0 .3.9.1.9.8v2.3s0 .3-.1.3h-4.2c-.2 0-.2 0-.2-.2V4.9c0-.8.8-.6.8-.8 0 0 0-.1-.2-.1H75.6c-.1 0-.2 0-.2.1 0 .2 1 0 1 .8v5.7c0 1.1-.9.7-.9 1 0 .1 0 .2.1.2h2.6c.1 0 .2 0 .2-.1 0-.3-1.1-.1-1.1-.9V8c0-.1 0-.2.1-.2h4.3c.1 0 .1.1.1.3v2.7c0 .7-.8.5-.8.8 0 .2.2.1.3.1H83.7c.1 0 .1-.1.1-.1-.1-.3-1.1-.1-1.1-.9zm-21 4.8S61 7 53.1 4.3C52.4 5.4 52 6.6 52 8c0 4.4 4.4 7.9 9.7 7.9 5.4 0 9.7-3.5 9.7-7.9 0-1.3-.4-2.6-1.1-3.7-7.9 2.7-8.6 11.2-8.6 11.2zm-4.5-4.6c-.8.9-2 1.2-2.7.7-.6-.6-.5-1.8.3-2.7.8-.9 2-1.2 2.7-.7.6.6.5 1.7-.3 2.7zm11.6.7c-.7.5-1.9.2-2.7-.7-.8-.9-.9-2.1-.3-2.6.7-.6 1.9-.3 2.7.7.9.9 1 2.1.3 2.6zm-7.1.3c.3-8.1 7.4-8.2 8.3-8.2C68.2 1.5 65.2 0 61.7 0c-3.5 0-6.5 1.5-8.2 3.7.9 0 7.8.1 8.2 8.2zm0-10.3c.9 0 1.6 1 1.6 2.2 0 1.2-.7 2.2-1.6 2.2-.9 0-1.6-1-1.6-2.2 0-1.3.7-2.2 1.6-2.2z"/></g></svg>