<svg version="1.1" id="Layer_1" xmlns="http://www.w3.org/2000/svg" x="0" y="0" viewBox="0 0 117 36.2" xml:space="preserve"><g class="nc-icon-wrapper" fill="#b5afa3"><path d="M47.7 16.8l1.5-8.4 1.5 8.4h2.1l2-10.2h-1.6l-1.4 7.9-1.5-7.9h-2.2l-1.5 7.9-1.4-7.9h-1.7l2 10.2h2.2zm10.2.1c1.5 0 3.2-.7 3.2-3.9 0-3.1-1.7-3.9-3.2-3.9-1.5 0-3.2.8-3.2 3.9 0 3.2 1.7 3.9 3.2 3.9zm0-6.5c1.1 0 1.4 1.3 1.4 2.6s-.3 2.6-1.4 2.6c-1.1 0-1.4-1.3-1.4-2.6 0-1.2.2-2.6 1.4-2.6zm7.4.4c.2 0 .3 0 .5.1V9.2h-.3c-1.1 0-1.6.9-1.8 1.5 0-.5 0-.9-.1-1.4H62c0 .3.1.8.1 1.2v6.3h1.7v-4.1c0-1.4.8-1.9 1.5-1.9zm3.3-5h-1.7v11h1.7v-11zm5.6 9.8c0 .5.1 1 .1 1.2h1.6c0-.3-.1-.7-.1-1.3V5.8h-1.7v4.5c-.3-.6-.8-1.2-1.9-1.2-1.6 0-2.5 1.4-2.5 3.9 0 2.1.7 3.9 2.5 3.9 1.2 0 1.7-.6 2-1.3zM71.5 13c0-1.5.3-2.5 1.3-2.5s1.3 1.1 1.3 2.5-.3 2.6-1.4 2.6c-.9 0-1.2-.9-1.2-2.6zm14.8-2.3h-2.9V6.6h-1.8v10.2h1.8v-4.5h2.9v4.5h1.8V6.6h-1.8v4.1zm6.4 4.9c-1.3 0-1.8-.8-1.8-2.1h4.2v-.4c0-3.1-1.3-4-2.9-4-1.8 0-3 1.7-3 4 0 2 1 3.8 3.3 3.8 1 0 1.8-.3 2.2-.5l-.1-1.4c-.3.3-.8.6-1.9.6zm-.5-5.2c.8 0 1.2.7 1.2 2h-2.5c0-1 .4-2 1.3-2zm9.5 5.1v-3.3c0-1.9-.5-3-2.8-3-1.1 0-1.8.3-2.3.6l.1 1.5c.3-.3 1.1-.7 2-.7 1 0 1.3.7 1.3 1.4v.3h-.3c-2.2 0-3.8.5-3.8 2.6 0 1.4 1 2.2 2.2 2.2 1 0 1.6-.5 2-1.1 0 .4 0 .7.1 1h1.6c-.1-.5-.1-1-.1-1.5zm-1.7-2c0 1.3-.4 2.2-1.4 2.2-.7 0-1.1-.5-1.1-1.2 0-1.1.9-1.4 2.4-1.4h.2v.4zm5.1-7.7h-1.7v11h1.7v-11zm3.9 1.4l-1.7.6v1.6h-1.1v1.3h1.1v4.1c0 1.6.7 2.2 2 2.2.5 0 .9-.1 1.2-.2v-1.3c-.1.1-.3.2-.7.2-.5 0-.8-.2-.8-1v-3.9h1.4V9.3H109V7.2zm4.1 5.2c0-1 .3-1.8 1.2-1.8.7 0 1 .5 1 1.6v4.5h1.7v-4.9c0-1.5-.5-2.8-2.1-2.8-1.1 0-1.5.6-1.8 1.1V5.8h-1.7v11h1.7v-4.4zm-65.7 7.1c-2 0-3.9 1.6-3.9 5.3 0 3.7 1.9 5.3 3.9 5.3s3.9-1.6 3.9-5.3c0-3.7-1.8-5.3-3.9-5.3zm0 9.1c-1.1 0-2-1-2-3.8s.9-3.8 2-3.8 2 1 2 3.8c.1 2.8-.8 3.8-2 3.8zm6.7-4.9c0-.5-.1-.9-.1-1.4h-1.6c0 .3.1.8.1 1.2v6.3h1.7v-4.1c0-1.4.8-1.9 1.5-1.9.2 0 .3 0 .5.1v-1.7h-.3c-1.1 0-1.6.9-1.8 1.5zm7.3-.2c-.4-.7-.9-1.3-2-1.3-1.9 0-2.6 1.8-2.6 3.9 0 3 1.5 3.8 2.5 3.8 1.1 0 1.6-.7 1.9-1.3v.7c0 1.2-.3 2.4-1.9 2.4-.9 0-1.7-.4-2.1-.6l-.1 1.6c.4.2 1.3.5 2.5.5 2.6 0 3.3-1.7 3.3-4v-5.6c0-.4 0-.8.1-1.2h-1.6c.1.3 0 .7 0 1.1zM60 28.6c-.6 0-1.1-.7-1.1-2.5 0-1.5.3-2.4 1.3-2.4.8 0 1.4.8 1.4 2.4-.1 1.6-.5 2.5-1.6 2.5zm9.9-3.3c0-1.9-.5-3-2.8-3-1.1 0-1.8.3-2.3.6l.1 1.5c.3-.3 1.1-.7 2-.7 1 0 1.3.7 1.3 1.4v.3h-.4c-2.2 0-3.8.5-3.8 2.6 0 1.4 1 2.2 2.2 2.2 1 0 1.6-.5 2-1.1 0 .4 0 .7.1 1H70c0-.3-.1-.8-.1-1.3v-3.5zm-1.6 1.3c0 1.3-.4 2.2-1.4 2.2-.7 0-1.1-.5-1.1-1.2 0-1.1.9-1.4 2.4-1.4h.2v.4zm6.9-4.4c-1.2 0-1.7.8-1.9 1.3 0-.4 0-.8-.1-1.2h-1.6c0 .3.1.8.1 1.2v6.3h1.7v-4.4c0-1 .3-1.8 1.2-1.8.7 0 1 .5 1 1.6v4.5h1.7V25c0-1.5-.4-2.8-2.1-2.8zm3.7-1.3h1.8v-1.8h-1.8v1.8zm0 9h1.7v-7.5h-1.7v7.5zm8.2-6v-1.6h-4.7v1.4h3l-3.1 4.6v1.6h4.9v-1.4h-3.1l3-4.6zm6.8 1.4c0-1.9-.5-3-2.8-3-1.1 0-1.8.3-2.3.6l.1 1.5c.3-.3 1.1-.7 2-.7 1 0 1.3.7 1.3 1.4v.3h-.3c-2.2 0-3.8.5-3.8 2.6 0 1.4 1 2.2 2.2 2.2 1 0 1.6-.5 2-1.1 0 .4 0 .7.1 1H94c0-.3-.1-.8-.1-1.3v-3.5zm-1.7 1.3c0 1.3-.4 2.2-1.4 2.2-.7 0-1.1-.5-1.1-1.2 0-1.1.9-1.4 2.4-1.4h.2v.4zm5.4-6.4l-1.7.6v1.6h-1.1v1.3h1.1v4.1c0 1.6.7 2.2 2 2.2.5 0 .9-.1 1.2-.2v-1.3c-.1.1-.3.2-.7.2-.5 0-.8-.2-.8-1v-3.9H99v-1.3h-1.4v-2.3zm4.4-1.1h-1.8v1.8h1.8v-1.8zm-1.6 10.8h1.7v-7.5h-1.7v7.5zm6.3-7.7c-1.5 0-3.2.8-3.2 3.9 0 3.2 1.7 3.9 3.2 3.9 1.5 0 3.2-.7 3.2-3.9-.1-3.1-1.8-3.9-3.2-3.9zm0 6.5c-1.1 0-1.4-1.3-1.4-2.6s.3-2.6 1.4-2.6c1.1 0 1.4 1.3 1.4 2.6-.1 1.3-.3 2.6-1.4 2.6zm8.2-6.5c-1.2 0-1.7.8-1.9 1.3 0-.4 0-.8-.1-1.2h-1.6c0 .3.1.8.1 1.2v6.3h1.7v-4.4c0-1 .3-1.8 1.2-1.8.7 0 1 .5 1 1.6v4.5h1.7V25c0-1.5-.5-2.8-2.1-2.8zm-87-8.4l.1.2v.1l.1.3h.1V14H28v-.4l-.2-.5v.4l.1.3zm-7.2 0v.4l.3-.1.1-.4h-.3l-.1.1zm1.5-.2h.2v-.1h-.2l-.1-.1h-.2l.1.1v.2l.2-.1zm4.9-1.6l.2.3.1.1-.2-.4h-.1zm-6.6 13.1zm1.4-11.3h-.1l-.2.4h.2V14l.1-.2.2-.1-.1-.1-.1.2zm5.8-.9l-.1-.3h-.1l.1.2.1.1zm-4.8-3.7c-.7-.3-1.4-.5-2.1-.6v.2c.7.1 1.4.3 2 .5l.1-.1zm-5.4 8.6c-.1 0-.1 0-.2-.1v.2l.2-.1zm.6-2.6c.1.1.1.2.2.2l.3-.1v-1.2h-.1V14l.1-.1v-.1h-.1l-.1.2-.1.2v.1c-.2.1-.3.2-.5.3l.3.6zm.3-.7zm2.2 5h.1v.2c.4-.2.5-.3.5-.4 0-.2-.3-.3-.6-.5v.3l.1.1h-.1v.3zm.3-.3s-.1 0 0 0zm-7.8-8.6v-.2l-.1-.1h-.2l.3.3zm13.9 1l.1.1h.1l.1.1v-.1l-.3-.1-.2-.2.2.2zM8.4 23.4l.1.1.1.2h.1l-.1-.2-.2-.1.1-.1-.1-.2h-.1l.1.3zM27.1 18l-.4.1.1.1h.3V18zM25.9 6.7l.1.1.3.1.1.2h.1v-.2l-.1-.1v-.1l-.2-.1-.1.1-.1-.1.1-.1-.2.2zm-19 4.8c-.7 1.7-1.1 3.5-1.1 5.3 0 1.9.4 3.7 1.1 5.3.7 1.6 1.7 3.1 2.9 4.4 1.3 1.3 2.7 2.3 4.4 2.9 1.7.7 3.5 1.1 5.4 1.1s3.7-.4 5.4-1.1c1.6-.7 3.1-1.7 4.4-2.9 1.3-1.3 2.3-2.7 2.9-4.4.7-1.7 1.1-3.5 1.1-5.3 0-1.9-.4-3.7-1.1-5.3-.7-1.6-1.7-3.1-2.9-4.4-1.3-1.3-2.7-2.3-4.4-2.9-1.3-.5-2.7-.9-4.1-1v.2c1.4.1 2.7.5 4 1 1.6.7 3 1.6 4.3 2.9l-1.6 1.6v-.1h-.1l-.2-.1-.2-.1.3-.1-.1-.1h-.2l.1-.1-.2-.4-.4-.5-.4-.3L26 7h-.2l-.4-.2-.2.1c.3.5.4 1 .5 1.4v1l.1-.1.4.8H26l.2.2-.5.5-.2-.3v-.2c-.1.2-.1.3-.2.5v.1h.3v.1l-.2.1c-.1-.1-.2-.2-.3-.2 0 .1-.1.1-.1.2.1.1.2.1.2.2L23.4 13c-.1-.1-.3-.3-.5-.4-.1 0-.1.1-.2.1.2.1.4.3.5.5l-.2.2v-.2h-.2V13l-.2.1-.2.2.1.1.2-.1.2.1h.1l-.5.5-.5.1-.2.2-.1.1v.1h.1l.1.1v.1h-.1l-.3.1c-.1 0-.1-.1-.2-.1h-.1c-.1-.1-.2-.1-.4-.2v1.4h.1l.1.1-.2.2v.3l.3-.3-.2-.1h.1l.1.3.2.2-.4-.2v.1c.5.2 1.2.5 1.7.9.8.6 1.3 1.5 1.2 2.3-.1.6-.4 1.1-1 1.5v.1l-.1.1h-.2l-.1.1-.4.2h-.4l-.1.2.1.1H20.7c-.1 0-.1 0-.2.1v1.4c.9.5 2 1.2 2 3.2 0 0 0 .4-.1.6l.4.1c-.8.2-1.6.4-2.4.4v.2c.9-.1 1.7-.2 2.5-.5l.2.1.2.2.2-.1.3-.1.1-.1.4-.2.4-.3.4-.4v-.1c.8-.5 1.5-1 2.1-1.6l1.8 1.8c-1.2 1.2-2.6 2.1-4.2 2.8-1.7.7-3.4 1.1-5.3 1.1-1.8 0-3.6-.4-5.3-1.1-1.6-.7-3-1.6-4.2-2.8l1.8-1.8c1 1 2.1 1.7 3.4 2.3 1.1.5 2.3.8 3.6.8v-.2c-2.6-.2-5-1.2-6.8-3l.4-.4.3.3.7-.1.3-.3h.7l.2-.1v-.2l-.2-.2-.2-.5-.2-.1-.1-.3.1-.1c1.4 1.3 3.1 2.1 5 2.3v-.2c-1.8-.2-3.5-1-4.8-2.2l1.8-1.8c.5.4 1 .8 1.6 1.1 0-.1 0-.1.1-.2-.6-.3-1.1-.6-1.5-1l1.8-1.8c.3.3.6.5 1 .6v-.2c-.3-.1-.6-.3-.8-.5l.1-.1h.1l.1-.1h.2l.1-.1h.2v-.3l-.9-.2h-.2l-.2.2-.1.3c-.2-.2-.3-.4-.4-.7l.1-.2h-.1v.2c0-.1-.1-.1-.1-.2v-.1c-.2-.1-.3-.2-.5-.2l-.1.1-.1-.1-.2.1-.1-.1.1-.1h.2c-.6-.4-.9-1-1.1-1.7-.1-.4-.1-.8-.1-1.2l-.2.1h-.2l.6-.9.3-.6-1.8-1.8c1.2-1.2 2.8-2 4.5-2.3v-.2c-1.8.2-3.4 1-4.7 2.3l-.4-.4c0 .1-.1.1-.1.2l.4.4c-1.5 1.5-2.3 3.6-2.3 5.7H8.8c0-2.8 1.1-5.5 3.1-7.5l.7.7H12.9l-.9-.8c.6-.6 1.2-1 1.8-1.4 0-.1.1-.2.1-.3-.8.5-1.5 1-2.1 1.6L10 7.3c1.2-1.2 2.7-2.2 4.3-2.9 1.3-.5 2.6-.9 4-1v-.2c-1.4.1-2.7.5-4 1-1.6.7-3.1 1.7-4.4 2.9-1.3 1.3-2.3 2.8-3 4.4zm22.4-4.1c1.2 1.2 2.1 2.6 2.8 4.2.7 1.7 1.1 3.4 1.1 5.2h-2.5c0-1.5-.3-2.9-.9-4.3-.1-.1-.1-.3-.2-.4l.1-.1.1.1.1-.2-.9-1.3-.2-.1-1.2-1.4 1.7-1.7zm-3.7 3.7l.2.2.1-.4h-.2l.6-.6.4.4h.4l.1.2v.3l.7.4h.2l.5.5.1.3.3.3h.4l.2-.4c.6 1.4 1 2.9 1 4.4H28c0-.5 0-1-.1-1.4l.1-.2.1-.6H28v-.1h-.3l-.1-.1-.1.1.2.1h-.1v.1c-.1-.2-.1-.5-.2-.7l.1-.2v-.3h-.1l-.1-.3.1-.1-.1-.2h-.2l-.1.3c-.1-.1-.1-.2-.2-.3h.2v-.2l.2-.1v-.1h-.1l-.2.1-.1-.1.1-.2-.1-.1-.1.2-.2-.1c-.1-.2-.3-.4-.4-.6v-.1c-.1 0-.3-.2-.5-.4zm.6 5l.4-.2h.4l.1-.2.1-.1.2-.3v-.2.2l-.1.2v.1l-.1.2v.4h.1l.2-.3v-.2h.1c.1.4.1.8.1 1.2h-1.9v-.2l.2-.1.1-.2h.3v-.1l-.2-.2zm.5-3.5zm-1.3-1.4c.2.2.4.4.5.6l-.1.1h-.1l.2.1.1-.1c.1.1.2.2.2.3h-.1v.1h.1l.3.4h.1c0 .1.1.1.1.2v.2l-.2.2-.1-.1h-.2l.1.2-.1.1.3.1.1.2.2.1v.1l.2.1v.3h.1c.1.2.1.4.2.6l-.2.1-.1.4-.3.2-.1-.2.1-.5.2-.1-.5-.4-.3.1-.2.5-.3-.1-.1-.2.1-.1.1.1h.1v-.2l-.2-.1v.1h-.1l-.1-.2-.3-.3-.3-.2h-.3c-.2-.3-.4-.6-.7-.9l1.6-1.8zm-2 2.1l.1-.1.2.2-.2.1h-.1v-.2zm0 1.2l.2-.1-.2-.2.1-.2v-.1l.2-.1-.2-.3-.3.2v.2l-.2.1h-.2l-.1-.1.4-.4h.4l.1-.1c.2.2.3.4.5.6l-.1.4-.3-.2h-.1l.1.2.1.1-.1.2v-.1l-.3-.1zm1.6 7.2l-.4.3h-.1v-.1h-.2l-.3.2-.3-.1h-.1l-.2-.2h-.1l-.1-.1H23l-.1-.1h-.1.1v-.1l.3.1.1.1.3.1v.1h.3l.3.1.1.2h.2l.2-.2.1-.3.2-.5v-.1l.1-.1.1-.3-.2-.3.1-.1-.1-.1v-.3l-.2.1-.1.2h-.2v.2l-.2.2-.1-.1-.1.1h-.3l.2-.2h.2l.1-.2v-.1h.1l.3-.4.2-.5.6-.3v-.2l-.1-.1v-.1l.2.1.4.1.3-.1.5-.1-.1-.4-.2-.1h-.3l-.3-.8h-.1l-.1-.1.1-.1h1.9c0 2.1-.9 4-2.3 5.5l-.1-.1v-.1l.1-.3-.1-.5-.1-.3-.1.1-.1.4zm.3 4.4l.1-.2-.1-.2.3-.3v-.2l-.2-.1.2-.5.3-.5-.3-.4H25.3l-.1-.3h-.1l.1-.3v-.2l.2-.2 1.1 1.1.7.7c-.6.7-1.2 1.2-1.9 1.6zm1.8-1.8l.1-.2-.1-.6v-.2l-.1-.2-.1-.1h.1l-.1-.1h-.2v.1l-.1.1.1.2-.1.3-.1.1v.1l-1-1c1.5-1.5 2.4-3.5 2.4-5.7h2.6c0 2.8-1.2 5.5-3.1 7.5l-.3-.3zm.4.3c1-1 1.8-2.2 2.3-3.5.6-1.3.8-2.7.9-4.1h2.5c0 1.8-.4 3.5-1.1 5.1-.7 1.6-1.6 3-2.9 4.3l-1.7-1.8zm-15.6-.1c-.2-.2-.4-.4-.5-.6l.2.1.2-.1.5.3h.1l-.5.3zm.3-6.1l-.3.1-.1-.1-.1-.1-.1-.1c-.1-.4-.1-.8-.1-1.2h1.1v.1l-.2.3h-.1l-.2.6.2.3-.1.1zM13 22h.1l.1.1-.2-.1zm.7.7l-.1-.2c0 .1.1.1.1.2zm.2-.2l-.5-.5.1-.3v-.3l-.3-.4v-.5l-.1-.3.1-.1-.3-.5v-.2l-.2-.3h-.2.2l.1-.1-.2-.4-.3-.1.1-.2-.1-.4.1-.3h.3l.1-.2V17H13.1l.2.1V17h.7v.5h-.2l-.2.2h.2l.2-.1c.2 1.2.7 2.2 1.5 3.1l-1.6 1.8zm-.8-5.9l.1-.5.4-.2.4.1.1.2v.6h-.7v-.1l-.3-.1zM15 18l.3.1.2.2.1-.1.3.2.1.1-.2-.1v.1l.2.1.2.2v-.2l.1-.1.1-.1-.4-.2.2.1.1.2.1.2h.2l-.4.1.2.3h.1V18.8h.2l.1-.2.1-.3h.1l.1-.1c.1.3.3.5.5.7l-1.8 1.8c-.8-.8-1.3-1.8-1.5-3h.1l.3.3h.3zm-.3-3.3v-.1.1zm-.9-3.4l1.8 1.8c-.4.4-.8.9-1 1.5h-.1l.1-.1-.2.2-.2.1v-.1l-.3.1v.1l.2-.1h.3l.2-.1v.1l-.4.2-.1-.1-.4.3-.3-.1-.2.2-.3.7.1.2-.3.3v.3h-1.1c-.1-2.1.7-4 2.2-5.5zM11.3 17c0 .4 0 .8.1 1.2l-.1-.1v.2h-.1l-.1-.1-.2.1v.2l-.4.5h-.1l-.1 1.1-.3.2h-.1l-.2.1h-.4c-.3-1-.5-2.1-.6-3.3h2.6zm-2.2 3.3l-.2.1-.5-.3-.1.1-.1-.1-.1.1.1.2h-.3l-.2-.1V20h-.1v.2h-.1l-.2.1.1.1h-.2l-.1.1h.1v.2l.1.1.1.1h-.2l.1.2h.1v.1l.1.1v.1l-.2-.2.1.3-.2-.4v.2l.2.4.1.3.4.8v-.2l-.3-.7v-.3l.2-.2.4.6-.1-.4.1.1.2.3h.2l.1.2h.1V22l.1-.1.1.3.2.3h.2l.4.7.2.1.1-.3.1.1.4.5.5.1c.3.3.5.6.8.9L10 26.4c-1.2-1.2-2.2-2.7-2.9-4.3-.7-1.6-1-3.3-1.1-5.1h2.5c.1 1.1.3 2.2.6 3.3zm2.6-11.1c-1 1-1.7 2.1-2.3 3.4-.6 1.4-.9 2.8-.9 4.3H6.1c0-1.8.4-3.6 1.1-5.2.7-1.6 1.6-3 2.8-4.2l1.7 1.7zm13.8.9s0 .1 0 0l.1.2h.1l-.2-.2zm-12 8.5l-.2-.1v.2l.1.1v.1l.1.1.1.2h.1V19l-.1-.1-.1-.3zm-.1-1.2l.1.3-.1.1v.4l-.1.1.1.4v-.3l.1-.5-.1-.3v-.2zm12.3-4.6l.2.1h.2-.1V12.6l-.1-.1h-.2l-.2.1.2.1v.1zm-.2-.1v-.2.2l-.1.1.1-.1zm-.1.8l.1-.1.1-.2h-.1l-.1.1V13l.1.2-.1.1h-.1l-.1.1v.2l.2-.1zm-.5.3l.1-.1h-.3l-.1.1.1.1.2-.1zm-3.2 12.8s0-.1 0 0zm5.4 5.9c-1.4-.3-2.9-.5-4-.5-1.3 0-2.5.3-3.5.7-1-.4-2.2-.7-3.5-.7-1.1 0-2.5.1-4 .5-2.2.5-4.1.9-5.7 0 1.5 1.4 3.3 2 6 1.8 2.2-.2 4-1.2 6.1-1.1h.1c-2.2 1.2-3.5 2.8-3.5 2.8l1 .1s1-2.2 3.4-2.8c2.4.6 3.4 2.8 3.4 2.8l1-.1s-1.2-1.7-3.5-2.8h.1c2.1-.1 3.9 1 6.1 1.1 2.7.2 4.5-.4 6-1.8-1.4.9-3.3.6-5.5 0zm2.1-1.8c.7-.8 1-1.2 1.4-2.2.4-1.1.3-2 .8-2.9-.3.4-.6.8-1.1 1.2-.5.5-1.1 1.1-1.7 2.4-.6 1.3-.6 1.8-1.2 2.7 1.3-.5 2.3.5 5.6-.8 1.5-.6 2.6-2 3.1-3.3-1.2 1.1-2.1 1.6-3.5 1.8-1.3.3-2.2.4-3.4 1.1zm6.5-5.1c-1.1.7-2.2 1-3 2 .5-.5.6-.8.7-1.4.3-1.7-.2-2.6 0-4.3-.3.7-1.2 2.2-1.4 3.3-.3 1.8-.2 3.3-1.2 4.4 1.2-1 2.4-1 4.1-1.7 2-1 3-2.6 3.5-5.1-.3 1-1.5 2.1-2.7 2.8zm-.5-1.8c.9-3.1-.7-4.3-.9-6.2-.1.7-.3 1.8-.4 2.2-.1 2.8 1 3.4.2 6 .7-1 1.6-1.4 2.7-2.3 1.4-1.2 2.5-3.1 2.4-5.6-.3.7-1.1 2-2 3-.9 1-1.6 2.1-2 2.9zm2.4-7.5c-.6 1.2-1.1 2.9-1.2 3.5.2-3.1-2-4.7-2.3-5.7.2 1 .1 1.6.4 2.5.3 1.2 1.5 3 1.5 4.9.4-.9 1.1-1.8 1.5-2.3.5-.7 1.2-1.5 1.4-2.4.2-.9.3-2-.3-3.9 0 1.5-.5 2.5-1 3.4zm-1.1-1.1c-.4-1.8-1.3-2.8-2.4-3.8-.8-.7-1.1-.9-1.4-1.3.5 1 .7 1.6 1.1 2.4.6 1.1 2.3 2.3 2.9 4.4.2-1.1.8-1.8 1.2-3.3.5-1.6-.4-3.9-1.4-5.1.5 1.4.6 2.7.4 3.8-.2 1.2-.4 1.8-.4 2.9zm-1.2-4.8c-.5-1-1.6-1.6-2.4-2.1-.9-.6-1.4-.8-2.3-1.6.4.6.7 1.3 1.3 2 .6.7 1.9 1.5 2.4 1.9.5.4 1.2 1.1 1.9 2.4-.1-1 .2-2.3-.1-4.1-.3-1.8-1.1-2.6-2.3-3.6.4.5.9 1.2 1 2.5.1.8.2 1.8.5 2.6zm-3.9-4.3c1.2 1.2 2.1 1.3 3.1 2.6-.5-1.6-1.1-2.6-2.2-3.5-1.5-1.2-3-1.8-3.6-2.1 1.2.8 1.1 1.5 2.7 3zM11.8 31.9c-.6-.9-.6-1.4-1.2-2.7-.6-1.3-1.2-1.9-1.7-2.4s-.7-.8-1.1-1.2c.5.8.4 1.8.8 2.9.4 1 .7 1.5 1.4 2.2-1.2-.7-2-.8-3.4-1-1.4-.2-2.4-.7-3.5-1.8.5 1.3 1.6 2.7 3.1 3.3 3.3 1.2 4.3.2 5.6.7zm-3.4-2.3c-.9-1.2-.8-2.7-1.2-4.4-.2-1.2-1.1-2.7-1.4-3.4.3 1.7-.3 2.7 0 4.3.2.7.3.9.7 1.5-.8-1-1.9-1.3-3-2-1.2-.8-2.4-1.8-2.8-2.9.5 2.5 1.6 4.1 3.5 5.1 1.7.8 2.9.8 4.2 1.8zm-6-6.1c1.1 1 2 1.3 2.7 2.3-.8-2.6.3-3.2.2-6 0-.5-.3-1.5-.4-2.2-.2 1.9-1.8 3-.9 6.2-.3-.8-1.1-1.9-2-2.9-.9-1-1.7-2.3-2-3-.1 2.5 1 4.4 2.4 5.6zm-.6-4.2c.4.5 1.1 1.4 1.5 2.3 0-1.9 1.2-3.7 1.5-4.9.2-.9.1-1.5.4-2.5-.4.9-2.6 2.5-2.3 5.7-.1-.6-.6-2.3-1.2-3.5-.5-1-1-1.9-.9-3.3C.2 15 .3 16 .5 17c.2.8.8 1.5 1.3 2.3zm.8-2.4c.7-2.1 2-3.1 2.7-4.1.5-.8.8-1.7 1.3-2.7-.3.4-.6.7-1.4 1.3-1.1 1-2 2-2.4 3.8 0-1.1-.2-1.8-.4-3-.2-1.1-.2-2.4.4-3.8-1 1.2-1.8 3.6-1.4 5.1.3 1.6 1 2.4 1.2 3.4zm.5-3.9c.7-1.3 1.4-2 1.9-2.4.5-.4 1.7-1.2 2.4-1.9.6-.7.9-1.4 1.3-2-1 .8-1.4 1-2.4 1.6-.8.5-2 1.1-2.4 2.1.3-.8.4-1.8.5-2.6.1-1.3.6-2 1-2.5-1.2 1-2 1.8-2.3 3.6-.3 1.8.1 3.1 0 4.1zm4.8-6.9C9.5 4.6 9.4 3.9 10.6 3c-.6.4-2.2.9-3.6 2.2-1.2.9-1.7 1.9-2.3 3.5 1-1.3 1.9-1.4 3.2-2.6zm14.3 11.6c-.5-.4-1.1-.7-1.6-.9v1.6c.6.3 1 .5 1 .9s-.4.7-1 .9h-.1c-.2.1-.3.1-.5.2-.1 0-.3.1-.5.2s-.4.2-.5.2c-1.1.5-1.2 1.2-1.1 1.9.1.5.5.9 1 1.2v-1.1c0-.3.2-.5.4-.7.2-.2.5-.3.9-.4.5-.2 1-.3 1.8-.6 1.6-.7 1.6-2.4.2-3.4zM15 6.7c-.1.1-.4.5-.7.9-.2.3-.2.8-.4 1.1-.2.4-.2.6-.2.6 0 .1-.1.2-.2.4-.2.3-.6.4-.9.4.3.2.8-.1.8-.1s-.1.3-.2.7c.3-.7.6-1.1.8-1.2.2 0 .5 0 1.1-.3.7-.4 1.7-1.1 2-1.5.3-.5.8-.8 1.3-1V5.2c-.9.2-1.3.5-1.5.6-.5.1-1.2.1-1.9.9zm.8.7l-.5.6H15v-.3l.5-.5h.4l-.1.2zm4.7 16.4v.9c.7.3 1.3.8 1.6 1.8.1-1.6-.8-2.3-1.6-2.7zm2.9-15.2c0 .8-.7 1.8-2.2 2.3-.1 0-.3.1-.5.1l-.3.1c-.2.1-.6.1-.8.2-.2 0-.5.1-.7.1l-.5.1-.9.3c-1.6.8-2.3 2.1-1.9 3.7.2.9.7 1.6 2.1 2l.9.3v-1.7c-.4-.2-.6-.3-.8-.6-.5-.7-.4-1.7.8-2.1h.2c.6-.2 1.2-.3 1.8-.5h.1c.9-.2 1.7-.4 2.4-.8 1.3-.7 2.4-1.7 2.3-3.6-.1-1.4-1.4-3.3-4.6-3.5v1.5c.2 0 .4.1.5.1 1.5.3 2.1 1.2 2.1 2zm-4.2 14.3c0 .2.1 5.5.2 6.1.1 1.3.5 1.4.6.1 0-.4.2-6.7.2-6.9-.6.1-1 .3-1 .7zM18.9 11c.4-.1 1-.2 1.4-.3 0-.5.2-6.9.2-7.2.1-.9 1-3.5-.9-3.5-1.8 0-1 2.7-.9 3.5.1.4.2 6.9.2 7.5zm1.3 9c0-.1.1-6.4.1-6.7-.2 0-1 .2-1.3.3 0 .1.1 6.7.1 6.7s.2-.1.5-.2c.3 0 .4-.1.6-.1z"/></g></svg>