<svg version="1.1" id="Layer_1" xmlns="http://www.w3.org/2000/svg" x="0" y="0" viewBox="0 0 126.9 15.8" xml:space="preserve"><g class="nc-icon-wrapper" fill="#b5afa3"><path d="M49.8 14.8c-.5 0-.5-.5-.5-1.2v-3.2c0-1.4-.8-2.1-2.3-2.1-.3 0-.6 0-1 .2-.7.4-1.2.7-1.8.9-.5.3-.9.7-.9 1.3 0 .3.2.4.3.4.3 0 1.2-.2 1.2-.6 0-.9.2-1.2 1.2-1.2.8 0 1.3.4 1.3 1.3v.9l-2.1.7c-1.1.4-2.2.8-2.2 2 0 1 .8 1.6 1.8 1.6 1.1 0 1.8-.6 2.6-1.2.1.7.5 1.2 1.3 1.2s1.2-.4 1.8-1l-.3-.3c-.1.2-.3.3-.4.3zm-2.5-.9c-.2.3-.7.8-1.4.8s-1-.3-1-1c0-1.1 1.5-1.4 2.4-1.7v1.9zm76.1-4.1c0-.6.6-1 1.1-1 1.1 0 1.5.7 1.5 1.6l.5-.1c-.1-.6 0-1.1.1-1.7-.7-.2-1.2-.4-2-.4-1.5 0-2.7.9-2.7 2.3 0 2.5 3.4 2.2 3.4 3.8 0 .7-.6 1-1.2 1-1 0-1.6-.8-1.7-1.7l-.4.1.1 1.7c.6.2 1.2.4 2 .4 1.4 0 2.9-.6 2.9-2.3-.1-2.4-3.6-2-3.6-3.7zm-64.5 4.8c-.5 0-.9-.2-.9-.9V9.4h2v-.9h-2V6.8l-.2-.1C57 7.6 56 8.5 55.1 9v.4h1v4.9c0 .9.4 1.6 1.7 1.6 1 0 1.7-.5 2.3-1.3l-.2-.3c-.4.2-.6.3-1 .3zm-5.2.1V3.6l-.2-.2c-.9.4-2 .8-2.7.9v.4c.2.1.4.2.5.3.4.2.4.3.4.6v9.1c0 .5-.4.5-1 .5v.5c.6-.1 1.3-.1 2-.1s1.3 0 1.9.1v-.5h-.2c-.3 0-.7-.1-.7-.5zm60.5-1.1c-.5.6-1.2.9-2 .9-1.8 0-2.6-1.6-2.6-3.2h4.5l.2-.2c.1-1.5-.9-2.8-2.7-2.8-2.3 0-3.7 2-3.7 4 0 1.9 1.1 3.7 3.3 3.7 1.4 0 2.6-.9 3.2-2l-.2-.4zm-2.8-4.8c.8 0 1.2.7 1.2 1.3 0 .6-.2.6-1 .6h-2c.2-1 .7-1.9 1.8-1.9zm-77.2 5.4V5.9c0-.9.7-.9 1.3-.9h.3v-.5c-.7 0-1.7.1-2.6.1-.9 0-2-.1-2.7-.1V5h.3c.7 0 1.4.1 1.4.9v3.5H26V5.9c0-.9.7-.9 1.3-.9h.3v-.5c-.7 0-1.8.1-2.7.1-.9 0-1.8-.1-2.6-.1V5h.2c.7 0 1.2.1 1.2.9v8.4c0 .8-.6.9-1.2.9h-.2v.5c.7 0 1.7-.1 2.6-.1.9 0 2 .1 2.7.1v-.5h-.3c-.6 0-1.3-.1-1.3-.9v-4h6.1v4c0 .9-.7.9-1.4.9h-.3v.5c.7 0 1.8-.1 2.7-.1.9 0 1.8.1 2.6.1v-.5h-.3c-.5 0-1.2-.1-1.2-1zm5.8.3c-1.8 0-2.6-1.6-2.6-3.2h4.5l.2-.2c.1-1.5-.9-2.8-2.7-2.8-2.3 0-3.7 2-3.7 4 0 1.9 1.1 3.7 3.3 3.7 1.4 0 2.6-.9 3.3-2l-.3-.4c-.5.5-1.2.9-2 .9zm-.8-5.7c.8 0 1.2.7 1.2 1.3 0 .6-.2.6-1 .6h-2c.2-1 .7-1.9 1.8-1.9zm52.2-.6c-.9 0-1.6.7-2 1.2V8.3l-.2-.1c-.9.4-1.8.8-2.8.9v.4c.2 0 .4.1.5.1.4.1.5.2.5.7v4.3c0 .4-.4.5-.9.5h-.2v.5c.7 0 1.4-.1 2.1-.1.8 0 1.6.1 2.4.1v-.5h-.2c-.8 0-1.2 0-1.2-.4v-4.2c0-.8.5-1.1.9-1.1.5 0 .5.6 1.1.6.5 0 1-.4 1-1 .1-.5-.4-.8-1-.8zm-23.2 6.5v-4.4c0-1.5-.9-2.1-2.1-2.1-1 0-1.9.7-2.7 1.2V3.6l-.2-.2c-.8.4-2 .8-2.7.9v.4l.7.3c.4.2.4.3.4.6v9.1c0 .5-.5.5-1 .5v.5c.7-.1 1.4-.1 2.1-.1.6 0 1.3 0 1.9.1v-.5h-.3c-.4 0-.8 0-.8-.4V9.9c.4-.2 1-.5 1.6-.5.8 0 1.2.4 1.2 1.3v4c0 .5-.5.5-.8.5h-.2v.5c.7-.1 1.4-.1 2-.1.7 0 1.2 0 1.9.1v-.5H69c-.4 0-.8 0-.8-.5zm17.1.1c-.4 0-.5-.5-.5-1.2v-3.2c0-1.4-.8-2.1-2.3-2.1-.3 0-.7 0-1 .2-.6.4-1.3.7-1.8.9-.5.3-.9.7-.9 1.3 0 .3.1.4.3.4.2 0 1.1-.2 1.2-.6.1-.9.3-1.1 1.3-1.1.7 0 1.3.4 1.3 1.3v.9l-2.1.7c-1.2.4-2.3.8-2.3 2.1 0 1 .8 1.6 1.8 1.6s1.8-.6 2.6-1.2c.1.7.5 1.2 1.3 1.2s1.2-.4 1.7-1l-.2-.3s-.2.1-.4.1zm-2.4-.9c-.2.3-.7.8-1.5.8-.7 0-1-.3-1-1 0-1.1 1.6-1.4 2.5-1.7v1.9zm14.1.7c-.5 0-.9-.2-.9-.9V9.4h2v-.9h-2V6.8l-.2-.1c-.8.9-1.7 1.9-2.7 2.3v.4h1v4.9c0 .9.4 1.6 1.7 1.6.9 0 1.6-.5 2.3-1.3l-.2-.3c-.3.2-.6.3-1 .3zm9.7.1v-4.4c0-1.5-.9-2.1-2.1-2.1-1 0-1.8.7-2.6 1.2v-1l-.2-.2c-.4.2-.8.4-1.2.5-.4.2-1 .4-1.5.5v.4c.2.1.4.1.6.2.4.1.4.2.4.5v4.5c0 .5-.4.5-.9.5H99v.5c.7-.1 1.4-.1 2-.1s1.3 0 2 .1v-.5h-.3c-.4 0-.8 0-.8-.4v-5c.4-.2 1-.5 1.6-.5.8 0 1.2.4 1.2 1.3v4c0 .5-.5.5-.8.5h-.2v.5c.7-.1 1.3-.1 2-.1s1.2 0 1.9.1v-.5h-.2c-.3 0-.7 0-.7-.5zm13.5-6.5c-.9 0-1.6.7-2 1.2h-.1V8.3l-.2-.1c-1 .4-1.9.8-2.8.9v.4c.2 0 .4.1.5.1.4.1.5.2.5.7v4.3c0 .4-.4.5-.9.5h-.2v.5c.7 0 1.4-.1 2.1-.1.8 0 1.6.1 2.4.1v-.5h-.3c-.8 0-1.2 0-1.2-.4v-4.2c0-.8.5-1.1.9-1.1.5 0 .5.6 1.2.6.5 0 .9-.4.9-1 .3-.5-.2-.8-.8-.8zM74.8 4.5c-.8 0-1.6.1-2.5.1-.8 0-1.7-.1-2.3-.1V5h.2c.8 0 1.1.2 1.1 1.2v7.6c0 1.3-.5 1.3-1 1.3H70v.5c1 0 1.8-.1 2.8-.1.9 0 1.7.1 2.6.1v-.5h-.3c-.9 0-1.6-.1-1.6-1.3V5.1h.5c1.7 0 2.6 1 2.6 2.5 0 1.6-.6 2.7-2 2.7h-.3v.5h1.4c1.8-.2 3.2-1.4 3.2-3.2-.2-2.4-1.8-3.1-4.1-3.1zM0 11.1v1.5h2.4L4 11.1H0zm0 4.5h2.1v-2.1H0v2.1zM5 5.5H0V7h6.6L5 5.5zM3.2 15.6h1.6v-3.8l-1.6 1.5v2.3zM2.1 0H0v2h2.1V0zm2.6 0H3.2v2.3l1.6 1.5V0zm8.6 0h-1.6v3.8l1.6-1.5V0zM0 8.6v1.5h5l1.6-1.5H0zM2.4 3H0v1.5h4L2.4 3zm8.3-3H9.1v6.3l1.6-1.5V0zm-.9 7h6.7V5.5h-5.1L9.8 7zm1.6 3.1h5.1V8.6H9.8l1.6 1.5zm2.7 2.5h2.4v-1.5h-4l1.6 1.5zm-1.7-8.1h4V3H14l-1.6 1.5zM14.3 2h2.2V0h-2.2v2zM9.1 15.6h1.6v-4.8L9.1 9.3v6.3zm-3.3 0h1.6V9.3l-1.6 1.5v4.8zm8.5 0h2.2v-2.1h-2.2v2.1zM5.8 4.7l1.6 1.5V0H5.8v4.7zm5.9 10.9h1.6v-2.3l-1.6-1.5v3.8z"/></g></svg>