<svg version="1.1" id="Layer_1" xmlns="http://www.w3.org/2000/svg" x="0" y="0" viewBox="0 0 93.5 43" xml:space="preserve"><g class="nc-icon-wrapper" fill="#b5afa3"><path d="M3.1 38.9c0 .4 0 .7-.1.9-.1.2-.2.4-.5.5-.2.1-.4.2-.7.2-.2 0-.4-.1-.6-.2-.2-.1-.3-.3-.3-.5v-3.5H0V40c0 .2.1.4.2.6.1.2.3.3.5.4.2.1.5.2.8.2.6 0 1.1-.3 1.5-.8v.7h.7v-4.8h-.6v2.6zm5.7-2.1c-.1-.2-.3-.3-.5-.4-.2-.1-.5-.2-.8-.2-.7 0-1.2.3-1.5.8v-.7h-.8v4.8H6v-2.6c0-.6.1-1 .4-1.2.2-.2.5-.3.9-.3.2 0 .4 0 .6.1.2.1.3.2.3.4.1.2.1.4.1.7v2.9h.8v-2.9-.8c-.1-.3-.2-.5-.3-.6zm1.6-1.4h.8v-.9h-.8v.9zm0 5.7h.8v-4.8h-.8v4.8zm4.1-1.9c-.1.4-.2.7-.3.9-.1-.3-.2-.6-.3-1l-1-2.8H12l1.8 4.8h.8l1.8-4.8h-.8l-1.1 2.9zm4.7-3c-.7 0-1.2.2-1.6.7-.4.4-.6 1.1-.6 1.9 0 .8.2 1.4.6 1.8.4.4 1 .6 1.7.6.6 0 1-.1 1.4-.4.4-.3.6-.6.7-1.1l-.8-.1c-.1.3-.3.6-.5.7-.2.2-.5.2-.8.2-.4 0-.7-.1-1-.4-.3-.3-.4-.7-.4-1.2h3.6v-.2c0-.8-.2-1.4-.6-1.8-.5-.5-1.1-.7-1.7-.7zm-1.4 2c0-.4.2-.7.4-1 .3-.2.6-.4.9-.4.4 0 .7.2 1 .5.2.2.3.5.3.9h-2.6zm5.9-1.8c-.2.1-.3.3-.5.7v-.7h-.7v4.8h.8v-2.5c0-.3 0-.7.1-.9.1-.2.2-.3.3-.4.1-.1.3-.2.5-.2s.4.1.6.2l.3-.7c-.3-.2-.6-.3-.8-.3-.3-.2-.5-.1-.6 0zm4.8 2.2c-.2-.1-.6-.2-1.2-.4-.4-.1-.6-.2-.7-.2-.1-.1-.2-.1-.3-.2-.1-.1-.1-.2-.1-.3 0-.2.1-.3.2-.4.2-.1.4-.2.8-.2.3 0 .6.1.7.2.2.1.3.3.3.6l.8-.1c-.1-.3-.1-.6-.3-.7-.1-.2-.3-.3-.6-.4s-.6-.2-1-.2c-.2 0-.5 0-.7.1-.2.1-.4.1-.5.2-.2.1-.3.3-.4.5-.1.2-.1.4-.1.6 0 .2.1.4.2.6.1.2.3.3.5.5.2.1.6.2 1.2.4.4.1.7.2.8.3.2.1.2.2.2.4s-.1.4-.3.5c-.2.2-.5.2-.8.2-.4 0-.7-.1-.9-.3-.2-.2-.3-.4-.4-.7l-.8.1c.1.5.3.9.6 1.1.3.3.8.4 1.4.4.4 0 .7-.1 1-.2.3-.1.5-.3.7-.5.2-.2.2-.5.2-.8 0-.3-.1-.5-.2-.7.1-.2-.1-.3-.3-.4zm1.8-3.2h.8v-.9h-.8v.9zm0 5.7h.8v-4.8h-.8v4.8zm3.5-.7c-.1 0-.2 0-.3-.1-.1 0-.1-.1-.1-.2V36.9h.8v-.6h-.8v-1.7l-.8.5v1.2H32v.6h.6v2.7c0 .5 0 .8.1 1 .1.2.2.3.3.4.2.1.4.1.7.1.2 0 .4 0 .6-.1l-.1-.7c-.2.1-.3.1-.4.1zm3.3-1.3c-.1.4-.2.7-.3 1.1-.1-.4-.2-.8-.3-1.1l-1-2.8h-.9l1.8 4.8c0 .1-.1.2-.1.2-.1.3-.2.5-.2.6l-.3.3c-.1.1-.3.1-.4.1-.1 0-.3 0-.5-.1l.1.8c.2.1.4.1.5.1.3 0 .5-.1.7-.2.2-.1.3-.3.5-.6.1-.2.3-.6.5-1.1l1.8-4.8h-.8l-1.1 2.7zm7.2-2.9c-.6 0-1.1.2-1.5.5-.5.4-.7 1.1-.7 2 0 .8.2 1.4.6 1.8.4.4.9.6 1.6.6.4 0 .8-.1 1.2-.3.4-.2.6-.5.8-.8.2-.3.3-.8.3-1.4 0-.8-.2-1.3-.6-1.8-.5-.4-1-.6-1.7-.6zm1 3.9c-.3.3-.6.5-1 .5s-.7-.2-1-.5c-.3-.3-.4-.8-.4-1.4 0-.6.1-1.1.4-1.4.3-.3.6-.5 1-.5s.7.2 1 .5c.3.3.4.7.4 1.3 0 .7-.1 1.2-.4 1.5zm3-5.5c-.2.1-.3.3-.4.5-.1.2-.1.4-.1.7v.5h-.7v.6h.7V41h.8v-4.1h.9v-.6h-.9v-.4c0-.3.1-.5.2-.6.1-.1.3-.2.5-.2h.5l.1-.7c-.3-.1-.5-.1-.8-.1-.4.1-.6.2-.8.3zm8.4 4.5V38v-.7c0-.2-.1-.4-.3-.5-.1-.1-.3-.3-.6-.4-.3-.1-.6-.1-1-.1s-.8.1-1.1.2c-.3.1-.5.3-.7.5-.2.2-.3.5-.4.8l.8.1c.1-.3.2-.6.4-.7.2-.1.5-.2.8-.2.4 0 .7.1.9.3.2.1.2.4.2.7v.2c-.3.1-.8.2-1.4.3-.3 0-.6.1-.7.1-.2.1-.4.1-.6.3-.2.1-.3.3-.4.5-.1.2-.2.4-.2.6 0 .4.1.7.4 1 .3.3.7.4 1.2.4.3 0 .6-.1.9-.2.3-.1.6-.3.9-.5 0 .2.1.4.2.6h1c-.1-.2-.2-.4-.2-.6-.1-.4-.1-.9-.1-1.6zm-.8-.1c0 .4 0 .6-.1.8-.1.2-.3.4-.5.6-.2.1-.5.2-.8.2-.3 0-.6-.1-.7-.2-.2-.1-.2-.3-.2-.5 0-.1 0-.3.1-.4l.3-.3c.1-.1.4-.1.7-.2.6-.1 1-.2 1.3-.3v.3zm4.9 1.2c-.2.2-.5.3-.8.3-.4 0-.7-.1-1-.4-.2-.3-.4-.8-.4-1.4 0-.6.1-1.1.4-1.4.3-.3.6-.4 1-.4.3 0 .5.1.7.2.2.2.3.4.4.7l.8-.1c-.1-.5-.3-.9-.6-1.1-.3-.3-.8-.4-1.3-.4-.4 0-.8.1-1.1.3-.3.2-.6.5-.8.9-.2.4-.3.8-.3 1.3 0 .8.2 1.4.6 1.8.4.4.9.6 1.6.6.5 0 1-.2 1.3-.5.4-.3.6-.7.7-1.3l-.8-.1c-.1.5-.2.8-.4 1zm5.1-3.8c-.3-.1-.6-.2-.9-.2-.6 0-1.1.2-1.4.7v-2.4h-.8v6.6h.8v-2.6c0-.4 0-.7.1-.9.1-.2.2-.4.5-.5.2-.1.4-.2.7-.2.3 0 .6.1.7.3.2.2.3.5.3.9v3h.8v-3c0-.5-.1-.8-.2-1.1-.1-.3-.3-.4-.6-.6zm2.1-1h.8v-.9H68v.9zm0 5.7h.8v-4.8H68v4.8zm4-4.9c-.7 0-1.2.2-1.6.7-.4.4-.6 1.1-.6 1.9 0 .8.2 1.4.6 1.8.4.4 1 .6 1.7.6.6 0 1-.1 1.4-.4.4-.3.6-.6.7-1.1l-.8-.1c-.1.3-.3.6-.5.7-.2.2-.5.2-.8.2-.4 0-.7-.1-1-.4-.3-.3-.4-.7-.4-1.2h3.6v-.2c0-.8-.2-1.4-.6-1.8-.5-.5-1-.7-1.7-.7zm-1.3 2c0-.4.2-.7.4-1 .3-.2.6-.4.9-.4.4 0 .7.2 1 .5.2.2.3.5.3.9h-2.6zm6.6 1c-.1.4-.2.7-.3.9-.1-.3-.2-.6-.3-1l-1-2.8h-.9l1.8 4.8h.8l1.8-4.8h-.8l-1.1 2.9zm4.6-3c-.7 0-1.2.2-1.6.7-.4.4-.6 1.1-.6 1.9 0 .8.2 1.4.6 1.8.4.4 1 .6 1.7.6.6 0 1-.1 1.4-.4.4-.3.6-.6.7-1.1l-.8-.1c-.1.3-.3.6-.5.7-.2.2-.5.2-.8.2-.4 0-.7-.1-1-.4-.3-.3-.4-.7-.4-1.2h3.6v-.2c0-.8-.2-1.4-.6-1.8-.5-.5-1-.7-1.7-.7zm-1.3 2c0-.4.2-.7.4-1 .3-.2.6-.4.9-.4.4 0 .7.2 1 .5.2.2.3.5.3.9h-2.6zm5.8-1.8c-.2.1-.3.3-.5.7v-.7h-.7v4.8h.8v-2.5c0-.3 0-.7.1-.9.1-.2.2-.3.3-.4.1-.1.3-.2.5-.2s.4.1.6.2l.3-.7c-.3-.2-.6-.3-.8-.3-.3-.2-.4-.1-.6 0zm4.8 2.2c-.2-.1-.6-.2-1.2-.4-.4-.1-.6-.2-.7-.2-.1-.1-.2-.1-.3-.2-.1-.1-.1-.2-.1-.3 0-.2.1-.3.2-.4.2-.1.4-.2.8-.2.3 0 .6.1.7.2.2.1.3.3.3.6l.8-.1c-.1-.3-.1-.6-.3-.7-.1-.2-.3-.3-.6-.4-.3-.1-.6-.2-1-.2-.2 0-.5 0-.7.1-.2.1-.4.1-.5.2-.2.1-.3.3-.4.5-.1.2-.1.4-.1.6 0 .2.1.4.2.6.1.2.3.3.5.5.2.1.6.2 1.2.4.4.1.7.2.8.3.2.1.2.2.2.4s-.1.4-.3.5c-.2.2-.5.2-.8.2-.4 0-.7-.1-.9-.3-.2-.2-.3-.4-.4-.7l-.6.1c.1.5.3.9.6 1.1.3.3.8.4 1.4.4.4 0 .7-.1 1-.2.3-.1.5-.3.7-.5.2-.2.2-.5.2-.8 0-.3-.1-.5-.2-.7-.1-.2-.2-.3-.5-.4zM44.6 28.3c.2-.3.4-.6.5-1 .1-.4.1-1.1.1-2.1v-4.3h-1.7v4.5c0 .6 0 1.1-.1 1.4 0 .3-.2.5-.4.7-.2.2-.6.3-1.1.3-.5 0-.8-.1-1.1-.3-.3-.2-.4-.5-.5-.8 0-.2-.1-.7-.1-1.4v-4.4h-1.7v4.4c0 .9.1 1.6.2 2.1.1.3.2.6.5.9.2.3.6.5 1 .7.4.2 1 .3 1.8.3.6 0 1.2-.1 1.6-.2.5-.3.8-.6 1-.8zm7.4-4.7c-.1-.2-.4-.4-.7-.5-.3-.1-.6-.2-1-.2-.8 0-1.4.3-2 1V23H47v6h1.6v-2.7c0-.7 0-1.1.1-1.4.1-.2.2-.4.4-.6.2-.1.5-.2.7-.2.2 0 .4.1.5.2.2.1.3.2.3.4.1.2.1.6.1 1.2v3h1.6v-3.7c0-.5 0-.8-.1-1.1.1-.1 0-.3-.2-.5zm2 5.4h1.6v-5.9H54V29zm1.6-8.2H54v1.5h1.6v-1.5zm4.3 5.3c-.1.2-.1.3-.2.5 0 .1-.1.3-.2.5l-.3-1-1.1-3h-1.7l2.4 5.9h1.4l2.4-5.9H61l-1.1 3zm8.7 1.3l-1.6-.2c-.1.3-.2.5-.4.6-.1.1-.3.2-.6.2-.4 0-.7-.1-.9-.4-.2-.3-.4-.6-.4-1.1h3.9c0-1.2-.2-2.1-.7-2.7-.5-.6-1.2-.9-2.1-.9-.8 0-1.4.3-2 .8-.5.6-.8 1.3-.8 2.3 0 .8.2 1.5.6 2 .5.7 1.3 1 2.3 1 .7 0 1.2-.1 1.6-.5.6-.1.9-.5 1.1-1.1zm-3.5-2.9c.2-.3.5-.4.9-.4.3 0 .6.1.8.4.2.2.3.6.4 1h-2.4c0-.4.1-.7.3-1zm4.8-1.4V29h1.6v-1.8c0-1 0-1.7.1-2 .1-.3.2-.5.4-.7.2-.1.3-.2.6-.2.2 0 .5.1.7.3l.5-1.4c-.3-.2-.7-.3-1-.3-.3 0-.5.1-.7.2-.2.1-.4.4-.7.8v-.8h-1.5zm7.3 2.2c-.8-.2-1.3-.3-1.5-.4-.1-.1-.2-.2-.2-.3 0-.1.1-.2.2-.3.2-.1.5-.2.9-.2.3 0 .6.1.8.2.2.1.3.3.4.5l1.5-.3c-.1-.5-.4-.9-.8-1.2-.4-.3-1-.4-1.8-.4-.9 0-1.5.2-1.9.5-.4.3-.6.8-.6 1.3 0 .6.2 1 .7 1.3.3.2 1.1.5 2.4.8.3.1.4.1.5.2.1.1.1.2.1.3 0 .2-.1.3-.2.4-.2.3-.6.3-1 .3s-.7-.1-.9-.2c-.2-.2-.3-.4-.4-.7l-1.6.2c.1.6.5 1 .9 1.3.5.3 1.1.5 1.9.5.9 0 1.6-.2 2-.6.5-.4.7-.9.7-1.4 0-.5-.2-.9-.5-1.2-.2-.2-.8-.4-1.6-.6zm5.2-2.2h-1.6V29h1.6v-5.9zm0-2.3h-1.6v1.5h1.6v-1.5zm4.5 8.1l-.1-1.2c-.3.1-.5.2-.6.2-.1 0-.2 0-.3-.1-.1-.1-.1-.1-.1-.2v-3.2h1.1v-1.3h-1.1V21l-1.6.9v1.2h-.7v1.3h.7v3.7c0 .3.1.5.2.6.1.2.3.3.5.4.2.1.5.1.8.1.4 0 .8-.1 1.2-.3zm3.3-1.6l-1.4-4.2h-1.7l2.3 6c-.1.3-.2.6-.4.8-.2.2-.4.3-.8.3-.2 0-.4 0-.7-.1l.1 1.2c.3.1.6.1.9.1.3 0 .6 0 .8-.1l.6-.3c.2-.1.3-.3.4-.4.1-.2.3-.4.4-.8l.4-1 2.1-5.7h-1.6l-1.4 4.2zM20.5 22c.3 0 .5-.3.5-.6V10.7c0-.3-.2-.6-.5-.6s-.6.3-.6.6v10.7c0 .3.3.6.6.6zm-3.2-11.8c-.3 0-.6.3-.6.6v10.7c0 .3.2.6.6.6.3 0 .6-.3.6-.6V10.8c-.1-.4-.3-.6-.6-.6zm-3.8.5v10.7c0 .3.3.6.6.6s.6-.3.6-.6V10.7c0-.3-.2-.6-.6-.6-.4 0-.6.3-.6.6zM17.8 0H.5v30.8L10.2 16v5.4c0 .3.2.6.6.6.3 0 .6-.3.6-.6V10.6L17.8 0zm15.8 1.3l-9.4 14.4v-4.9c0-.3-.3-.6-.6-.6s-.6.3-.6.6V21l-6.5 11h17.1V1.3zm8.1 8.4H48v7.9h3.3V0H48v6.7h-6.3V0h-3.3v17.6h3.3V9.7zm24.4 4.8h-8.9V9.9H65V6.8h-7.8V3.1h8.5V0H54v17.6h12.2v-3.1zM71.5 0h-3.3v17.6h11.3v-3.2h-8V0zm13 11.2h3.8c4.3 0 5.1-4 5.1-5.6 0-3.5-1.9-5.6-5-5.6h-7.3v17.6h3.4v-6.4zm0-8.2h2.7c2.1 0 2.9.7 2.9 2.4 0 .8 0 2.7-2.5 2.7h-3.1V3z"/></g></svg>