<svg version="1.1" id="Layer_1" xmlns="http://www.w3.org/2000/svg" x="0" y="0" viewBox="0 0 133 16.6" xml:space="preserve"><g class="nc-icon-wrapper" fill="#b5afa3"><path d="M61.4 13.8h1.9v-11h-1.9v11zM47 5.6c-1.3 0-2.1.6-2.8 1.4-.4-.9-1.3-1.4-2.5-1.4-1.3 0-2 .7-2.5 1.4V5.8h-1.9v8h1.9V9.3c0-1.2.7-2 1.8-2 1 0 1.7.7 1.7 1.9v4.6h1.9V9.3c0-1.3.7-2 1.8-2s1.7.7 1.7 2v4.5H50V8.7c-.1-2-1.2-3.1-3-3.1zm9.3 0c-1.3 0-2.2.7-2.8 1.5V2.7h-1.9v11h1.9v-1.2c.6.7 1.5 1.4 2.8 1.4 2 0 3.9-1.5 3.9-4.1-.1-2.7-1.9-4.2-3.9-4.2zm1.9 4.2c0 1.6-1.1 2.6-2.4 2.6-1.3 0-2.4-1-2.4-2.6 0-1.5 1.1-2.6 2.4-2.6 1.3 0 2.4 1 2.4 2.6zm10.6-4.2c-2.4 0-4.1 1.9-4.1 4.2 0 2.5 1.9 4.1 4.2 4.1 1.5 0 2.6-.6 3.4-1.5l-1.1-1c-.7.6-1.3 1-2.2 1-1.2 0-2.2-.7-2.4-2h6.1v-.5c.1-2.3-1.3-4.3-3.9-4.3zm-2.2 3.6c.2-1.2 1-2.1 2.2-2.1 1.3 0 2 .9 2.1 2.1h-4.3zm-36.9.1h5.5V7.6h-5.5V4.9h6.2V3.2h-8.1v10.6H36v-1.7h-6.3V9.3zm54-3.7c-1.3 0-2.1.6-2.8 1.4-.4-.9-1.3-1.4-2.5-1.4-1.3 0-2 .7-2.5 1.4V5.8H74v8h2V9.3c0-1.2.7-2 1.8-2 1 0 1.7.7 1.7 1.9v4.6h1.9V9.3c0-1.3.7-2 1.8-2s1.7.7 1.7 2v4.5h1.9V8.7c-.2-2-1.3-3.1-3.1-3.1zm35.2-2h-.8v2.5H117v.7h1.2v5.1c0 1.5 1 2.1 2.2 2.1.5 0 .9-.1 1.3-.3V13c-.5.2-.8.3-1.2.3-.9 0-1.6-.4-1.6-1.5v-5h2.8v-.7h-2.8V3.6zm13.3.1c0-.3-.2-.4-.6-.4h-.7v1.5h.2v-.6h.4l.4.6h.3l-.5-.6c.3-.1.5-.3.5-.5zm-1.1.3v-.6h.5c.2 0 .4.1.3.3 0 .2-.1.3-.4.3h-.4zm.4-1.4c-.8 0-1.5.7-1.5 1.4 0 .8.7 1.4 1.5 1.4S133 4.8 133 4c0-.8-.7-1.4-1.5-1.4zm0 2.7c-.8 0-1.4-.6-1.4-1.3 0-.7.6-1.3 1.4-1.3.8 0 1.4.6 1.4 1.3 0 .7-.6 1.3-1.4 1.3zm-4.6.6c-1.5 0-2.4.7-2.9 1.6V2.7h-.8v11h.8V9.3c0-1.6 1.2-2.8 2.8-2.8 1.6 0 2.5 1.1 2.5 2.6v4.6h.8V9.1c0-1.9-1.2-3.2-3.2-3.2zm-24.8 0c-2.2 0-3.8 1.8-3.8 4 0 2.4 1.8 4 3.9 4 1.5 0 2.5-.6 3.3-1.4l-.5-.5c-.7.7-1.5 1.2-2.7 1.2-1.6 0-3-1.1-3.1-3h6.6v-.3c-.1-2.3-1.5-4-3.7-4zm-3 3.7c.1-1.7 1.4-3 3-3 1.8 0 2.8 1.4 2.9 3h-5.9zm-2.9-1.5h-7V3.2h-.8v10.6h.8v-5h7v5h.8V3.2h-.8v4.9zm18.6 5.7h.8v-11h-.8v11zm-5-7.8c-.8 0-1.5.2-2.4.6l.3.6c.7-.4 1.4-.5 2.1-.5 1.6 0 2.6.8 2.6 2.4v.3c-.5-.1-1.1-.3-2.2-.3-2.1 0-3.5.9-3.5 2.5s1.6 2.4 3.1 2.4 2.3-.8 2.6-1.3v1.2h.8V9c0-1-.3-1.7-.8-2.2-.7-.6-1.5-.8-2.6-.8zm2.6 4.9c0 1.5-1.1 2.4-2.6 2.4-1.2 0-2.3-.7-2.3-1.8s.9-1.8 2.6-1.8c1.1 0 1.8.2 2.3.3v.9zM10.7 4.5c-.7.4-1.4.9-2 1.4.1-.1.2-.1.3-.2.2-.2.5-.3.7-.5.3-.3.7-.5 1-.7-.7-.5-.8-.5-1.6-1-.5-.3-.6-.4-3.2-1.6C4 1 2 .5 0 0c.3 1.1.5 1.9.8 3 .2.7.5 2 .7 2.8.2.7.5 1.8.7 2.6.3 1 .4 1.6.7 2.6 2.7 1.5 5.4 3.3 7.8 5.6 2.4-2.2 5.1-4 7.8-5.6l2.8-11C17.5.9 14 2.4 10.7 4.5zM5 8.8l.1-.1c.4-.3.7-.6 1.1-.9-.4.3-.8.7-1.2 1zm2.1-1.7c.4-.3.7-.6 1.1-.9.2-.1.3-.2.4-.4-.5.4-1 .8-1.5 1.3z"/></g></svg>