<svg version="1.1" id="Layer_1" xmlns="http://www.w3.org/2000/svg" x="0" y="0" viewBox="0 0 103.4 32.4" xml:space="preserve"><g class="nc-icon-wrapper" fill="#b5afa3"><path d="M58.3 30.8h-2.4v-6.6c0-.2 0-.3.2-.5h-1.7c.2.1.2.3.2.5v7.4c0 .2 0 .3-.2.5h4.7v-1.5c-.1.2-.5.2-.8.2zm5.3 0h-2.4v-6.6c0-.2 0-.3.2-.5h-1.7c.2.1.2.3.2.5v7.4c0 .2 0 .3-.2.5h4.7v-1.5c-.2.2-.5.2-.8.2zM48.9 11.9c-2.5 0-4.5 1.9-4.5 4.3s2 4.3 4.5 4.3 4.5-1.9 4.5-4.3-2-4.3-4.5-4.3zm0 7.4c-1.8 0-3.2-1.4-3.2-3.1 0-1.7 1.4-3.1 3.2-3.1 1.8 0 3.2 1.4 3.2 3.1 0 1.7-1.5 3.1-3.2 3.1zm-5.7-7.2c-.1 0-1.1-.2-1.6-.2-2.5 0-4.5 1.9-4.5 4.3s2 4.3 4.5 4.3c.4 0 1-.2 1.5-.2h.2c.1 0 .1.1.2.2v-1.7c-.6.3-1.2.5-1.9.5-1.8 0-3.2-1.4-3.2-3.1 0-1.7 1.4-3.1 3.2-3.1.6 0 1.4.2 1.9.5v-1.8c-.1.2-.1.3-.3.3zm5.7 11.4c-2.5 0-4.5 1.9-4.5 4.3s2 4.3 4.5 4.3 4.5-1.9 4.5-4.3-2-4.3-4.5-4.3zm0 7.4c-1.8 0-3.2-1.4-3.2-3.1 0-1.7 1.4-3.1 3.2-3.1 1.8 0 3.2 1.4 3.2 3.1 0 1.8-1.5 3.1-3.2 3.1zm-5.7-7.2c-.1 0-1.1-.2-1.6-.2-2.5 0-4.5 1.9-4.5 4.3s2 4.3 4.5 4.3c.4 0 1-.2 1.5-.2h.2c.1 0 .1.1.2.2v-1.7c-.6.3-1.2.5-1.9.5-1.8 0-3.2-1.4-3.2-3.1 0-1.7 1.4-3.1 3.2-3.1.6 0 1.4.2 1.9.5v-1.8c-.1.3-.1.3-.3.3zm43.5 0c-.1 0-1.1-.2-1.6-.2-2.5 0-4.5 1.9-4.5 4.3s2 4.3 4.5 4.3c.4 0 .9-.2 1.5-.2h.2c.1 0 .1.1.2.2v-1.7c-.6.3-1.2.5-1.9.5-1.4 0-2.7-1.2-3.1-2.4h2.2c.2 0 1.8.1 1.9.2V27c-.1.2-1.7.2-1.9.2 0 0-2.2 0-2.2-.1.3-1.2 1.8-2.3 3.2-2.3.6 0 1.4.2 1.9.5v-1.8c-.2.2-.2.2-.4.2zm-7.2 3.5h-3.3c-.2 0-.3 0-.5-.2v1.7c.1-.2.3-.2.5-.2h2v2c-.6.2-1.2.4-1.8.4-1.8 0-3.1-1.4-3.1-3.1 0-1.7 1.4-3.1 3.1-3.1.7 0 1.2.3 1.8.6v-1.8c0 .1-.2.2-.3.2-.1 0-.3-.1-.6-.1s-.6-.1-.8-.1c-2.5 0-4.5 1.9-4.5 4.3s2 4.3 4.5 4.3c1.3 0 2-.5 3.2-1-.2-.1-.2-.4-.2-.5v-3.4zm-8.6-3.5c-.1 0-1.1-.2-1.6-.2-2.5 0-4.5 1.9-4.5 4.3s2 4.3 4.5 4.3c.4 0 .9-.2 1.5-.2h.2c.1 0 .1.1.2.2v-1.7c-.6.3-1.2.5-1.9.5-1.4 0-2.7-1.2-3.1-2.4h2.2c.2 0 1.8.1 1.9.2V27c-.1.2-1.7.2-1.9.2 0 0-2.2 0-2.2-.1.3-1.2 1.8-2.3 3.2-2.3.6 0 1.4.2 1.9.5v-1.8c-.2.2-.2.2-.4.2zm5-3.2c1.7 0 2.9-1.2 2.9-2.8v-5.2c0-.2 0-.3.2-.5h-1.7c.2.1.2.3.2.5v5.2c0 .7-.4 1.5-1.6 1.5-1.1 0-1.6-.7-1.6-1.5v-5.2c0-.2 0-.3.2-.5h-1.7c.2.1.2.3.2.5v5.2c0 1.6 1.2 2.8 2.9 2.8zM90 12h-1.7c.2.1.2.3.2.5v7.4c0 .2 0 .3-.2.5H90c-.2-.1-.2-.3-.2-.5v-7.4c-.1-.2 0-.3.2-.5zm-8.3 7.9V15l4.9 5.6v-8c0-.2 0-.3.2-.5h-1.7c.2.1.2.3.2.5v4.7l-4.9-5.5V20c0 .2 0 .3-.2.5h1.7c-.2-.3-.2-.4-.2-.6zm-17.2.1v-.2l.8-4.1 2.3 4.8 2.3-4.8.7 4.1v.3c0 .1-.1.3-.2.3h1.9c-.2-.1-.3-.2-.3-.4l-1.7-8.1-2.8 5.9-2.7-5.9-1.7 8.1c0 .1-.1.2-.1.3-.1-.1-.1-.2-.1-.3l-1.7-8.1-2.8 5.9-2.7-5.9L54 20c0 .2-.1.3-.3.4h1.9c-.2-.1-.2-.2-.2-.3v-.2l.8-4.1 2.3 4.8 2.3-4.8.7 4.1v.3c0 .1-.1.3-.2.3h3.4c-.1-.2-.2-.3-.2-.5zM91.8 8.9c.4 0 .9-.2 1.5-.2h.2c.1 0 .1.1.2.2V7.1c-.6.3-1.2.5-1.9.5-1.4 0-2.7-1.2-3.1-2.4h2.2c.2 0 1.8.1 1.9.2V3.7c-.1.2-1.7.2-1.9.2 0 0-2.2 0-2.2-.1.3-1.2 1.8-2.3 3.2-2.3.6 0 1.4.2 1.9.5V.2c-.1.2-.2.2-.3.2-.1 0-1.1-.2-1.6-.2-2.5 0-4.5 1.9-4.5 4.3s1.9 4.4 4.4 4.4zM73.2 4.5c0-2.4-2.1-4.3-4.5-4.3-.8 0-1.6.2-1.8.2-.2 0-.3 0-.4-.2v8c0 .2 0 .3-.2.5h2.5c2.4 0 4.4-1.9 4.4-4.2zm-5.4-3h1c1.7 0 3.2 1.4 3.2 3 0 1.7-1.5 3-3 3h-1.1v-6zm7.4 6.9c0-.1 0-.2.1-.3l.6-1.3h3.3l.6 1.3c.1.1.1.3.1.3 0 .1 0 .2-.1.3h2c-.1-.1-.2-.3-.3-.4L77.6.2 73.9 8c-.2.3-.2.5-.4.7h1.9c-.1-.1-.2-.2-.2-.3zm2.2-5.5l1.2 2.7h-2.3l1.1-2.7zm4.7 5.8h4.7V7.2c-.2.3-.5.3-.8.3h-2.4V.9c0-.2 0-.3.2-.5h-1.7c.2.1.2.3.2.5v7.4c.1.1 0 .2-.2.4zm19.1 3.3c.1.1.2.2.2.3 0 .1-.1.2-.2.5l-1.5 2.6-1.5-2.6c-.2-.3-.2-.5-.2-.5 0-.1.1-.2.2-.3h-7.3v1.4c.1-.1.3-.2.5-.2h1.5v6.6c0 .2 0 .3-.2.5h1.7c-.2-.1-.2-.3-.2-.5v-6.6h1.5c.2 0 .3.1.5.2v-1.3c.2.2.4.3.5.6l2.4 3.8v3.4c0 .2 0 .3-.2.5h1.7c-.2-.1-.2-.3-.2-.5v-3.4l2.4-3.8c.2-.3.3-.5.6-.7h-2.2zM41.6 8.9c1.3 0 2-.5 3.2-1-.2-.1-.2-.4-.2-.5V3.9h-3.3c-.2 0-.3 0-.5-.2v1.7c.1-.2.3-.2.5-.2h2v2c-.6.2-1.2.4-1.8.4-1.8 0-3.1-1.4-3.1-3.1 0-1.7 1.4-3.1 3.1-3.1.7 0 1.2.3 1.8.6V.2c-.1.1-.2.2-.3.2-.1 0-.3-.1-.6-.1s-.5-.1-.8-.1c-2.5 0-4.5 1.9-4.5 4.3s2 4.4 4.5 4.4zm18.3-.7V3.3l4.9 5.6v-8c0-.2 0-.3.2-.5h-1.7c.2.1.2.3.2.5v4.7L58.6 0v8.2c0 .2 0 .3-.2.5h1.7c-.1-.1-.2-.3-.2-.5zm-14.1.5h4.7V7.2c-.2.3-.5.3-.8.3h-2.4V.9c0-.2 0-.3.2-.5h-1.7c.2.1.2.3.2.5v7.4c.1.1 0 .2-.2.4zm9.7.2c.4 0 .9-.2 1.5-.2h.2c.1 0 .1.1.2.2V7.1c-.6.3-1.2.5-1.9.5-1.4 0-2.7-1.2-3.1-2.4h2.2c.2 0 1.8.1 1.9.2V3.7c-.1.2-1.7.2-1.9.2 0 0-2.2 0-2.2-.1.3-1.2 1.8-2.3 3.2-2.3.6 0 1.4.2 1.9.5V.2c-.1.2-.2.2-.3.2-.1 0-1.1-.2-1.6-.2C53 .2 51 2.1 51 4.5s2 4.4 4.5 4.4zM19 13.8h-.3c2.4-2.3 7.7-6 14.8-5-.5-1.2-1.1-2.4-1.9-3.5-8.8.4-12.5 5.7-13.8 8.5h-.1c1.1-2.9 4.2-9.1 11.5-11.2-1-.9-2-1.7-3.2-2.3-7.2 4.5-8.6 10.7-8.8 13.5-.1-2.8-1.3-9-8.4-13.5-1.1.6-2.1 1.4-3.1 2.2 7.1 2.3 10.1 8.4 11.1 11.3h-.1C15.5 11.1 12 5.7 3.4 5.1c-.8 1.1-1.5 2.2-2 3.4 7-.8 12.1 3.1 14.4 5.3h-.3C13 11.9 7.7 9.1.3 11.8c-.2 1.3-.3 2.6-.3 3.9 5.5-3.2 11.1-2.4 14.3-1.4v.3C11.1 14 5.7 14 .5 19.1c.3 1.3.7 2.5 1.3 3.6 3.7-5.3 9.3-6.8 12.6-7.2v.3c-3.1.8-8.1 3-10.7 9.9.8 1 1.7 1.9 2.7 2.7 1.2-7.1 6.7-10.9 9.3-12.3l-1.1 16.1c.9.2 1.9.2 2.9.2.7 0 1.5 0 2.2-.1l-1-16.2h.1c2.7 1.5 8.2 5.5 9.1 12.9 1.1-.8 2-1.7 2.9-2.7-2.4-7.1-7.4-9.6-10.6-10.4v-.2c3.4.5 9.1 2.2 12.6 7.8.6-1.2 1.1-2.4 1.5-3.6-5.2-5.5-10.8-5.7-14.1-5.1v-.3c3.4-1 9.1-1.7 14.7 1.9v-1c0-1-.1-2-.3-3-7.5-3.2-12.9-.5-15.6 1.4z"/></g></svg>