<svg version="1.1" id="Layer_1" xmlns="http://www.w3.org/2000/svg" x="0" y="0" viewBox="0 0 107.9 36.2" xml:space="preserve"><g class="nc-icon-wrapper" fill="#b5afa3"><path d="M107.9 21c0-1.5-.6-2.6-1.7-3.4-1.1-.8-2.6-1.2-4.4-1.2-1.8 0-3.3.4-4.5 1.2-1.2.8-1.7 2-1.7 3.5 0 1.4.6 2.6 1.7 3.4 1.1.8 2.7 1.2 4.6 1.2 1.5 0 2.8-.3 3.8-.7 1-.5 1.7-1.2 2-2.1l-2.3-.2c-.3.6-.8 1.1-1.4 1.4-.6.3-1.3.4-2.1.4-1.1 0-2-.3-2.8-.8-.7-.5-1.2-1.3-1.2-2.2h9.9c.1-.3.1-.4.1-.5zm-9.8-.9c.1-.8.5-1.4 1.2-1.9s1.6-.7 2.6-.7c1.1 0 2.1.3 2.8.9.5.4.8.9.9 1.7h-7.5zm-60.4 3.5c.5-.7.8-1.5.8-2.7 0-1.4-.6-2.5-1.7-3.3-1.2-.8-2.7-1.2-4.5-1.2-1.7 0-3 .3-4.2 1-1.4.8-2.1 2-2.1 3.6 0 1.5.6 2.6 1.7 3.4 1.2.8 2.7 1.2 4.5 1.2 1.2 0 2.2-.2 3.2-.5 1-.4 1.8-.9 2.3-1.5zm-5.5.8c-1.1 0-2.1-.3-2.8-.8-.7-.6-1.1-1.4-1.1-2.5s.4-2 1.1-2.5c.7-.6 1.7-.8 2.8-.8 1.1 0 2 .3 2.8.8.8.6 1.1 1.4 1.1 2.5 0 1.2-.4 2-1.1 2.6-.7.4-1.7.7-2.8.7zm60.7-11.2h-2.3v12.2h2.3V13.2zm-48.8 3.5c-.4.2-.9.6-1.4 1.2v-1.3h-2v8.9H43v-4.6c0-.6.1-1.2.4-1.8.2-.4.4-.6.8-.8.4-.2.8-.3 1.3-.3.6 0 1.1.1 1.7.3l.8-1.4c-.8-.3-1.6-.5-2.3-.5-.7 0-1.2.1-1.6.3zm27.1 8.7h2.1V13.2h-2.2v4.4c-.4-.4-.9-.7-1.5-.9-.6-.2-1.3-.3-2.1-.3-1.1 0-2.1.2-3 .6-.9.4-1.6.9-2 1.7-.4.7-.7 1.5-.7 2.4 0 .9.2 1.7.7 2.4.5.7 1.2 1.2 2.1 1.6.9.4 1.9.6 2.9.6 1.6 0 2.9-.4 3.7-1.3v1zm-1-1.8c-.7.5-1.5.8-2.5.8s-1.8-.3-2.6-.8c-.7-.6-1.1-1.4-1.1-2.5 0-1.2.3-2 1-2.6.7-.5 1.5-.8 2.5-.8s1.9.3 2.6.9c.7.6 1.1 1.5 1.1 2.7 0 .9-.3 1.7-1 2.3zm-17.7-1.7l1.6-1 4.4 4.5h2.8l-5.6-5.6 5.1-3.3h-2.9l-5.4 3.6v-7h-2.3v12.2h2.3v-3.4zm34.8 2.5c-.1-.4-.1-1.3-.1-2.6v-2c0-.7 0-1.1-.1-1.4-.1-.4-.4-.8-.7-1-.3-.3-.9-.5-1.6-.7-.7-.2-1.6-.3-2.8-.3-1.2 0-2.2.1-3 .3-.9.2-1.5.5-2 .9s-.8.9-1 1.5l2.2.2c.2-.6.6-1.1 1.1-1.3.5-.2 1.3-.4 2.4-.4 1.1 0 2 .2 2.6.5.4.2.6.7.6 1.3v.4c-.9.2-2.2.4-4 .5-.9.1-1.6.1-2 .2-.6.1-1.1.3-1.6.5s-.9.5-1.2.9c-.3.4-.4.8-.4 1.2 0 .7.4 1.3 1.2 1.8.8.5 1.9.7 3.4.7.9 0 1.7-.1 2.5-.3.8-.2 1.6-.5 2.4-1 .1.4.2.8.5 1.1h2.4c-.5-.3-.7-.7-.8-1zm-2.4-2.9c0 .7-.1 1.2-.4 1.5-.3.4-.8.8-1.5 1-.7.3-1.5.4-2.3.4-.9 0-1.5-.1-2-.4-.5-.3-.7-.6-.7-1 0-.3.1-.5.3-.7.2-.2.5-.4.9-.5.4-.1 1-.2 2-.3 1.6-.2 2.9-.3 3.7-.6v.6zM13.3 33.4c-.3.2-.7.3-1.1.3-.6 0-1-.2-1.4-.5-.4-.3-.5-.8-.5-1.5s.2-1.2.5-1.5c.4-.3.8-.5 1.4-.5.4 0 .8.1 1.1.3.3.2.5.4.6.7l1.5-.3c-.2-.5-.4-.8-.8-1-.6-.4-1.4-.6-2.3-.6-1.1 0-2 .3-2.6.8-.7.5-1 1.3-1 2.2 0 .9.3 1.6 1 2.1s1.5.8 2.5.8c.8 0 1.5-.2 2.1-.4.5-.3.9-.8 1.2-1.4l-1.5-.4c-.2.4-.4.7-.7.9zm17.4-2.9c-.3-.1-.6-.2-1-.2-.3 0-.6.1-.9.2-.3.1-.6.3-.8.5-.2-.2-.4-.4-.6-.5-.3-.1-.6-.2-.9-.2-.7 0-1.3.2-1.7.7v-.6h-1.4v4.1h1.5v-2c0-.4 0-.7.1-.8.1-.2.2-.3.4-.4.2-.1.4-.1.6-.1.2 0 .3 0 .5.1.1.1.2.1.2.3.1.1.1.4.1.8v2.2h1.5v-2c0-.4 0-.7.1-.8.1-.2.2-.3.4-.4.2-.1.4-.1.6-.1.3 0 .5.1.6.2.1.1.2.4.2.8v2.3h1.5V32c0-.4-.1-.7-.2-.9-.3-.3-.5-.4-.8-.6zm-9.3.5c-.5-.4-1.2-.6-2.1-.6-.5 0-1 .1-1.5.3-.4.2-.8.4-1 .8-.2.3-.4.7-.4 1 0 .5.1.9.4 1.2.2.3.6.6 1.1.7.5.2 1 .3 1.5.3.8 0 1.5-.2 2.1-.6.5-.4.8-.9.8-1.5-.1-.7-.3-1.2-.9-1.6zm-1.1 2.4c-.3.2-.6.3-1 .3s-.7-.1-1-.3c-.3-.2-.4-.5-.4-.9s.1-.7.4-.9c.3-.2.6-.3 1-.3s.7.1 1 .3c.3.2.4.5.4.9s-.1.7-.4.9zm20-2.9c-.3-.1-.6-.2-1-.2-.3 0-.6.1-.9.2-.3.1-.6.3-.8.5-.2-.2-.4-.4-.6-.5-.3-.1-.6-.2-.9-.2-.7 0-1.3.2-1.7.7v-.6H33v4.1h1.5v-2c0-.4 0-.7.1-.8.1-.2.2-.3.4-.4.2-.1.4-.1.6-.1.2 0 .3 0 .5.1.1.1.2.1.2.3.1.1.1.4.1.8v2.2h1.5v-2c0-.4 0-.7.1-.8.1-.2.2-.3.4-.4.2-.1.4-.1.6-.1.3 0 .5.1.6.2.1.1.2.4.2.8v2.3h1.5V32c0-.4-.1-.7-.2-.9-.3-.3-.5-.4-.8-.6zm20.4 3.2c-.1 0-.2 0-.3-.1-.1 0-.1-.1-.1-.1v-2.3h1v-.9h-1V29l-1.5.6v.8h-.7v.9h.7v2.6c0 .2.1.3.2.4.1.1.3.2.5.3.2.1.5.1.7.1.4 0 .8-.1 1.2-.2l-.1-.8h-.6zm3.9-.3l-1.3-2.9h-1.6l2.1 4.1c-.1.2-.2.4-.4.6-.2.1-.4.2-.8.2-.2 0-.4 0-.6-.1l.1.9c.3 0 .6.1.8.1.3 0 .5 0 .8-.1.2 0 .4-.1.6-.2.2-.1.3-.2.4-.3.1-.1.2-.3.4-.5l.4-.7 2-3.9H66l-1.4 2.8zm24.7-1.2c0 .6 0 1-.1 1.1-.1.1-.2.3-.4.4-.2.1-.4.2-.7.2-.2 0-.4 0-.5-.1l-.3-.3c-.1-.1-.1-.5-.1-1.1v-1.9h-1.5V33c0 .4.1.7.2.9.1.2.4.4.6.5.3.1.6.2 1 .2s.7-.1 1.1-.2c.3-.1.6-.3.8-.5v.6h1.4v-4.1h-1.5v1.8zm-13.6 1.2c-.3.2-.7.3-1.1.3-.6 0-1-.2-1.4-.5-.4-.3-.5-.8-.5-1.5s.2-1.2.5-1.5c.4-.3.8-.5 1.4-.5.4 0 .8.1 1.1.3.3.2.5.4.6.7l1.5-.3c-.2-.5-.4-.8-.8-1-.6-.4-1.4-.6-2.3-.6-1.1 0-2 .3-2.6.8-.7.5-1 1.3-1 2.2 0 .9.3 1.6 1 2.1s1.5.8 2.5.8c.8 0 1.5-.2 2.1-.4.5-.3.9-.8 1.2-1.4l-1.5-.3c-.2.3-.4.6-.7.8zm8.2-2.6c-.1-.1-.3-.3-.6-.4-.3-.1-.6-.1-.9-.1-.7 0-1.2.2-1.7.6v-2.1h-1.5v5.7h1.5v-2.1c0-.3 0-.6.1-.8.1-.2.2-.3.4-.4.2-.1.4-.1.7-.1.2 0 .4 0 .5.1l.3.3c.1.1.1.4.1.8v2.2h1.5v-2.4c0-.4 0-.6-.1-.8-.1-.1-.2-.3-.3-.5zm10.4-.3c-.2.1-.4.3-.6.5v-.6h-1.4v4.1h1.5v-1.3c0-.7 0-1.2.1-1.4.1-.2.2-.4.3-.5.1-.1.3-.1.5-.1s.4.1.7.2l.5-.9c-.3-.1-.6-.2-1-.2-.2.1-.4.1-.6.2zm13 .3c-.1-.1-.3-.3-.6-.4-.3-.1-.6-.1-.9-.1-.7 0-1.2.2-1.7.6v-2.1h-1.5v5.7h1.5v-2.1c0-.3 0-.6.1-.8.1-.2.2-.3.4-.4.2-.1.4-.1.7-.1.2 0 .4 0 .5.1l.3.3c.1.1.1.4.1.8v2.2h1.5v-2.4c0-.4 0-.6-.1-.8-.1-.1-.2-.3-.3-.5zm-7.6 2.8c-.2.1-.4.2-.7.2-.4 0-.7-.1-.9-.3-.2-.2-.3-.5-.3-1 0-.4.1-.8.3-.9.2-.2.5-.3.9-.3.3 0 .5.1.7.2.2.1.3.3.3.5l1.5-.2c-.2-.4-.5-.8-.9-1-.4-.2-.9-.3-1.6-.3-.8 0-1.5.2-2 .6-.5.4-.7.9-.7 1.6 0 .7.2 1.2.7 1.6.5.4 1.1.6 2 .6.7 0 1.3-.1 1.7-.4.4-.2.7-.6.9-1.1L100 33c0 .3-.2.5-.3.6zm-43.9.9h1.5v-4.1h-1.5v4.1zm-1.9-3.7c-.1-.1-.3-.2-.6-.3-.3-.1-.6-.1-.9-.1-.7 0-1.4.2-1.8.7v-.6h-1.4v4.1h1.5v-1.9c0-.5 0-.8.1-.9.1-.2.2-.3.4-.4.2-.1.4-.2.7-.2.2 0 .4 0 .5.1l.3.3c.1.1.1.4.1.9v2.1h1.5V32c0-.3 0-.6-.1-.7-.1-.2-.2-.4-.3-.5zm-7.7 1.4c0 .6 0 1-.1 1.1-.1.1-.2.3-.4.4-.2.1-.4.2-.7.2-.2 0-.4 0-.5-.1l-.3-.3c-.1-.1-.1-.5-.1-1.1v-1.9h-1.5V33c0 .4.1.7.2.9.1.2.4.4.6.5.3.1.6.2 1 .2s.7-.1 1.1-.2c.3-.1.6-.3.8-.5v.6h1.4v-4.1h-1.5v1.8zm9.6-2.3h1.5v-1h-1.5v1zM29 10c.8-1.6 2.2-2.9 3.8-3.7 0 1.1-.3 2.2-.4 2.6l.5-.2s.2-1.6.2-2.1v-.4c.4-.2.8-.3 1.2-.4.1 0 .1 0 .1-.1s0-.1-.1-.1H33c-.1-.6-.3-1.1-.3-1.1.4-.1.9-1 1.1-1.6.1-.3-.2-.9-.4-1.2 0 0-.6.6-.7.9-.1.3-.2 1.2-.1 1.6l-.9-1.5s.4-.6.5-1.1c.1-.5-.4-1.1-.9-1.4-.1.3-.4.9.1 2-.4-.5-.7-.6-1.1-.8-.2-.3-1-1-1-1-.3-.2-1.7-.1-1.9-.1 0 0 .7 1.1 1.2 1.5.4.3 1.5-.1 1.7-.1.2 0 .7.5.9.7 0 0-1-.2-1.3-.2-.2 0-1 .4-1.1.6 0 0 1 .4 1.3.5.2 0 1.1 0 1.5-.4l.7 1.2c-.3 0-.5-.2-.9-.2-.4-.1-1-.1-1.3.1 0 0 .5.5.8.7.1 0 .9.3 1.4-.2.2.3.3.6.4.9h-4.9c-3.1 0-6 1.7-7.4 4.5l-1.8 3.6-1.8-3.6c-1.4-2.7-4.3-4.4-7.3-4.4H.1s-.1 0-.1.1 0 .2.1.2c2.3.6 4.2 2.1 5.3 4.2l.9 1.8c1.4 2.7 4.2 4.5 7.3 4.5h3.5l-3.2 6.3c-1 2.1-2.9 3.6-5.2 4.2-.1 0-.1.1-.1.2h6.6c3.1 0 5.9-1.7 7.4-4.4l3.1-6.3L29 10zm-15.5 5.1c-2.7 0-5.1-1.5-6.3-3.9l-.9-1.8C5.7 8.3 4.9 7.3 4 6.5h2.6c2.6 0 5.1 1.5 6.3 3.9l2.4 4.7h-1.8zm.4-5.2C13 8.1 11.4 6.7 9.6 6c2.8 0 5.4 1.6 6.6 4.1l2 4-1.1 2.1-3.2-6.3zm7.8 12.3a7.11 7.11 0 0 1-6.3 3.9h-2.6c1-.7 1.8-1.8 2.3-2.9l6.4-12.6c1.2-2.4 3.7-3.9 6.4-3.9h2.6c-1 .8-1.8 1.8-2.3 2.9l-6.5 12.6zm4.9-14.7c-.4 0-.7.3-.7.7 0 .4.3.7.7.7s.7-.3.7-.7c.1-.3-.3-.7-.7-.7z"/></g></svg>