<svg version="1.1" id="Layer_1" xmlns="http://www.w3.org/2000/svg" x="0" y="0" viewBox="0 0 108.7 31.7" xml:space="preserve"><g class="nc-icon-wrapper" fill="#b5afa3"><path d="M20.7 8c-3.3.6-6.3 2.8-7.7 5.8 2-.9 6.2-3.2 8.4-3 3.4.3 3.2 2.9 2.4 5.4C22 21.5 12.2 28.6 7.5 31.7 29 26 35.4 5.6 20.7 8zm-5.1 9.8c-2 .9-6.2 3.2-8.4 3-3.4-.3-3.2-2.9-2.4-5.4C6.6 10.2 16.4 3.1 21.2 0-.3 5.7-6.7 26.1 7.9 23.7c3.3-.6 6.3-2.8 7.7-5.9zm20.6-8.7c.3 0 .6 0 .8-.1.1 0 .1-.1.1-.1 0-.2.1-.5.1-.6v-.1l-.1.1c0 .1-.1.2-.2.3-.2.2-.4.3-.8.3-.6 0-1.4-.5-1.4-1.6 0-.4.1-.9.4-1.2.2-.2.5-.3.9-.3s.8.1.9.3c.1.1.2.3.2.4v.1l.1-.1V6v-.2l-.1-.1c-.1 0-.3-.1-.5-.1h-.7c-.7 0-1.1.2-1.4.5-.4.4-.5.9-.5 1.2 0 .4.1.9.6 1.3.5.3 1 .5 1.6.5zm20-.2c-.1 0-.2-.2-.2-.5l-.4-2.8c0-.1 0-.1-.1-.1 0 0-.1 0-.1.1l-1.2 2.6L53 5.6l-.1-.1s-.1 0-.1.1l-.4 2.9c0 .2-.1.3-.2.4h-.1-.1H52.9c-.1 0-.1-.1-.1-.1v-.2l.2-1.8c.2.3.4.9.5 1 .1.1.4.8.5 1-.1.1 0 .2 0 .2s.1 0 .2-.3l1-2.1.3 2v.2h-.1l.1.1h.7zm34-3.2c.1 0 .1.1.2.3v2.8c0 .1 0 .2-.1.2H90h1.4-.2c-.1 0-.2-.1-.2-.2V6.9v-1c0-.2 0-.2.2-.3h.1H90h.1c-.1.1 0 .1.1.1zm14.8 0c.1 0 .2.2.3.3.2.2.8 1.2.8 1.3.1.1.1.2.1.5v.9c0 .1-.1.2-.1.2H105.8h1.4-.2c-.1 0-.2-.1-.2-.2v-.9c0-.1 0-.3.1-.5s.7-1.3.9-1.4c.1-.1.1-.2.2-.2s.1-.1.2-.1h0-1 .1c.1 0 .1.1.1.1 0 .1 0 .2-.1.2-.1.1-.6 1.1-.7 1.2-.1-.1-.7-1.2-.8-1.4 0 0 0-.1-.1-.2 0 0 0-.1.1-.1h0H104.6h.1c.2.3.2.3.3.3zM46.5 7.2c0-1-.7-1.7-1.8-1.7-1.4 0-1.9 1-1.9 1.8s.5 1.8 1.8 1.8c1.2 0 1.9-.9 1.9-1.9zm-1.7 1.6c-.9 0-1.4-.7-1.4-1.7 0-1.1.6-1.4 1.1-1.4.7 0 1.3.6 1.3 1.6.1 1.4-.7 1.5-1 1.5zm29.6-3.2h-.6H74.1c.1 0 .2.1.2.3v1.6c0 .5 0 .9-.3 1.1-.2.2-.4.2-.6.2-.2 0-.4 0-.6-.2-.2-.2-.4-.5-.4-1.1v-.6-1c0-.2 0-.2.2-.3h.1-1.4H71.6c.2 0 .2.1.2.3v1.7c0 .7.2 1 .4 1.2.3.3.8.3 1 .3.3 0 .6-.1.9-.3.4-.3.4-.9.4-1.4v-.5-1c0-.2 0-.2.2-.3H74.4zm25.4-.1h-2.7c-.1 0-.2-.1-.2-.1l-.1.1s-.1.4-.1.5v.1l.1-.1c0-.1 0-.1.1-.2s.2-.1.4-.1h.7v2.9c0 .1 0 .2-.1.2H97.6 99h-.2c-.1 0-.2-.1-.2-.2V5.8h.6c.4 0 .5.1.5.3v0c.1-.1.1-.4.1-.6 0 .1 0 0 0 0zM80.5 9h1.1-.2c-.1 0-.1-.1-.2-.5V6.6c.1.1.6.7 1.1 1.1L83.6 9h.2s.1 0 .1-.1V6c0-.3 0-.3.2-.4h.1-1.1H83.4c.1 0 .2.1.2.4v2l-1-1c-.5-.5-.9-1-1.4-1.5-.2.1-.2 0-.2 0s-.1.1-.1.2v2.7c0 .4 0 .5-.1.6-.2-.1-.2-.1-.3 0-.1-.1-.1-.1-.1 0h.1zM62.2 9h.5-.2c-.1 0-.1-.1-.1-.1v-.2l.2-1.8c.2.3.4.9.5 1 .1.1.4.8.5 1 .1 0 .1.1.2.1 0 0 .1 0 .2-.3l1-2.1.3 2v.2h-.1l.1.1h.9-.3c-.1 0-.2-.2-.2-.5l-.4-2.8c0-.1 0-.1-.1-.1 0 0-.1 0-.1.1l-1.2 2.6-1.2-2.6-.1-.1s-.1 0-.1.1L62 8.5c0 .2-.1.3-.2.4h-.1-.1.1c.2.1.4.1.5.1zm27.2 4.8zm2.3 5.9v-4.9h3.9c.3 0 .4 0 .6.1v-1h-6.7c.1.2.1.3.1.6v11.7c0 .3 0 .4-.1.6h6.7v-1.1c-.4.1-.5.1-.7.1h-3.8v-5.1h3.8c.4 0 .4 0 .7.1v-1c-.3.1-.4.1-.7.1h-3.8zm16.3 1.1c-.5-.6-1.2-1.1-2.5-1.7-2.2-1-2.7-1.5-2.7-2.5 0-1.1.9-1.9 2.1-1.9.9 0 1.7.3 2.7 1l.4-1.4c-1.1-.5-2-.7-3-.7-2.6 0-4.3 1.5-4.3 3.6 0 1.6.9 2.6 3.1 3.6 1.1.5 1.6.8 1.9 1 .6.5.9 1 .9 1.8 0 1.3-1 2.2-2.5 2.2-1.1 0-1.8-.3-3.1-1.4l-.4 1.6c1.3.7 2.3 1 3.6 1 1.2 0 2.2-.3 2.9-.8 1-.7 1.6-1.9 1.6-3.2 0-.8-.3-1.6-.7-2.2zm-23.2 5.4l-4.3-5.6c.7-.1 1-.2 1.4-.4 1.3-.5 2.1-1.6 2.1-2.9 0-2.1-1.7-3.5-4.1-3.5h-4c.1.3.1.4.1.6v11.7c0 .3 0 .4-.1.6h2.3c-.1-.2-.1-.4-.1-.6v-5.4l3.9 5.4c.1.2.2.3.3.6h2.8c-.1-.1-.1-.2-.3-.5zM78.2 20v-5.3h.9c.8 0 1.3.2 1.8.6.5.5.9 1.3.9 2.1 0 1.5-1.1 2.6-2.6 2.6h-1zM67 14.2c0-.1-.1-.3-.1-.4H65c0 .2 0 .3-.1.5l-4.3 11.9c-.1.2-.2.4-.3.5h1.2c0-.2 0-.3.1-.5l1.3-3.5h4.8l1.2 3.5c.1.2.1.3.1.5h2.5c-.2-.3-.2-.3-.3-.5l-4.2-12zm-3.7 7.5l2-5.8 2.1 5.8h-4.1zm-7.2-7.9h-2.3c.1.3.1.4.1.6v5.2h-5.7v-5.2c0-.2 0-.4.1-.6H46c.1.3.1.4.1.6v11.7c0 .2 0 .4-.1.6h2.3c-.1-.2-.1-.4-.1-.6v-5.6h5.7v5.6c0 .3 0 .4-.1.6h2.3c-.1-.2-.1-.4-.1-.6V14.4c0-.2 0-.4.1-.6zm-18.3 5.3c-2.2-1-2.7-1.5-2.7-2.5 0-1.1.9-1.9 2.1-1.9.9 0 1.7.3 2.7 1l.4-1.4c-1.1-.5-2-.7-3-.7-2.6 0-4.3 1.5-4.3 3.6 0 1.6.9 2.6 3.1 3.6 1.1.5 1.6.8 1.9 1 .6.5.9 1 .9 1.8 0 1.3-1 2.2-2.5 2.2-1.1 0-1.8-.3-3.1-1.4l-.4 1.6c1.3.7 2.3 1 3.6 1 1.2 0 2.2-.3 2.9-.8 1-.7 1.6-1.9 1.6-3.2 0-.8-.2-1.6-.7-2.2-.5-.6-1.1-1.1-2.5-1.7z"/></g></svg>