<svg version="1.1" id="Layer_3" xmlns="http://www.w3.org/2000/svg" x="0" y="0" viewBox="167 357 80 80" xml:space="preserve"><g class="nc-icon-wrapper"><circle fill="#E3C71F" cx="207" cy="397" r="28.4"/><path fill="#333" d="M247 397c0-22.1-17.9-40-40-40s-40 17.9-40 40 17.9 40 40 40c8.6 0 16.9-2.8 23.8-7.8l.4.6 9.9-6.6-1.8-2.6c5-6.9 7.7-15 7.7-23.6zm-12.6 16.5l9.1-12.7-2.1-2.5h3c-.2 7.2-2.5 14.1-6.7 20l-3.3-4.8zm-12.2 12.7l-5.6-3.7 18.9-27.2 4.7 5.7-18 25.2zm-52.6-27.9h2.5v-2.6h-2.5c.3-8.7 3.6-16.6 8.8-22.9 1.4 1.3 4.9 4 10.9 6-1.7 4.7-2.8 10.3-2.9 16.8h-11.6v2.6h11.6c.1 6.5 1.3 12.1 2.9 16.8-6 2-9.4 4.7-10.9 6-5.2-6.1-8.5-14-8.8-22.7zm38.7-34.8v-2.8c1.7 1.2 4.2 3.3 6.8 6.4 2 2.4 4.3 5.8 6.1 10.1-3.5.9-7.8 1.6-12.9 1.7V366h-2.6v12.9c-5.1-.1-9.4-.8-12.9-1.7 3.9-9.1 9.9-14.3 12.9-16.5v2.8h2.6zm36.1 32.2h-5.2l-3.2-3.9h-8.6c-.4-4.9-1.4-9.2-2.7-13 6-2 9.4-4.7 10.9-6 5.2 6.3 8.5 14.2 8.8 22.9zm-36.1 2.6h4.3l-2.1 2.5 9.1 12.7-.1.2c-3.5-.7-7.2-1.1-11.2-1.2v-14.2zm12.9 13l-7.4-10.4 4.7-5.7 6.9 9.9-4.2 6.2zm5.8-8.4l-1.4-2.1H228.5l-1.5 2.1zm3.2-4.6h-6.5l-2.7-3.9H232.9l-2.7 3.9zm-5.4-6.5H218l-3.2 3.9h-6.5v-14.2c5.5-.1 10.1-.8 13.9-1.9 1.2 3.5 2.2 7.6 2.6 12.2zm-19.1-10.3v14.2H189c.1-6.2 1.2-11.6 2.9-16.1 3.7 1.1 8.3 1.8 13.8 1.9zM189 398.3h16.7v14.2c-5.5.1-10.1.8-13.9 1.9-1.6-4.5-2.7-9.8-2.8-16.1zm16.7 16.8v18.2c-1.8-1.3-4.6-3.6-7.5-7.2-1.8-2.3-3.8-5.4-5.5-9.3 3.6-.9 7.9-1.6 13-1.7zm2.6 0c3.4.1 6.6.4 9.6 1l-4.9 7.1 3.4 2.2c-3 4-6.1 6.6-8 7.9v-18.2zm25.5-44.2c-1.2 1.1-4.4 3.6-10.1 5.5-3.5-8.4-8.7-13.7-12.2-16.6 8.7 1.1 16.5 5.2 22.3 11.1zm-31.3-11c-3.5 2.9-8.7 8.2-12.2 16.6-5.7-1.9-8.8-4.4-10.1-5.5 5.8-6 13.6-10.1 22.3-11.1zm-22.3 63.2c1.2-1.1 4.4-3.6 10.1-5.5 3.5 8.4 8.7 13.7 12.2 16.6-8.7-1.1-16.5-5.2-22.3-11.1zm31.3 11c2-1.6 4.5-4 6.9-7.3l4.4 2.9 4.2-5.9 2.3 3.2c-5.2 3.9-11.4 6.3-17.8 7.1zm20.3-7.9l-3.3-4.6 4.2-5.9 4.7 6.7-5.6 3.8z"/></g></svg>