<svg version="1.1" id="Layer_1" xmlns="http://www.w3.org/2000/svg" x="0" y="0" viewBox="167 357 80 80" xml:space="preserve"><g class="nc-icon-wrapper"><path fill="#333" d="M225.1 393.1h2.6v2.6h-2.6z"/><path fill="#333" d="M204.4 393.1h18.1v2.6h-18.1z"/><path fill="#333" d="M204.4 388h23.2v2.6h-23.2z"/><path fill="#333" d="M247 359.6h-24.7c-1.6-1.6-3.9-2.6-6.3-2.6s-4.7 1-6.3 2.6H185v18.1h1.3v16.8h2.6v-16.8h54.2V419h-33.5v2.6h36.1v-43.9h1.3v-18.1zm-19.4 7.7v2.6h-3.5c.4-.8.6-1.7.8-2.6h2.7zm-11.6-7.7c3.6 0 6.5 2.9 6.5 6.5 0 1.4-.5 2.8-1.3 3.9H211c-.8-1.1-1.3-2.5-1.3-3.9-.1-3.6 2.8-6.5 6.3-6.5zm-8.9 7.7c.1.9.4 1.8.8 2.6h-3.5v-2.6h2.7zm-19.5-5.1h20.2c-.4.8-.6 1.7-.8 2.6h-5.3v7.7h28.4v-7.7H225c-.1-.9-.4-1.8-.8-2.6h20.2v12.9h-56.8v-12.9z"/><path fill="#333" d="M207 403.5v2.5h33.5v-25.8h-49v14.2h2.6v-11.6H238v20.7z"/><circle fill="#E3C71F" cx="188.9" cy="415.1" r="21.9"/><g><path fill="#333" d="M188.9 430.5c-8.5 0-15.5-6.9-15.5-15.5s6.9-15.5 15.5-15.5 15.5 6.9 15.5 15.5c0 4.1-1.6 8-4.5 10.9l-1.8-1.8c2.4-2.4 3.8-5.7 3.8-9.1 0-7.1-5.8-12.9-12.9-12.9s-12.9 5.8-12.9 12.9 5.8 12.9 12.9 12.9c2.7 0 5.2-.8 7.4-2.3l1.5 2.1c-2.7 1.9-5.8 2.8-9 2.8z"/><path fill="#333" d="M190.2 413.8h-2.6c-.7 0-1.3-.6-1.3-1.3v-1.3c0-.7.6-1.3 1.3-1.3h2.6c.7 0 1.3.6 1.3 1.3h2.6c0-2.1-1.7-3.9-3.9-3.9v-2.6h-2.6v2.6c-2.1 0-3.9 1.7-3.9 3.9v1.3c0 2.1 1.7 3.9 3.9 3.9h2.6c.7 0 1.3.6 1.3 1.3v1.3c0 .7-.6 1.3-1.3 1.3h-2.6c-.7 0-1.3-.6-1.3-1.3h-2.6c0 2.1 1.7 3.9 3.9 3.9v2.6h2.6v-2.6c2.1 0 3.9-1.7 3.9-3.9v-1.3c0-2.2-1.7-3.9-3.9-3.9z"/></g></g></svg>