<svg version="1.1" id="Layer_2" xmlns="http://www.w3.org/2000/svg" x="0" y="0" viewBox="167 357 80 80" xml:space="preserve"><g class="nc-icon-wrapper"><path fill="#333" d="M198 381.5c0 5 4.1 9 9 9s9-4.1 9-9c0-5-4.1-9-9-9s-9 4-9 9zm7.7-6.3v5h-5c.5-2.5 2.5-4.5 5-5zm-5 7.6h5v5c-2.5-.5-4.5-2.5-5-5zm7.6 5v-5h5c-.5 2.5-2.5 4.5-5 5zm5-7.6h-5v-5c2.5.5 4.5 2.5 5 5z"/><path fill="#333" d="M245.7 391.3l-6.4-6.5V357h-18.1v9.4l-6.5-6.6c-2.1-1.8-4.9-2.8-7.7-2.8s-5.5 1-7.7 2.9l-31 31.4c-.8.8-1.3 2-1.3 3.2 0 1.9 1.1 3.4 2.8 4.1.6.2 1.2.4 1.7.4.7 0 1.3-.2 1.9-.5V437H240.6v-38.5c1.1.6 2.4.6 3.7.1 1.7-.7 2.8-2.3 2.8-4.1-.1-1.2-.6-2.4-1.4-3.2zm-21.9-26.6h7.7v-2.6h-7.7v-2.6h12.9v2.6h-2.6v2.6h2.6v17.4L223.8 369v-4.3zM186 427.1c-.1-.1-.2-.3-.3-.4h8.3l3.1 2.6h-8.6c-.9-.7-1.7-1.4-2.5-2.2zm-1-7.9l5.9 4.9h-6.6c-.4-1.6-.2-3.4.7-4.9zm40.8 10.1h-8.6l3.1-2.6h8.3c-.1.1-.2.3-.3.4-.8.8-1.6 1.5-2.5 2.2zm-11.8 2.5h7.6c-3.3 1.6-6.9 2.5-10.7 2.6l3.1-2.6zm16-7.7h-6.6l5.9-4.9c.9 1.5 1.1 3.3.7 4.9zm-8.5-1.8v-5.9c.8-.3 1.6-.4 2.4-.4 1.4 0 2.6.5 3.7 1.3l-6.1 5zm-2.6 2.2l-3.9 3.2v-5.6l3.9-3.9v6.3zm-6.4 5.3l-3.6 3c.5-2.9 1.7-5.7 3.6-8v5zm-10.7 0v-5c1.9 2.3 3.1 5.1 3.6 8l-3.6-3zm-2.5-2.1l-3.9-3.2v-6.3l3.9 3.9v5.6zm-6.5-5.4l-6.1-5c1.1-.8 2.3-1.2 3.7-1.3h.2c.8 0 1.5.2 2.2.4v5.9zm7.5 9.5l3.1 2.6c-3.8-.1-7.4-.9-10.7-2.6h7.6zm37.7 2.6h-15.8c1.5-.7 3-1.6 4.4-2.6 1.2-.9 2.4-1.8 3.5-2.9 3.4-3.4 3.5-8.8.4-12.4-1.7-1.9-4-3-6.5-3-2.5-.1-4.9.9-6.7 2.6l-5.5 5.5c-1.5 1.5-2.7 3.1-3.6 4.9v-6.2h-2.6v5.7c-.9-1.6-2-3-3.3-4.3l-5.5-5.5c-1.8-1.8-4.2-2.7-6.7-2.6-2.5.1-4.8 1.2-6.5 3-3.2 3.6-3 9 .4 12.4 1.1 1.1 2.3 2 3.5 2.9 1.4 1 2.9 1.9 4.4 2.6H176v-38.2l29.4-29.8c.9-.6 2.2-.6 3.1 0l29.4 29.8v38.1zm5.2-38.2c-.7.3-1.5.2-2.1-.4l-1-1-29.9-30.3-.2-.2c-1.9-1.1-4.3-1.1-6.1.1l-30.1 30.4-1 1c-.6.6-1.3.7-2.1.4-.7-.3-1.2-1-1.2-1.8 0-.5.2-1 .5-1.3l30.9-31.3c1.7-1.4 3.8-2.2 6-2.2s4.3.8 5.9 2.1l31 31.4c.4.4.5.8.5 1.3.1.8-.3 1.5-1.1 1.8z"/><path fill="#E3C71F" d="M207 422.1l-12.7-12.7c-1.8-1.8-2.8-4.2-2.8-6.7 0-5.2 4.3-9.5 9.5-9.5 2.2 0 4.3.7 6 2.1 1.7-1.4 3.8-2.1 6-2.1 5.2 0 9.5 4.3 9.5 9.5 0 2.5-1 4.9-2.8 6.7L207 422.1z"/></g></svg>