<svg version="1.1" id="Layer_1" xmlns="http://www.w3.org/2000/svg" x="0" y="0" viewBox="0 0 121 37" xml:space="preserve"><g class="nc-icon-wrapper" fill="#e74a30"><path d="M64.6.1c-.8-.1-3.2-.1-3.9.1-.1 0-.2.2-.2.3-.2 8.1-.1 26.9 0 27.2 0 .4.2.5.6.5h3.4c.3 0 .5-.2.5-.5.2-4.2.1-24.2 0-27.3-.1-.2-.2-.3-.4-.3zM51.5 16.2c-2.1-.4-3.8-.8-3.7-2.1 0-.2 0-.4.1-.6.4-.9 1.4-1.4 2.6-1.4h1.1c1.4.1 2.9 1 3.8 1.4.3.1.7.2.9-.2l1.1-2.2c.2-.6-.1-.9-.3-1.1-1.3-.9-3.7-1.9-6.6-1.9-4.8 0-7.4 2.6-7.4 6.2 0 3.8 3 5.1 6.7 5.8 2.3.4 3.8 1.1 3.8 2.1 0 1.2-1.1 1.9-2.9 2h-.5c-2-.1-3.8-1.2-4.9-1.9-.3-.2-.9-.1-1.1.2-.4.5-.9 1.4-1.2 2.2-.3.6.2 1.1.3 1.2 1.3 1.2 3.8 2.3 7.2 2.4 5.2.1 7.9-3 7.9-6.4-.2-3.9-3.1-5-6.9-5.7zm69.4 10.9c-.6-.9-2-3.3-3.6-5.4-1.4-2-2.9-3.7-3.4-4.4-.1-.2-.1-.3 0-.5.9-.9 4.7-4.7 6.2-6.3.6-.6.2-.9-.3-1-.9-.3-2.4-.6-3.2-.8-.4-.1-.8 0-1.1.3-1.4 1.4-5.8 5.9-7.1 7.2-.2.2-.4.2-.4-.2 0-2.6-.1-13.7-.2-15.5 0-.2-.3-.4-.5-.4-.8 0-2.9-.1-3.7 0-.2 0-.4.3-.5.5-.2 2.9.1 24.3.2 27.3 0 .2.2.4.4.4h3.8c.5 0 .5-.3.5-.3l.1-5.7s0-.3.1-.3c.3-.4 1.3-1.4 1.6-1.8.1-.1.2-.1.3 0 .5.6 1.8 2.7 3 4.6 1.1 1.7 2.2 3.2 2.3 3.3.2.2.4.3.5.3.3 0 3.5-.5 4.5-.7.6-.2.7-.4.5-.6zM95.2 12.9c1.6 0 3.2.7 4 1.3.3.2.6.5.8.2.6-.7 1.4-2.1 1.7-2.7.1-.2.1-.4 0-.5-.5-.8-3.2-2.5-6.9-2.5-6 0-9.6 4.6-9.6 10s3.2 10.1 9.7 10c3.1 0 5.4-1.3 6.6-2.9.1-.1.3-.5 0-.8-.4-.6-1.3-1.5-1.8-2.1-.3-.2-.5-.3-.8-.1-.8.7-2.3 1.6-3.8 1.6-2.9-.1-5-2-5-5.6.1-3.9 2.3-5.9 5.1-5.9zM75.5 8.6c-3.9-.1-6.3 1.6-7.5 2.8-.2.1-.3.4-.2.7.1.3 1.2 2 1.7 2.6.1.1.4.2.6.1.8-.5 2.6-1.7 4.2-1.8h1.2c1.9.2 2.9 1.2 3.1 2.3.1.4.1 1.4.1 1.9 0 .1-.2.2-.3.2-1.6-.7-3.7-.9-5.6-.6-2.9.4-5.6 2.4-5.6 6.2 0 3.8 3.2 5.7 6.3 5.7 2.1 0 4-.6 5.2-1.9 0-.1.2-.1.2.1v1c0 .2.1.5.5.5h3.7c.3 0 .4-.2.4-.4 0-1.7.2-8.4.1-10.8-.3-6.1-3-8.5-8.1-8.6zm3 14.4c-.6 1-1.9 1.8-3.7 2-1.8.1-3.2-.7-3.2-2.4.1-2.1 2.5-2.8 5.1-2.9.7 0 1.1.1 1.7.3.1 0 .4.3.4.4 0 .7-.1 2.2-.3 2.6zm-42.9-3.3c-.4-1.3-1.6-2.1-3-2.1-.3 0-.7.1-1 .2L28.1 19l-2.3-6.9c3.3-1.2 3.4-1.2 3.4-1.2 1.4-.5 2.6-2 2.1-3.7v-.1c-.4-1.3-1.6-2.1-3-2.1-.3 0-.6 0-.9.1L24 6.4l-1.2-3.5c-.2-.8-.8-1.5-1.6-1.9-.4-.2-.9-.3-1.4-.3-.3 0-.7.1-1 .2-1.6.5-2.5 2.2-2 3.9v.1L18 8.4l-6.7 2.3-1.1-3.5C9.8 5.9 8.6 5 7.3 5c-.3 0-.7.1-1 .2-1.6.6-2.5 2.4-1.9 4l1.1 3.5-3.4 1.2c-1.6.5-2.5 2.2-2 3.9v.1C.5 19.2 1.6 20 3 20c.3 0 .7-.1 1-.2 1.2-.4 2.3-.8 3.4-1.2l2.2 6.8-3.4 1.2c-1.6.5-2.5 2.3-2 3.9v.1c.4 1.2 1.5 2 2.9 2 .4 0 .7-.1 1.1-.2l3.3-1.1 1.2 3.5c.4 1.3 1.6 2.2 3 2.2.3 0 .7-.1 1-.2 1.6-.6 2.5-2.4 1.9-4l-1.2-3.6 6.7-2.3 1.2 3.6c.4 1.3 1.6 2.2 3 2.2.3 0 .7-.1 1-.2 1.6-.5 2.5-2.2 2-3.9v-.1l-1.2-3.6 3.7-1.3s1.1-.5 1.5-1.1c.5-.8.6-1.8.4-2.6l-.1-.2zm-20 3.7l-2.3-6.8c2.6-.9 4.8-1.7 6.6-2.3l2.3 6.9-6.6 2.2zm.2 13.6z"/></g></svg>