<svg version="1.1" id="Layer_1" xmlns="http://www.w3.org/2000/svg" x="0" y="0" viewBox="0 0 120 39" xml:space="preserve"><g class="nc-icon-wrapper" fill="#e74a30"><path d="M29 13.7H16.2c-.5 0-.6.2-.6.6 0 .8.1 1.7 0 2.5-.1.9.3 1.1 1.1 1.1 2.6-.1 5.3 0 7.9 0 .8 0 .9.2.8.9-.5 2.4-1.7 4.2-3.7 5.5-6.2 4.1-15.7 1-16.9-7.6-.6-4.4.9-8.1 4.7-10.7 3.7-2.5 7.7-2.6 11.7-.4.7.4 1.3 1.4 2 1.3.7-.2 1.3-1.1 1.9-1.7 1-1 1-1-.1-1.9-8.8-7-22.5-1.9-24.6 9-.1.5 0 1-.4 1.5v2.7c.3.1.2.3.2.5.2 1.6.7 3.1 1.3 4.5 3 6.3 10.2 9.9 17.1 8.5 7.2-1.4 11.9-7.2 11.1-15.5 0-.4-.1-.8-.7-.8zM99.7 1.4c-.6-.7-2-.1-3-.2-.9-.1-1.1.2-1.1 1.1v24.2c0 1-.4 2.4.2 3 .6.7 2.1.1 3.1.2.8.1 1-.2 1-1V15.4 4.3c0-1 .3-2.4-.2-2.9zm7.8 21.7c.8-.3 1.6-.6 2.3-.9 3.4-1.4 6.8-2.7 10.1-4.1v-.2c-.5-.5-.5-1.1-.8-1.7-1.6-3.2-3.9-5.3-7.6-5.5-5.1-.2-8.9 3.1-9.7 8.3-.6 4.2 1.7 8.5 5.5 10.3 4.1 1.8 8.9.7 11.7-2.6.5-.6.7-1-.2-1.4-.6-.3-1.1-.6-1.6-1-.6-.5-1-.6-1.7.2-2.4 2.7-6.6 2.5-8.5-.3-.1-.5-.2-.8.5-1.1zm-1-3.1c-.1 0-.2 0-.4.1 0-3.7 3.4-6.4 6.6-5.3.2.1.3.1.5.2.7.3 1.5.7 1.5 1.5 0 .6-.9.6-1.4.8-2.3.9-4.5 1.8-6.8 2.7zm-16.2-8.6c-1 0-1.8 0-1.4 1.4h-.3c-.1-.1-.2-.2-.3-.2-1.8-1.6-4-2.1-6.3-1.6-4.1.9-6.7 3.5-7.6 7.5-.9 4 .7 7.9 4 10.2 3.1 2.1 7.3 2.4 10.1-.3.1-.1.2 0 .3-.1.1.8 0 1.6-.1 2.4-.3 2-1.2 3.6-3.3 4.2-2.2.6-4.1.2-5.7-1.4-.5-.5-.6-1.6-1.4-1.6-.7 0-1.4.5-2.1.8-.3.1-.5.2-.8.3-.5.2-.5.4-.3.8 3.4 6.7 12 6.2 15.4 2.4 1.8-2 2.4-4.4 2.4-7V13.9c.1-2.5.1-2.5-2.6-2.5zm-8.2 14.7c-2.4-.8-4-3.5-3.7-6 .3-3 2.2-5.1 4.9-5.5 2.9-.4 5.5 2.1 5.8 5.3v.6c.1 4.2-3.4 6.9-7 5.6zM62.6 10.8c-5.6 0-9.9 4.2-9.9 9.7-.1 5.4 4.3 9.8 9.8 9.8 5.5 0 9.9-4.2 9.9-9.7 0-5.5-4.3-9.8-9.8-9.8zm.2 15.6c-3 .1-5.5-2.2-5.7-5.2-.2-3.5 1.8-6.2 5-6.6 3.2-.3 6 2.4 6 5.9 0 3.2-2.3 5.7-5.3 5.9zM40.9 10.8c-5.6 0-9.8 4.3-9.8 9.8 0 5.5 4.3 9.7 9.8 9.7 5.5 0 9.8-4.3 9.8-9.8.1-5.6-4.2-9.7-9.8-9.7zm.1 15.6c-3.1 0-5.5-2.6-5.5-5.9 0-3.3 2.4-5.9 5.6-5.9 3.1 0 5.5 2.6 5.5 6-.1 3.3-2.5 5.8-5.6 5.8z"/></g></svg>