<svg version="1.1" id="Layer_1" xmlns="http://www.w3.org/2000/svg" x="0" y="0" viewBox="0 0 131 35" xml:space="preserve"><g class="nc-icon-wrapper" fill="#e74a30"><path d="M58.3 12.8H52s-4.3 6-4.7 6.7V6.4h-5.2v22.9h5.2v-5.1l1.3-1.7 4.1 6.8h6.4l-6.9-9.8 6.1-6.7zm-24.3.3c-2.8 0-4 1.5-4.7 2.6v-2.2h-5.2c.1 1.5 0 15.8 0 15.8h5.2v-8.8c0-.5 0-.9.2-1.3.4-.9 1.2-1.9 2.7-1.9 1.9 0 2.6 1.4 2.6 3.6v8.5H40v-9.1c0-4.9-2.6-7.2-6-7.2zM5.2 6.4H0v22.9h14.4v-4.8H5.2V6.4zm13.9-.5c-1.8 0-2.9 1.2-2.9 2.7 0 1.5 1.1 2.7 2.9 2.7 1.8 0 2.9-1.2 2.9-2.7 0-1.5-1.1-2.7-2.9-2.7zm-2.6 23.4h5.2V13.5h-5.2v15.8zM91.3 6.4h-5.2v7.9H86c-.8-1.1-2.3-1.9-4.4-1.9-4 0-7.5 3.2-7.5 8.8 0 5.1 3.2 8.5 7.2 8.5 2.2 0 4.2-.9 5.2-2.8h.1l.2 2.4h4.6c-.1-1.1-.1-3-.1-4.9v-18zM86.1 22c0 .4 0 .8-.1 1.1-.3 1.5-1.5 2.5-3 2.5-2.2 0-3.6-1.8-3.6-4.5 0-2.6 1.2-4.7 3.6-4.7 1.6 0 2.7 1.1 3 2.5.1.3.1.6.1.9V22zm-20.3-9.6c-5.8 0-8.5 4.6-8.5 8.8 0 5.2 3.3 8.4 8.9 8.4 2.3 0 4.4-.3 6.1-1l-.7-3.5c-1.4.5-2.8.7-4.6.7-2.4 0-4.6-1-4.7-3.2h10.8c.1-.4.2-1.2.2-2.1-.1-3.9-2.1-8.1-7.5-8.1zm-3.6 6.8c.1-1.3 1-3.3 3.3-3.3 2.4 0 2.9 2.1 2.9 3.3h-6.2zM128.5 0H99.1c-1.4 0-2.5 1.1-2.5 2.5v30c0 1.4 1.1 2.5 2.5 2.5h29.4c1.4 0 2.5-1.1 2.5-2.5v-30c0-1.4-1.1-2.5-2.5-2.5zM107 29.3h-5.2V13.5h5.2v15.8zm-2.6-18c-1.8 0-2.9-1.2-2.9-2.7 0-1.6 1.2-2.7 2.9-2.7 1.8 0 2.9 1.2 2.9 2.7 0 1.5-1.1 2.7-2.9 2.7zm21.4 18h-5.2v-8.5c0-2.1-.8-3.6-2.6-3.6-1.4 0-2.3 1-2.7 1.9-.1.3-.2.8-.2 1.3v8.8h-5.2s.1-14.3 0-15.8h5.2v2.2c.7-1.1 1.9-2.6 4.7-2.6 3.4 0 6 2.3 6 7.1v9.2z"/></g></svg>