<svg version="1.1" id="Layer_1" xmlns="http://www.w3.org/2000/svg" x="0" y="0" viewBox="0 0 114 34" xml:space="preserve"><g class="nc-icon-wrapper" fill="#e74a30"><path d="M65.5 23.7h6l2.3-9.5c.4-1.3.7-2.2 1.3-2.7 1.2-1.1 4.5-.9 4.5-.9L81 5.2c-2.1 0-5.3 0-7.3.5-1.2.3-2.4 1.2-3.1 1.9-1.3 1.3-2 4-2 4l-3.1 12.1zM13.4 10.1h22c1.3 0 2.3.5 2.8 1.2.6.8 1.2 2 .2 4.2-1 2.4-2.8 3.1-4.7 3.1h-3.9l1.6-6.6h-6.1l-5.4 22h6l2.5-10.3h4c1.8 0 3.8-.2 5.8-1.2 2.1-1.1 3.5-2.8 4.4-4.4.8-1.5 1.4-3.9 1.5-5.2.1-1.2.3-3.1-1.2-5-.6-.9-2.1-1.9-3.5-2.3-1.6-.4-3.8-.4-3.8-.4h-23c-3.5 0-5.4 1.2-6.5 2.3-1.1 1.1-1.7 2.7-1.7 4 0 1.3.4 2.6 1.1 3.5.7.7 1.9 1.6 4.2 1.7h4s.6 0 .9.1c.3.1.5.5.5.8-.1.4-.2 1-1.7 1H1.9l-1.9 5h13.7c1.8 0 5.2-.4 6.8-2.9.6-1 1.1-2.8 1.1-4.1 0-1.4-.5-2.3-.7-2.7-.4-.6-1.1-1.3-2.5-1.8-.8-.1-2.4-.2-2.4-.2h-3.8c-.7 0-1.3-.2-1.2-.9 0-.4.4-.7.8-.9.3-.1 1.6 0 1.6 0zm43.5-1c-1.5 0-2.8.6-4.1 1.8-1.2 1.1-1.8 2.9-2 4.4-.1 1 .2 2.3.9 3.1.6.8 1.9 1.4 3.2 1.4 1.9 0 3.2-.6 4.2-1.7 1.2-1.3 2-3.2 2-5 0-1-.2-1.9-1.1-2.8-.9-1-2.1-1.2-3.1-1.2l.8-4.4c2.5 0 5.2.6 7 2.3 1.8 1.6 2.1 3.8 2.1 5.6 0 2.2-.8 5.3-3.7 8.3-2.5 2.6-6.8 3.6-9.8 3.5-3-.1-5.2-1.1-6.8-2.7-1.4-1.4-1.9-3.1-1.9-5.2 0-1.9.6-4.3 2.4-6.7 2.2-2.8 6.3-5 10.7-5.1l-.8 4.4zm27-9.1H90l-1.3 5.3h4.6L92 10.5h-4.6L86 16.3c-.2 1.2 0 1.8.7 2.2.3.2 1.2.2 1.2.2H101c1.5 0 2.5-.2 2.6-1.1 0-1-1.2-.9-1.2-.9h-3.7c-2-.1-3.6-.6-4.4-1.4-.7-.7-1.3-1.7-1.2-3.7.1-2.3 1.3-3.9 1.8-4.4.5-.5 2.5-1.9 5.4-1.9H114l-1.9 4.8h-11.2c-.7 0-1.1.1-1.3.4-.2.3-.3.7-.2 1 .1.3.5.4 1.4.5h3.5c1.8.1 3.3.4 4.1 1.1.8.7 1.6 1.5 1.6 3.7 0 2.5-1.3 4.1-2.1 5-1.1 1.1-2.5 1.8-7 2H84.8c-1.8 0-3.2 0-4.5-1.4-1.3-1.5-.9-3.4-.8-4.4l4.4-18z"/></g></svg>