<svg version="1.1" id="Layer_1" xmlns="http://www.w3.org/2000/svg" x="0" y="0" viewBox="0 0 148 38" xml:space="preserve"><g class="nc-icon-wrapper" fill="#e74a30"><path d="M88.3 25.9v-6c0-.7-.2-1.3-.5-1.7-.3-.4-.7-.7-1.2-1-.5-.2-1-.4-1.6-.5-.6-.1-1.2-.1-1.8-.1-.6 0-1.3.1-1.9.2-.6.1-1.2.3-1.7.6s-.9.7-1.2 1.2c-.3.5-.5 1.1-.6 1.8H81c.1-.6.3-1.1.6-1.3.4-.3.8-.4 1.5-.4.3 0 .5 0 .8.1.2 0 .5.1.7.2.2.1.3.3.4.5.1.2.2.5.2.8 0 .3-.1.6-.3.7-.2.2-.5.3-.9.4-.4.1-.8.2-1.2.2-.5 0-.9.1-1.4.2-.5.1-.9.2-1.4.3-.5.1-.9.3-1.2.6-.4.3-.7.6-.9 1-.2.4-.3 1-.3 1.6 0 .6.1 1.1.3 1.5.2.4.5.8.8 1.1.4.3.8.5 1.2.6.5.1 1 .2 1.5.2.7 0 1.4-.1 2.1-.3.7-.2 1.3-.6 1.8-1.1 0 .2 0 .4.1.6 0 .2.1.4.1.5h3.2c-.1-.2-.3-.6-.3-1.1 0-.4-.1-.9-.1-1.4zM85.2 24c0 .2 0 .4-.1.7 0 .3-.1.6-.3.9-.2.3-.4.5-.8.7-.3.2-.8.3-1.4.3-.2 0-.5 0-.7-.1-.2 0-.4-.1-.6-.2-.2-.1-.3-.3-.4-.5-.1-.2-.2-.4-.2-.7 0-.3.1-.5.2-.7.1-.2.2-.3.4-.5l.6-.3c.2-.1.5-.1.7-.2.3 0 .5-.1.8-.1.3 0 .5-.1.7-.1.2 0 .4-.1.7-.2.2-.1.4-.2.5-.3V24zm-9.9-6c-.3-.4-.7-.7-1.3-1-.5-.2-1.2-.3-2.1-.3-.6 0-1.2.2-1.8.5-.6.3-1.1.8-1.5 1.5h-.1v-6h-3.2v15.9h3.2v-6c0-1.2.2-2 .6-2.5.4-.5 1-.8 1.9-.8.8 0 1.3.2 1.6.7.2.3.4 1 .4 2v6.5h3.2v-7.1c0-.7-.1-1.4-.2-1.9-.2-.6-.4-1.1-.7-1.5zm-16.7 5.5l-2.8-10.9h-3.3l-2.8 10.8-2.5-10.8h-3.5l4.2 15.8h3.5L54 17.6l2.7 10.8h3.5l1.9-7 2.4-8.8h-3.4l-2.5 10.9zm35.7-10h-3.2V17h-1.9v2.1h1.9v6.8c0 .6.1 1 .3 1.4.2.4.5.6.8.8.3.2.7.3 1.2.4.5.1.9.1 1.4.1h1c.3 0 .6 0 .9-.1V26c-.2 0-.3.1-.5.1h-.5c-.5 0-.9-.1-1.1-.3-.2-.2-.3-.5-.3-1.1V19h2.3v-2h-2.3v-3.5zm53.4 7c-.2-.7-.5-1.4-1-2-.4-.6-1-1-1.6-1.4-.7-.3-1.4-.5-2.3-.5-.7 0-1.4.1-2 .4-.6.3-1.1.7-1.5 1.4V17h-3v15.5h3.2V27c.4.5.9 1 1.5 1.3.6.3 1.3.4 2 .4.8 0 1.6-.2 2.2-.5.6-.3 1.2-.8 1.6-1.3.4-.5.7-1.2.9-1.9.2-.7.3-1.5.3-2.2 0-.8-.1-1.6-.3-2.3zm-3 3.6c-.1.4-.2.8-.5 1.2-.2.3-.5.6-.9.8-.3.2-.8.3-1.3.3s-.9-.1-1.3-.3c-.3-.2-.6-.5-.9-.8-.2-.3-.4-.7-.5-1.2-.1-.4-.1-.9-.1-1.4 0-.5 0-.9.1-1.4.1-.4.2-.8.5-1.2.2-.3.5-.6.9-.8.3-.2.8-.3 1.3-.3s.9.1 1.3.3c.3.2.6.5.9.8.2.3.4.7.5 1.2.1.4.1.9.1 1.4 0 .5 0 1-.1 1.4zm-10.6-5.6c-.4-.5-1-1-1.6-1.3-.7-.3-1.4-.5-2.3-.5-.7 0-1.4.1-2 .4-.6.3-1.1.7-1.5 1.4V17h-3v15.5h3.2V27c.4.5.9 1 1.5 1.3.6.3 1.3.4 2 .4.9 0 1.6-.2 2.2-.5.6-.3 1.2-.8 1.6-1.3.4-.5.7-1.2 1-1.9.2-.7.3-1.5.3-2.2 0-.8-.1-1.6-.3-2.3-.3-.8-.7-1.4-1.1-2zm-2 5.6c-.1.4-.2.8-.5 1.2-.2.3-.5.6-.9.8-.3.2-.8.3-1.3.3s-.9-.1-1.3-.3c-.3-.2-.6-.5-.9-.8-.2-.3-.4-.7-.5-1.2-.1-.4-.1-.9-.1-1.4 0-.5 0-.9.1-1.4.1-.4.2-.8.5-1.2.2-.3.5-.6.9-.8.3-.2.8-.3 1.3-.3s.9.1 1.3.3c.3.2.6.5.9.8.2.3.4.7.5 1.2.1.4.1.9.1 1.4 0 .5 0 1-.1 1.4zm-24.8-.7zm6.3-10.8l-6 15.8h3.5l1.2-3.5h6l1.2 3.5h3.6l-6-15.8h-3.5zm-.3 9.7l2.1-5.8 2 5.8h-4.1zm-6 1.1c-.2-.4-.5-.7-.8-.9-.3-.2-.7-.4-1.2-.6-.4-.1-.9-.3-1.3-.4-.4-.1-.9-.2-1.3-.3-.4-.1-.8-.2-1.1-.3-.3-.1-.6-.3-.8-.4-.2-.2-.3-.4-.3-.7 0-.2.1-.4.2-.6.1-.1.3-.2.4-.3.2-.1.4-.1.6-.1h.6c.6 0 1.1.1 1.5.3.4.2.7.6.7 1.2h3c-.1-.7-.2-1.3-.5-1.8s-.7-.8-1.1-1.1c-.5-.3-1-.5-1.6-.6-.6-.1-1.2-.2-1.8-.2-.6 0-1.2.1-1.8.2-.6.1-1.1.3-1.6.6s-.9.6-1.1 1.1c-.3.5-.4 1.1-.4 1.8 0 .5.1.9.3 1.3.2.3.5.6.8.9.3.2.7.4 1.2.6.4.1.9.3 1.3.4 1.1.2 2 .5 2.6.7.6.2.9.6.9 1.1 0 .3-.1.5-.2.7-.1.2-.3.3-.5.4-.2.1-.4.2-.7.2-.2.1-.5.1-.7.1-.3 0-.6 0-.9-.1-.3-.1-.5-.2-.8-.3-.2-.2-.4-.4-.5-.6-.1-.2-.2-.5-.2-.9h-3c0 .8.2 1.4.5 1.9s.7.9 1.2 1.2c.5.3 1.1.5 1.7.7.6.1 1.3.2 2 .2s1.3-.1 1.9-.2c.6-.1 1.2-.3 1.7-.7.5-.3.9-.7 1.2-1.2.3-.5.5-1.1.5-1.9-.3-.6-.4-1-.6-1.4zM19.1 0C8.6 0 0 8.5 0 19c0 4.2 1.3 8 3.6 11.1l-2.4 7.1 7.3-2.3c3 2 6.6 3.1 10.5 3.1 10.5 0 19.1-8.5 19.1-19 .1-10.5-8.5-19-19-19zm11.1 26.8c-.5 1.3-2.3 2.4-3.7 2.7-1 .2-2.3.4-6.7-1.4-5.6-2.3-9.2-8-9.5-8.4-.3-.3-2.3-3-2.3-5.7s1.4-4.1 2-4.6c.5-.5 1.2-.7 2-.7h.6c.6 0 .8.1 1.2.9.5 1.1 1.6 3.8 1.7 4.1.1.3.3.7.1 1-.2.4-.3.5-.6.9-.3.3-.5.6-.8.9-.3.3-.5.6-.2 1.2.3.5 1.4 2.4 3.1 3.8 2.1 1.9 3.9 2.5 4.5 2.7.5.2 1 .1 1.3-.2.4-.5 1-1.2 1.5-2 .4-.5.9-.6 1.4-.4.5.2 3.2 1.5 3.8 1.8.6.3.9.4 1.1.6 0 .4 0 1.5-.5 2.8z"/></g></svg>