<svg xmlns="http://www.w3.org/2000/svg" id="Layer_1" x="0" y="0" viewBox="0 0 48 48" xml:space="preserve"><g class="nc-icon-wrapper" fill="#e74a30"><path d="M17 34.4h-.2c1-1.1 1.7-2.5 1.7-4.1v-4.9-.1-3.4c0-.5-.4-.9-.9-.9h-6.3c-2.6 0-4.8 2.2-4.8 4.8v4.6c0 1.6.6 3.1 1.7 4.1H8c-4.5.3-8 4-8 8.6v4c0 .5.4.9.9.9H24c.5 0 .9-.4.9-.9v-4c0-4.6-3.4-8.3-7.9-8.7zm-8.7-8.8c0-1.6 1.3-2.9 2.9-2.9h5.4v2.2c0 1.1-.9 2-2 2H8.3v-1.3zm0 3.1h6.3c.7 0 1.4-.2 2-.6v2c0 2.3-1.9 4.1-4.1 4.1-2.3 0-4.1-1.9-4.1-4.1v-1.4zm6.2 7.5l-2 2-2-2h4zm8.6 9.9H1.9v-1.9h3.9c.5 0 .9-.4.9-.9s-.4-.9-.9-.9H1.9c.3-3.2 2.8-5.7 5.9-6.1l4 4c.2.2.4.3.7.3.2 0 .5-.1.7-.3l4-4c3.4.4 6 3.3 6 6.8v3zm17-32.5h-.2c1-1.1 1.7-2.5 1.7-4.1v-5-.1V.9c0-.5-.4-.9-.9-.9h-6.3c-2.6 0-4.8 2.2-4.8 4.8v4.6c0 1.6.6 3.1 1.7 4.1h-.2c-4.4.4-7.9 4.1-7.9 8.7v4c0 .5.4.9.9.9h7.5c.5 0 .9-.4.9-.9s-.4-.9-.9-.9H25v-3.1c0-3.5 2.6-6.3 6-6.8l4 4c.2.2.4.3.7.3.2 0 .5-.1.7-.3l4-4c3.4.4 6 3.3 6 6.8v3.1h-6.9c-.5 0-.9.4-.9.9s.4.9.9.9h7.8c.5 0 .9-.4.9-.9v-4c-.2-4.5-3.7-8.2-8.1-8.6zm-4.6 3.8l-2-2h4.1l-2.1 2zm4.2-8c0 2.3-1.9 4.1-4.1 4.1-2.3 0-4.1-1.9-4.1-4.1V7.9h6.3c.7 0 1.4-.2 2-.6v2.1zm0-5.3c0 1.1-.9 2-2 2h-6.3V4.8c0-1.6 1.3-2.9 2.9-2.9h5.4v2.2zm-3.5 22.8c.2-.2.3-.4.3-.7 0-.2-.1-.5-.3-.7-.2-.2-.4-.3-.7-.3-.2 0-.5.1-.7.3-.2.2-.3.4-.3.7 0 .2.1.5.3.7.2.2.4.3.7.3.3 0 .5-.1.7-.3zM4.7 17.6h11.8c1.9 0 3.6-1.2 4.3-2.9h3.6c.4 0 .7-.2.9-.6.1-.4.1-.8-.2-1l-3.9-3.9V4.7C21.1 2.1 19 0 16.5 0H4.7C2.1 0 0 2.1 0 4.7V13c0 2.5 2.1 4.6 4.7 4.6zM1.9 4.7c0-1.6 1.3-2.8 2.8-2.8h11.8c1.6 0 2.8 1.3 2.8 2.8v4.9c0 .2.1.5.3.7l2.6 2.6h-2c-.4 0-.8.3-.9.7-.3 1.3-1.4 2.2-2.7 2.2H4.7c-1.6 0-2.8-1.3-2.8-2.8V4.7zm41.4 25.7H31.5c-1.9 0-3.6 1.2-4.3 2.9h-3.6c-.4 0-.7.2-.9.6-.1.4-.1.8.2 1l3.9 3.9v4.5c0 2.6 2.1 4.7 4.7 4.7h11.8c2.6 0 4.7-2.1 4.7-4.7v-8.2c0-2.6-2.1-4.7-4.7-4.7zm2.8 12.9c0 1.6-1.3 2.8-2.8 2.8H31.5c-1.6 0-2.8-1.3-2.8-2.8v-4.9c0-.2-.1-.5-.3-.7l-2.6-2.6h2c.4 0 .8-.3.9-.7.3-1.3 1.4-2.2 2.7-2.2h11.8c1.6 0 2.8 1.3 2.8 2.8v8.3zm-5.8-6.6l-2.5 2.5-1.1-1.2c-.4-.4-1-.4-1.3 0-.4.4-.4 1 0 1.3l1.8 1.8c.2.2.4.3.7.3s.5-.1.7-.3l3.2-3.2c.4-.4.4-1 0-1.3-.5-.3-1.1-.3-1.5.1zM9.3 7.4c.5 0 .9-.4.9-.9 0-.4.2-.7.4-1 .3-.3.7-.4 1-.4.7 0 1.2.6 1.3 1.3 0 .7-.4 1.3-1.1 1.4-.7.2-1.2.8-1.2 1.5v.5c0 .5.4.9.9.9s.9-.4.9-.9v-.2c1.5-.4 2.4-1.8 2.3-3.3-.1-1.6-1.4-2.9-3-3-.8-.2-1.7.1-2.3.8-.7.6-1 1.5-1 2.4-.1.5.4.9.9.9zm2.3 5.1c-.2 0-.5.1-.7.3-.2.2-.3.4-.3.7 0 .2.1.5.3.7.2.2.4.3.7.3.2 0 .5-.1.7-.3.2-.2.3-.4.3-.7 0-.2-.1-.5-.3-.7-.2-.2-.5-.3-.7-.3zM9.5 42.4c-.2 0-.5.1-.7.3-.2.2-.3.4-.3.7s.1.5.3.7c.2.2.4.3.7.3.2 0 .5-.1.7-.3.2-.2.3-.4.3-.7s-.1-.5-.3-.7c-.2-.2-.4-.3-.7-.3z"></path></g></svg>