<svg xmlns="http://www.w3.org/2000/svg" id="Layer_1" x="0" y="0" viewBox="0 0 80 80" xml:space="preserve"><g class="nc-icon-wrapper"><path fill="#E3C71F" d="M36.1 7.7v16.8h9V31h19.4V7.7H36.1zm0 0"></path><path fill="#E3C71F" d="M27.6 45.9c.5.5.8 1.1.8 1.8 0 1.4-1.2 2.6-2.6 2.6h-.2c-2.3 0-4.6.9-6.2 2.6-3.1-2.4-5.2-6.1-5.2-10.3 0-.4 0-.9.1-1.3h2.3c1.7 0 3.3.9 4.3 2.3l1 1.6h3.9c.7 0 1.4.2 1.8.7zm0 0"></path><path fill="#E3C71F" d="M40 42.6c0 2.3-.6 4.5-1.7 6.3l-4.4-1.5c-1.8-.6-3-2.3-3-4.1v-1c0-1.4-.7-2.8-1.9-3.6-1.2-.8-1.9-2.2-1.9-3.6v-5.4c7.1 0 12.9 5.8 12.9 12.9zm0 0"></path><path fill="#E3C71F" d="M80 5.2H68.4v10.3H80l-5.2-5.2L80 5.2zm0 0"></path><path d="M67.1 49h2.6V0h-40c-3.6 0-6.5 2.9-6.5 6.5v16.8H6.5c-3.6 0-6.5 2.9-6.5 6.5V75c0 2.7 2.3 5 5.2 5h41.3v-2.6h-2.6c-1.4 0-2.6-1.2-2.6-2.6 0-1.4 1.2-2.6 2.6-2.6h2.6V56.8h23.2v-2.6h-2.6c-1.4 0-2.6-1.2-2.6-2.6s1.2-2.6 2.6-2.6zm0-2.5H46.5V23.2h-13V2.6H67v43.9zm-41.3-40c0-2.1 1.7-3.9 3.9-3.9H31v20.6h-5.2V6.5zM6.5 25.8h1.3v43.9H5.2c-.9 0-1.8.3-2.6.7V29.7c0-2.2 1.7-3.9 3.9-3.9zm32.9 51.6H5.2c-1.4 0-2.6-1.2-2.6-2.6 0-1.4 1.2-2.6 2.6-2.6h34.3c-.4.8-.7 1.6-.7 2.6-.1 1 .2 1.9.6 2.6zm-29.1-7.7V25.8h33.5v43.9H10.3zm36.2-15.5V49h16.2c-.4.8-.7 1.6-.7 2.6s.3 1.8.7 2.6H46.5zm0 0"></path><path d="M27.1 28.4c-7.8 0-14.2 6.4-14.2 14.2s6.4 14.2 14.2 14.2 14.2-6.4 14.2-14.2-6.4-14.2-14.2-14.2zm0 25.8c-6.4 0-11.6-5.2-11.6-11.6S20.7 31 27.1 31s11.6 5.2 11.6 11.6-5.2 11.6-11.6 11.6zm0 0"></path><path d="M12.9 59.4h28.4V62H12.9z"></path><path d="M36.1 64.5h5.2v2.6h-5.2z"></path><path d="M12.9 64.5h20.6v2.6H12.9z"></path><path d="M49 33.5h15.5v2.6H49z"></path><path d="M49 38.7h15.5v2.6H49z"></path></g></svg>