<svg xmlns="http://www.w3.org/2000/svg" id="Layer_1" x="0" y="0" viewBox="0 0 80 80" xml:space="preserve"><g class="nc-icon-wrapper"><path fill="#E3C71F" d="M7.7 41.3h64.5v28.4H7.7z"></path><path d="M77.4 72.5V16.8c0-2.1-1.7-3.9-3.9-3.9H54.1C53.5 5.7 47.4 0 40 0c-7.4 0-13.5 5.7-14.1 12.9H6.5c-2.1 0-3.9 1.7-3.9 3.9v55.7C1.1 73 0 74.4 0 76.1V80h80v-3.9c0-1.7-1.1-3.1-2.6-3.6zm-72.2-.2V38.7h69.7v33.5H5.2zm23.2-58.1c0-1.7.4-3.2 1-4.6l2.3 1.3c-.4 1-.7 2.2-.7 3.3 0 1.2.2 2.3.7 3.3l-2.3 1.3c-.7-1.4-1-3-1-4.6zM40 7.7c3.6 0 6.5 2.9 6.5 6.5s-2.9 6.5-6.5 6.5-6.5-2.9-6.5-6.5 2.9-6.5 6.5-6.5zm11.6 6.5c0 1.7-.4 3.2-1 4.6l-2.3-1.3c.4-1 .7-2.2.7-3.3 0-1.2-.2-2.3-.7-3.3l2.3-1.3c.7 1.4 1 2.9 1 4.6zm-10.3 8.9c2.3-.3 4.4-1.6 5.8-3.3l2.2 1.3c-1.9 2.5-4.7 4.3-8 4.7v-2.7zm-8.4-3.3c1.4 1.8 3.5 3 5.8 3.3v2.6c-3.3-.4-6.2-2.1-8-4.7l2.2-1.2zm7.1 8.6c4.4 0 8.3-2 10.9-5.2h5.8V31H23.2v-7.7H29c2.7 3.1 6.6 5.1 11 5.1zm9.3-21.1l-2.2 1.3c-1.4-1.8-3.5-3-5.8-3.3V2.7c3.3.3 6.2 2.1 8 4.6zM38.7 2.7v2.6c-2.3.3-4.4 1.6-5.8 3.3l-2.2-1.3c1.8-2.5 4.7-4.3 8-4.6zM6.5 15.5h19.4c.2 1.8.7 3.6 1.5 5.2h-6.7v12.9h38.7v-13h-6.7c.8-1.6 1.3-3.3 1.5-5.2h19.4c.7 0 1.3.6 1.3 1.3v19.4H5.2V16.8c0-.7.5-1.3 1.3-1.3zm70.9 61.9H2.6v-1.3c0-.7.6-1.3 1.3-1.3h72.3c.7 0 1.3.6 1.3 1.3v1.3zm0 0"></path><path d="M40 51.6c.7 0 1.3.6 1.3 1.3h2.6c0-1.7-1.1-3.1-2.6-3.6v-2.8h-2.6v2.8c-1.5.5-2.6 2-2.6 3.6 0 2.1 1.7 3.9 3.9 3.9.7 0 1.3.6 1.3 1.3s-.6 1.3-1.3 1.3c-.7 0-1.3-.6-1.3-1.3h-2.6c0 1.7 1.1 3.1 2.6 3.6v2.8h2.6v-2.8c1.5-.5 2.6-2 2.6-3.6 0-2.1-1.7-3.9-3.9-3.9-.7 0-1.3-.6-1.3-1.3 0-.7.6-1.3 1.3-1.3zm0 0"></path><path d="M10.3 50.3h2.6v-3.9h3.9v-2.6h-6.5v6.5zm0 0"></path><path d="M12.9 60.6h-2.6v6.5h6.5v-2.6h-3.9v-3.9zm0 0"></path><path d="M67.1 64.5h-3.9v2.6h6.5v-6.5h-2.6v3.9zm0 0"></path><path d="M63.2 43.9v2.6h3.9v3.9h2.6v-6.5h-6.5zm0 0"></path></g></svg>