<svg xmlns="http://www.w3.org/2000/svg" id="Layer_1" x="0" y="0" viewBox="0 0 48 48" xml:space="preserve"><g class="nc-icon-wrapper" fill="#e74a30"><path d="M38.8 37.3c-.5 0-.9.4-.9.9v6.9c0 .5-.4.9-.9.9H2.8c-.5 0-.9-.4-.9-.9V2.8c0-.5.4-.9.9-.9h34.1c.5 0 .9.4.9.9V13c0 .5.4.9.9.9s.9-.4.9-.9V2.8c0-1.6-1.3-2.8-2.8-2.8h-34C1.3 0 0 1.3 0 2.8v42.4C0 46.7 1.3 48 2.8 48h34.1c1.6 0 2.8-1.3 2.8-2.8v-6.9c.1-.5-.4-1-.9-1zM19.9 5.1c-4.8 0-8.6 3.9-8.6 8.6 0 2.5 1 4.7 2.7 6.3l.1.1c1.5 1.4 3.6 2.3 5.8 2.3 2.2 0 4.3-.9 5.8-2.3l.1-.1c1.7-1.6 2.7-3.8 2.7-6.3 0-4.8-3.9-8.6-8.6-8.6zm0 15.3c-1.5 0-2.9-.5-4.1-1.4.8-1.5 2.4-2.4 4.1-2.4 1.7 0 3.3.9 4.1 2.4-1.2.9-2.6 1.4-4.1 1.4zm-1.5-7.1v-.6c0-.8.7-1.5 1.5-1.5s1.5.7 1.5 1.5v.6c0 .8-.7 1.5-1.5 1.5-.9 0-1.5-.7-1.5-1.5zm6.9 4.4c-.7-1-1.6-1.8-2.8-2.3.4-.6.7-1.3.7-2.1v-.6c0-1.9-1.5-3.4-3.4-3.4s-3.4 1.5-3.4 3.4v.6c0 .8.3 1.5.7 2.1-1.1.5-2.1 1.3-2.8 2.3-.8-1.1-1.3-2.5-1.3-4C13 10 16 7 19.8 7c3.7 0 6.8 3 6.8 6.7 0 1.5-.5 2.9-1.3 4zm-.4 23.4h-5.1c-.5 0-.9.4-.9.9s.4.9.9.9h5.1c.5 0 .9-.4.9-.9.1-.5-.3-.9-.9-.9zm0-5.3H11.6c-.5 0-.9.4-.9.9s.4.9.9.9h13.3c.5 0 .9-.4.9-.9.1-.5-.3-.9-.9-.9zm0-5.2H11.6c-.5 0-.9.4-.9.9s.4.9.9.9h13.3c.5 0 .9-.4.9-.9.1-.5-.3-.9-.9-.9zm-16.6-5c-.2-.2-.4-.3-.7-.3-.2 0-.5.1-.7.3-.2.2-.3.4-.3.7 0 .2.1.5.3.7.2.2.4.3.7.3.2 0 .5-.1.7-.3.2-.2.3-.4.3-.7 0-.3-.1-.5-.3-.7zm0 5.2c-.2-.2-.4-.3-.7-.3-.2 0-.5.1-.7.3-.2.2-.3.4-.3.7 0 .2.1.5.3.7.2.2.4.3.7.3.2 0 .5-.1.7-.3.2-.2.3-.4.3-.7 0-.2-.1-.5-.3-.7zm-.7 5c-.2 0-.5.1-.7.3-.2.2-.3.4-.3.7s.1.5.3.7c.2.2.4.3.7.3.2 0 .5-.1.7-.3.2-.2.3-.4.3-.7s-.1-.5-.3-.7c-.2-.2-.4-.3-.7-.3zm17.3-10.5H11.6c-.5 0-.9.4-.9.9s.4.9.9.9h13.3c.5 0 .9-.4.9-.9.1-.5-.3-.9-.9-.9zM46 12.2c-.9-.5-2-.7-3-.4-1 .3-1.9.9-2.4 1.8L28.9 34.1c-.1.1-.1.2-.1.4l-.8 7.4c0 .4.1.7.5.9.1.1.3.1.5.1s.4-.1.6-.2l6-4.4.3-.3 11.8-20.4c.9-1.9.2-4.3-1.7-5.4zM30 40l.4-3.9 2.7 1.6L30 40zm4.5-3.7l-3.6-2.1 9.5-16.4 3.6 2.1-9.5 16.4zm11.3-19.6l-.9 1.6-3.6-2.1.9-1.6c.3-.5.7-.8 1.3-1 .5-.1 1.1-.1 1.6.2.5.3.8.7 1 1.3.1.5 0 1.1-.3 1.6z"></path></g></svg>