<svg xmlns="http://www.w3.org/2000/svg" id="Layer_1" x="0" y="0" viewBox="0 0 80 79.3" xml:space="preserve"><g class="nc-icon-wrapper"><path d="M4.3 71H0V52.4l9-9c1.2-1.2 2.6-2.2 4.1-3 2.2-1.1 4.6-1.7 7.1-1.7h12.1c2.8 0 5.2 2.3 5.2 5.2S35.1 49 32.3 49h-6.5l1.5 2.1c.2.3.6.5 1 .5h6.1l19.4-12.1c.8-.5 1.8-.8 2.8-.8 2.9 0 5.3 2.4 5.3 5.3v.3c0 1.8-.9 3.4-2.4 4.4L40 61.7c-1.5 1-3.2 1.5-5 1.5H16.8c-1.4 0-2.8.5-3.9 1.3L4.3 71zm-1.7-2.6h.9l7.9-5.9c1.6-1.2 3.5-1.8 5.4-1.8h18.3c1.3 0 2.5-.4 3.6-1.1l19.5-13c.8-.5 1.2-1.4 1.2-2.3V44c0-1.5-1.2-2.7-2.7-2.7-.5 0-1 .1-1.4.4l-20 12.5h-6.8c-1.2 0-2.4-.6-3.1-1.5L23 49.5l-4.1 3.1-1.5-2.1 5.5-4.1h9.5c1.4 0 2.6-1.2 2.6-2.6s-1.2-2.6-2.6-2.6H20.2c-2 0-4.1.5-5.9 1.4-1.3.6-2.4 1.5-3.4 2.5l-8.3 8.3v15zm0 0"></path><path fill="#E3C71F" d="M12.9 23.9L1.8 11.5C.6 10.2 0 8.6 0 6.9 0 3.1 3.1 0 6.9 0h.5c1.4 0 2.7.4 3.8 1.2l1.7 1.2 1.7-1.2C15.8.4 17.1 0 18.5 0h.5c3.8 0 6.9 3.1 6.9 6.9 0 1.7-.6 3.3-1.8 4.6L12.9 23.9zm0 0"></path><path fill="#E3C71F" d="M67.1 79.3L56 67c-1.1-1.3-1.8-2.9-1.8-4.6 0-3.8 3.1-6.9 6.9-6.9h.5c1.4 0 2.7.4 3.8 1.2l1.7 1.2 1.7-1.2c1.1-.8 2.5-1.2 3.8-1.2h.5c3.8 0 6.9 3.1 6.9 6.9 0 1.7-.6 3.3-1.8 4.6L67.1 79.3zm0 0"></path><path d="M36.1 69.7h2.6v2.6h-2.6z"></path><path d="M36.1 74.8h2.6v2.6h-2.6z"></path><path d="M38.7 72.3h2.6v2.6h-2.6z"></path><path d="M33.5 72.3h2.6v2.6h-2.6z"></path><path d="M5.2 29.7h2.6v2.6H5.2z"></path><path d="M5.2 34.8h2.6v2.6H5.2z"></path><path d="M7.7 32.3h2.6v2.6H7.7z"></path><path d="M2.6 32.3h2.6v2.6H2.6z"></path><path d="M69.7 40h2.6v2.6h-2.6z"></path><path d="M69.7 45.2h2.6v2.6h-2.6z"></path><path d="M72.3 42.6h2.6v2.6h-2.6z"></path><path d="M67.1 42.6h2.6v2.6h-2.6z"></path><path d="M59.4 0H62v2.6h-2.6z"></path><path d="M59.4 5.2H62v2.6h-2.6z"></path><path d="M61.9 2.6h2.6v2.6h-2.6z"></path><path d="M56.8 2.6h2.6v2.6h-2.6z"></path><path d="M15.5 67.1h2.6v2.6h-2.6z"></path><path d="M15.5 72.3h2.6v2.6h-2.6z"></path><path d="M18.1 69.7h2.6v2.6h-2.6z"></path><path d="M12.9 69.7h2.6v2.6h-2.6z"></path><path d="M59.8 36.1H47.7c-2.8 0-5.2-2.3-5.2-5.2s2.3-5.2 5.2-5.2h6.5l-1.5-2.1c-.2-.3-.6-.5-1-.5h-6.1L26.2 35.3c-.8.5-1.8.8-2.8.8-2.9 0-5.3-2.4-5.3-5.3v-.3c0-1.8.9-3.4 2.4-4.4l19.5-13c1.5-1 3.2-1.5 5-1.5h18.3c1.4 0 2.8-.5 3.9-1.3l8.6-6.5H80v18.6l-9 9c-1.2 1.2-2.6 2.2-4.1 3-2.2 1.2-4.7 1.7-7.1 1.7zm-12.1-7.7c-1.4 0-2.6 1.2-2.6 2.6 0 1.4 1.2 2.6 2.6 2.6h12.1c2 0 4.1-.5 5.9-1.4 1.3-.6 2.4-1.5 3.4-2.5l8.3-8.3V6.5h-.9l-7.9 5.9c-1.6 1.2-3.5 1.8-5.4 1.8H44.9c-1.3 0-2.5.4-3.6 1.1l-19.5 13c-.8.5-1.2 1.4-1.2 2.3v.3c0 1.5 1.2 2.7 2.7 2.7.5 0 1-.1 1.4-.4l20-12.5h6.8c1.2 0 2.4.6 3.1 1.5l2.3 3.1 4.1-3.1 1.5 2.1-5.5 4.1h-9.3zm0 0"></path></g></svg>