<svg version="1.1" id="Layer_1" xmlns="http://www.w3.org/2000/svg" x="0" y="0" viewBox="0 0 144.3 29.2" xml:space="preserve"><g class="nc-icon-wrapper"><path fill="#FFF" d="M43.6.2c-.1 0-.3 0-.4-.1-.1 0-.2 0-.3-.1h-1.2c-1 0-1.9.1-2.7.4-.8.3-1.5.7-2 1.4-.6.5-1 1.3-1.2 2.2-.2.9-.4 1.9-.4 3v3.6h-2.8v4.7h2.8v12.9h5.2V15.3h3.9v-4.7h-3.9V7.5c0-.6 0-1.1.1-1.5.1-.4.2-.7.3-.8.1-.2.2-.3.5-.4.2-.1.5-.1.8-.1h.4l.4.1c.2.1.3.1.4.1l.4.2 1.1.6V.5l-.5-.1c-.3-.1-.6-.1-.9-.2zM60 20.4c0 .7-.1 1.3-.2 1.8-.1.4-.3.8-.6 1.1-.2.3-.6.4-1 .6-.4.2-1 .2-1.7.2s-1.2-.1-1.7-.2c-.4-.1-.7-.3-1-.6-.3-.3-.4-.6-.6-1.1-.1-.5-.2-1.1-.2-1.8v-9.8h-5v8.7c0 1.6.2 3 .5 4.2.3 1.3.9 2.3 1.5 3 .7.8 1.6 1.4 2.7 1.7 1.1.4 2.4.6 3.8.6s2.7-.2 3.8-.6c1.1-.4 2-1 2.7-1.8.7-.8 1.2-1.8 1.5-3 .3-1.2.5-2.6.5-4.2v-8.7h-5v9.9zm25.1-6c-.1-.4-.2-.7-.3-.9-.1-.3-.3-.6-.4-.8-.3-.4-.6-.8-1-1.1-.4-.3-.8-.6-1.3-.8-.5-.2-1-.4-1.6-.5-.6-.1-1.2-.2-1.8-.2-.7 0-1.4.1-2.1.2-.7.2-1.3.4-1.9.6-.5.3-1 .6-1.5 1.1v-1.4h-4.9v17.6h5.2v-8.1-1.7c0-.5.1-.8.1-1.1 0-.2.1-.5.2-.7.1-.2.2-.4.3-.5.2-.2.4-.5.5-.6.2-.2.5-.3.8-.5l.9-.3c.3-.1.7-.1 1.1-.1.6 0 1 .1 1.4.2.3.1.6.3.8.5.2.3.3.7.4 1.3.1.6.2 1.5.2 2.5v9h5.2V17.7c0-.7 0-1.4-.1-1.9-.1-.6-.1-1-.2-1.4zm16.1-2.7c-.4-.3-.7-.5-1-.7-.5-.3-1.1-.5-1.7-.7-.7-.2-1.4-.2-2-.2-1.2 0-2.3.2-3.2.7-1 .4-1.8 1.1-2.6 2-.7.9-1.3 1.9-1.7 3-.4 1.1-.5 2.4-.5 3.7 0 1.4.2 2.7.5 3.8.3 1.2.9 2.2 1.6 3 .7.9 1.6 1.5 2.6 1.9 1 .4 2.1.7 3.3.7.6 0 1.2-.1 1.8-.2.5-.1 1.1-.3 1.6-.6.4-.2.8-.5 1.3-.8v.9h5.2V.4h-5.2v11.3zm-.2 9.7c-.2.6-.5 1.1-.8 1.5-.3.4-.7.7-1.2.9-.4.2-1 .3-1.5.3-.6 0-1.1-.1-1.6-.3-.4-.2-.8-.5-1.1-.8-.3-.4-.6-.9-.7-1.4-.2-.6-.3-1.3-.3-2.1 0-.7.1-1.4.3-2.1.2-.5.4-1 .8-1.5.3-.4.7-.7 1.2-.9.5-.2 1-.3 1.6-.3.6 0 1.1.1 1.6.3.4.2.8.5 1.1.8.3.4.6.9.7 1.4.2.6.2 1.2.2 2 0 .9-.1 1.6-.3 2.2zm27-5.5c-.2-.6-.5-1.1-.9-1.6s-.8-1-1.2-1.4c-.4-.4-.9-.8-1.5-1.2-.6-.4-1.1-.7-1.7-.9-1.2-.5-2.4-.7-3.7-.7-.6 0-1.2.1-1.9.2s-1.3.3-1.8.5-1.1.5-1.6.8c-.6.4-1 .8-1.5 1.2-.5.5-.9.9-1.2 1.4-.4.5-.6 1.1-.9 1.6-.2.5-.4 1.1-.5 1.8-.1.6-.2 1.3-.2 1.9 0 .6.1 1.2.2 1.9.1.6.3 1.2.6 1.8.2.6.5 1.1.9 1.6.3.5.7 1 1.2 1.4.4.4.9.8 1.5 1.2.5.3 1 .6 1.7.9.7.2 1.3.4 1.8.5.7.1 1.3.2 1.9.2.6 0 1.2-.1 1.9-.2.6-.1 1.2-.3 1.8-.5.6-.2 1.1-.5 1.7-.9.5-.3 1-.7 1.5-1.2.4-.4.8-.9 1.2-1.4.3-.4.6-1 .9-1.6.2-.6.4-1.2.5-1.8.1-.6.2-1.2.2-1.9 0-.6-.1-1.3-.2-1.8-.3-.7-.4-1.3-.7-1.8zm-4.9 5.4c-.2.6-.5 1.1-.9 1.5-.4.5-.9.8-1.4 1-.5.2-1 .3-1.6.3-.6 0-1.2-.1-1.6-.3-.5-.2-.9-.5-1.4-1-.4-.4-.7-.9-.9-1.5-.2-.5-.3-1.1-.3-1.8s.1-1.3.3-1.8c.2-.5.5-1 .9-1.5.4-.4.9-.8 1.4-1 .5-.2 1.1-.3 1.6-.3.6 0 1.1.1 1.6.3.5.2 1 .6 1.4 1 .8.9 1.3 2 1.3 3.3-.1.7-.2 1.3-.4 1.8zm17.8-11h-.5c-1.3.1-2.5.6-3.4 1.5v-1.3h-5.2v17.6h5.2v-7.8c0-.7 0-1.5.1-2.4.1-.9.3-1.6.6-2.2.4-.7 1.1-1.1 2-1.1.6 0 1.1.1 1.4.3.3.2.7.4 1.2.8l2-4.5c-1.1-.5-2.2-.9-3.4-.9z"/><path fill="#E74A30" d="M12.7 29.2c-.2 0-.4-.1-.5-.2C11.7 28.7 0 20.8 0 12.8c0-4.4 2.8-6.9 5.6-7.5 2.3-.5 5.1.3 6.9 2.9 1-1.6 2.6-2.6 4.5-2.7 2.4-.2 4.7 1.1 5.7 3.1s.5 4.3-1.3 6.5c-4.4 5.3-8.2 9.1-8.2 9.1-.4.4-1 .4-1.3 0l-5-5.1c-.4-.4-.4-1 0-1.4.4-.4 1-.4 1.3 0l4.3 4.4c1.3-1.3 4.2-4.4 7.4-8.3 1.3-1.5 1.6-3.1 1-4.3-.6-1.3-2.3-2.2-3.9-2-1 .1-2.8.6-3.7 3.2-.1.4-.5.7-.9.7s-.8-.2-.9-.6c-1.2-3.2-3.9-3.9-5.7-3.5-1.9.4-4 2-4 5.6 0 5.9 8.3 12.4 10.7 14.1l9.8-10.4c.4-.4 1-.4 1.3 0 .4.4.4 1 0 1.4L13.3 29c-.1.1-.4.2-.6.2z"/></g></svg>