<svg xmlns="http://www.w3.org/2000/svg" xmlns:xlink="http://www.w3.org/1999/xlink" id="Layer_1" x="0" y="0" viewBox="0 0 74.8 80" xml:space="preserve"><g class="nc-icon-wrapper"><path d="M0 72.3h2.6v2.6H0z"></path><path d="M2.6 74.8h2.6v2.6H2.6z"></path><path d="M5.2 72.3h2.6v2.6H5.2z"></path><path d="M2.6 69.7h2.6v2.6H2.6z"></path><path d="M58.3 26.2l-1.7 1.9c5.9 5.4 9.2 13 9.2 20.9 0 .9 0 1.7-.1 2.6-2.6 0-5-1.5-6.2-3.9-1.2-2.4-3.6-3.8-6.2-3.8-3.1 0-5.8 2.1-6.7 5-.7 2.4-2.9 4-5.3 4h-3.6c-2.3 0-4.2-1.9-4.2-4.2 0-.5.1-1 .3-1.5l1.7-4.4-2.4-.9-1.7 4.4c-.3.8-.5 1.6-.5 2.4 0 3.7 3 6.7 6.7 6.7h3.6c3.6 0 6.8-2.4 7.8-5.9.5-1.9 2.2-3.2 4.2-3.2 1.7 0 3.1.9 3.9 2.4 1.6 3.1 4.7 5.1 8.2 5.3-.7 3.8-2.1 7.3-4.1 10.4h-5c-2.6 0-5-1-6.9-2.8-2.3-2.3-5.4-3.6-8.7-3.6h-.1c-2.2 0-4.4.6-6.3 1.8l-1.2.7c-1.5.9-3.2 1.4-5 1.4h-.7c-2.9 0-5.7 1-7.9 2.9L16 67.6c-2.1-2.4-3.8-5.2-5-8.2h2.1c2.7 0 5.2-1.1 7.1-3 1.9-1.9 3-4.4 3-7.2 0-1.9 1.2-3.5 3-4.1 2.8-.9 4.8-3.6 4.8-6.6v-.3h-2.6v.3c0 1.9-1.2 3.5-3 4.1-2.8.9-4.8 3.6-4.8 6.6 0 2-.8 3.9-2.2 5.3-1.4 1.4-3.3 2.2-5.3 2.2h-3C9.4 54.3 9 51.7 9 49c0-7.9 3.4-15.6 9.2-20.9l-1.7-1.9C10.1 32 6.5 40.4 6.5 49c0 17.1 13.9 31 31 31s31-13.9 31-31c-.1-8.6-3.8-17-10.2-22.8zM37.4 77.4c-7.6 0-14.6-3-19.7-7.9l3.2-2.7c1.7-1.5 4-2.3 6.2-2.3h.7c2.2 0 4.4-.6 6.3-1.8l1.2-.7c1.5-.9 3.2-1.4 5-1.4h.1c2.6 0 5 1 6.9 2.8 2.3 2.3 5.4 3.6 8.7 3.6h3.1c-5 6.4-12.9 10.4-21.7 10.4zm0 0"></path><path d="M64.5 69.7h2.6v2.6h-2.6z"></path><path d="M67.1 72.3h2.6v2.6h-2.6z"></path><path d="M69.7 69.7h2.6v2.6h-2.6z"></path><path d="M67.1 67.1h2.6v2.6h-2.6z"></path><path fill="#E3C71F" d="M37.4 46.9L15.3 27c-3.2-2.9-5-7-5-11.3v-.6C10.3 6.8 17.1 0 25.5 0c3 0 5.9.9 8.4 2.5l3.5 2.4L41 2.5C43.5.9 46.4 0 49.4 0c8.4 0 15.2 6.8 15.2 15.2v.6c0 4.3-1.8 8.4-5 11.3L37.4 46.9zm0 0"></path><path d="M15.6 16.9c0-.4-.1-.8-.1-1.2v-.6c0-.4 0-.7.1-1.1l2.6.3v1.4c0 .3 0 .6.1.9l-2.7.3zm0 0"></path><path d="M31.4 34.5L18.8 23.2c-1-.9-1.8-2-2.4-3.3l2.3-1.1c.4.9 1 1.8 1.8 2.4l12.6 11.3-1.7 2zm0 0"></path><path d="M59.4 15.5h-2.6c0-4.3-3.5-7.7-7.7-7.7V5.2c5.6 0 10.3 4.6 10.3 10.3zm0 0"></path><path d="M67.1 25.8h2.6v2.6h-2.6z"></path><defs><path id="SVGID_1_" d="M0 0h74.8v80H0z"></path></defs><clipPath id="SVGID_2_"><use xlink:href="#SVGID_1_"></use></clipPath><path clip-path="url(#SVGID_2_)" d="M69.7 28.4h2.6V31h-2.6z"></path><path clip-path="url(#SVGID_2_)" d="M72.3 25.8h2.6v2.6h-2.6z"></path><path d="M69.7 23.2h2.6v2.6h-2.6z"></path><path d="M0 5.2h2.6v2.6H0z"></path><path d="M2.6 7.7h2.6v2.6H2.6z"></path><path d="M5.2 5.2h2.6v2.6H5.2z"></path><path d="M2.6 2.6h2.6v2.6H2.6z"></path></g></svg>