<svg xmlns="http://www.w3.org/2000/svg" id="Layer_1" x="0" y="0" viewBox="0 0 48 48" xml:space="preserve"><g class="nc-icon-wrapper" fill="#e74a30"><path d="M40.7 7c-4.4-4.5-10.4-7-16.6-7-4.9 0-9.7 1.5-13.7 4.4-.4.3-.5.9-.2 1.3s.9.5 1.3.2c3.7-2.7 8.1-4.1 12.6-4.1 12 0 21.7 9.8 21.7 21.9 0 12.1-9.7 21.9-21.7 21.9-3.6 0-7.2-.9-10.4-2.7-.2-.1-.5-.1-.7-.1L2.6 45.7l2.8-10.2c.1-.2 0-.5-.1-.7-1.9-3.3-3-7.2-3-11.1 0-4.6 1.4-9 4-12.7.3-.4.2-1-.2-1.3-.4-.3-1-.2-1.3.2-2.9 4-4.4 8.8-4.4 13.8 0 4.1 1 8.1 3 11.7l-3 11.4c-.1.3 0 .7.2.9.2.2.5.3.7.3h.2l11.6-3.2c3.4 1.8 7.2 2.7 11 2.7 6.3 0 12.2-2.5 16.6-7 4.4-4.5 6.9-10.5 6.9-16.8 0-6.3-2.4-12.2-6.9-16.7zm-1.4 28.1c.4.3 1 .2 1.3-.3 2.2-3.3 3.3-7.1 3.3-11.1 0-5.3-2.1-10.4-5.8-14.2-3.7-3.8-8.7-5.9-14-5.9-5.3 0-10.3 2.1-14 5.9-3.7 3.8-5.8 8.8-5.8 14.2 0 3.6.9 7.1 2.7 10.1l.6 1-1.8 6.5c-.1.3 0 .7.2.9.2.2.6.3.9.2l6.7-1.8 1 .5c2.9 1.6 6.2 2.5 9.5 2.5 3.9 0 7.7-1.2 11-3.4.4-.3.5-.9.3-1.3-.3-.4-.9-.5-1.3-.3-3 2-6.4 3-10 3-3 0-6-.8-8.6-2.2l-1.4-.4c-.2-.1-.5-.1-.7-.1L8 40.4 9.5 35c.1-.2 0-.5-.1-.7l-.8-1.4C7 30.2 6.1 27 6.1 23.8c0-10 8.1-18.2 18-18.2s18 8.1 18 18.2c0 3.6-1 7.1-3 10.1-.3.4-.2 1 .2 1.2zM20.7 20.8c.8-.9.6-2 .3-2.8-.5-1.1-1.7-4-1.8-4.3-.2-.5-.8-1.2-2-1.2h-1.4c-.1 0-3.5.6-4.1 5.6-.3 2.3.8 5.1 3.2 8.2 2.6 3.5 5 5.5 8.6 7.4 1.8.9 4.4 2 6.8 2h.2c2.7-.1 4.2-1.2 4.9-2.2.8-1 .9-2 1-2.2 0-.1.1-.5.1-1.3 0-1.2-.7-1.9-1.1-2.1-.3-.1-2.9-1.5-4-2-.7-.4-1.8-.6-2.8.5-.1.1-.3.3-.7.8-.2.3-.7 1-.9 1.2-.4 0-1.9-.6-4-2.2-1.3-1-2.7-2.6-3.5-4v-.1c.3-.2.8-.8 1.2-1.3zm1.1 7c.6.5 1.8 1.4 3 2 .6.3 2.2 1.1 3.3.2.3-.3.7-.8 1.2-1.5.2-.2.3-.5.4-.6l.1-.1c.2-.2.2-.3.6-.1 1.1.5 3.9 1.9 4 2 0 0 .1.1.1.4 0 .8-.1 1.1-.1 1.1 0 .1-.1.7-.6 1.3-.7.9-1.9 1.3-3.4 1.4-2.1.1-4.5-.9-6.1-1.8-3.3-1.7-5.5-3.6-8-6.8-2-2.7-3-5.1-2.8-6.9.4-3.4 2.2-3.9 2.5-4h1.1c.2 0 .3.1.4.1 0 .1 1.4 3.1 1.8 4.3.2.6.1.7 0 .8l-.1.1c-.5.6-.9 1.1-1.1 1.3-.7.7-.6 1.7-.3 2.3 1 1.5 2.5 3.3 4 4.5zM8.1 8.6c.2 0 .4-.1.6-.2.4-.4.4-1 .1-1.4-.4-.4-1-.4-1.3-.1-.4.4-.4 1-.1 1.4.2.2.4.3.7.3zm28.7 28c-.3.4-.3 1 .1 1.3.2.2.4.2.6.2.3 0 .5-.1.7-.3.3-.4.3-1-.1-1.3-.4-.3-1-.2-1.3.1z"></path></g></svg>